SplineFontDB: 3.0
FontName: Vaigai-Regular
FullName: Vaigai
FamilyName: Vaigai
Weight: Book
Copyright: Copyright (c) 1995-2015, NLCI (http://www.nlci.in/fonts/) Derived from SAU Vaigai Normal by ttfbuilder v0.33
Version: 1.0 Thu Aug 08 15:05:52 1996
ItalicAngle: 0
UnderlinePosition: -260
UnderlineWidth: 20
Ascent: 800
Descent: 200
InvalidEm: 0
sfntRevision: 0x00010000
LayerCount: 2
Layer: 0 1 "Back" 1
Layer: 1 1 "Fore" 0
XUID: [1021 941 -2018410001 7113411]
StyleMap: 0x0040
FSType: 0
OS2Version: 1
OS2_WeightWidthSlopeOnly: 0
OS2_UseTypoMetrics: 0
CreationTime: 1534550735
ModificationTime: 1534550776
PfmFamily: 17
TTFWeight: 400
TTFWidth: 5
LineGap: 0
VLineGap: 0
Panose: 2 0 0 3 0 0 0 0 0 0
OS2TypoAscent: 1068
OS2TypoAOffset: 0
OS2TypoDescent: -359
OS2TypoDOffset: 0
OS2TypoLinegap: 0
OS2WinAscent: 1068
OS2WinAOffset: 0
OS2WinDescent: 359
OS2WinDOffset: 0
HheadAscent: 1068
HheadAOffset: 0
HheadDescent: -359
HheadDOffset: 0
OS2SubXSize: 700
OS2SubYSize: 650
OS2SubXOff: 0
OS2SubYOff: 143
OS2SupXSize: 700
OS2SupYSize: 650
OS2SupXOff: 0
OS2SupYOff: 453
OS2StrikeYSize: 50
OS2StrikeYPos: 259
OS2Vendor: 'Alts'
OS2CodePages: 20000001.00000000
OS2UnicodeRanges: a01080ff.520021cb.08000028.00000000
Lookup: 260 0 0 "_holdAnchorsbase" { "_someAnchorsbase"  } []
DEI: 91125
ShortTable: maxp 16
  1
  0
  339
  171
  12
  279
  16
  1
  0
  0
  0
  0
  3
  0
  3
  2
EndShort

StartChar: .notdef
Encoding: 0 -1 0
Width: 500
Flags: W
LayerCount: 2
Fore
SplineSet
31 0 m 1,0,-1
 31 750 l 1,1,-1
 469 750 l 1,2,-1
 469 0 l 1,3,-1
 31 0 l 1,0,-1
438 31 m 1,4,-1
 438 719 l 1,5,-1
 62 719 l 1,6,-1
 62 31 l 1,7,-1
 438 31 l 1,4,-1
EndSplineSet
EndChar

StartChar: exclam
Encoding: 4 33 4
Width: 284
VWidth: 488
Flags: W
LayerCount: 2
Fore
SplineSet
167.48046875 193.84765625 m 0,0,1
 158.203125 187.01171875 158.203125 187.01171875 148.4375 182.861328125 c 0,2,3
 138.671875 178.7109375 138.671875 178.7109375 126.46484375 174.8046875 c 0,4,-1
 112.3046875 185.05859375 l 0,5,-1
 84.47265625 677.734375 l 0,6,7
 94.23828125 683.59375 94.23828125 683.59375 106.201171875 690.185546875 c 0,8,9
 118.1640625 696.77734375 118.1640625 696.77734375 130.37109375 702.880859375 c 0,10,11
 142.578125 708.984375 142.578125 708.984375 154.052734375 714.111328125 c 0,12,13
 165.52734375 719.23828125 165.52734375 719.23828125 174.31640625 722.65625 c 0,14,-1
 196.2890625 709.47265625 l 0,15,-1
 167.48046875 193.84765625 l 0,0,1
204.58984375 61.5234375 m 0,16,17
 204.58984375 43.9453125 204.58984375 43.9453125 198.73046875 29.052734375 c 0,18,19
 192.87109375 14.16015625 192.87109375 14.16015625 182.861328125 3.41796875 c 0,20,21
 172.8515625 -7.32421875 172.8515625 -7.32421875 159.1796875 -13.427734375 c 0,22,23
 145.5078125 -19.53125 145.5078125 -19.53125 129.8828125 -19.53125 c 0,24,25
 102.5390625 -19.53125 102.5390625 -19.53125 88.134765625 -4.8828125 c 0,26,27
 73.73046875 9.765625 73.73046875 9.765625 73.73046875 39.0625 c 0,28,29
 73.73046875 56.640625 73.73046875 56.640625 79.833984375 71.2890625 c 0,30,31
 85.9375 85.9375 85.9375 85.9375 96.19140625 96.923828125 c 0,32,33
 106.4453125 107.91015625 106.4453125 107.91015625 120.1171875 114.013671875 c 0,34,35
 133.7890625 120.1171875 133.7890625 120.1171875 148.92578125 120.1171875 c 0,36,37
 173.828125 120.1171875 173.828125 120.1171875 189.208984375 105.46875 c 0,38,39
 204.58984375 90.8203125 204.58984375 90.8203125 204.58984375 61.5234375 c 0,16,17
EndSplineSet
EndChar

StartChar: quotedbl
Encoding: 5 34 5
Width: 439
VWidth: 488
Flags: W
LayerCount: 2
Fore
SplineSet
339.35546875 407.2265625 m 0,0,1
 335.44921875 405.2734375 335.44921875 405.2734375 329.1015625 403.3203125 c 0,2,3
 322.75390625 401.3671875 322.75390625 401.3671875 315.4296875 399.90234375 c 0,4,5
 308.10546875 398.4375 308.10546875 398.4375 300.78125 397.705078125 c 0,6,7
 293.45703125 396.97265625 293.45703125 396.97265625 287.59765625 396.97265625 c 0,8,-1
 256.8359375 691.40625 l 0,9,10
 262.20703125 694.3359375 262.20703125 694.3359375 274.4140625 699.21875 c 0,11,12
 286.62109375 704.1015625 286.62109375 704.1015625 300.048828125 708.984375 c 0,13,14
 313.4765625 713.8671875 313.4765625 713.8671875 325.68359375 717.7734375 c 0,15,16
 337.890625 721.6796875 337.890625 721.6796875 343.26171875 722.65625 c 0,17,-1
 365.234375 711.42578125 l 0,18,-1
 339.35546875 407.2265625 l 0,0,1
157.2265625 407.2265625 m 0,19,20
 153.3203125 405.2734375 153.3203125 405.2734375 146.97265625 403.3203125 c 0,21,22
 140.625 401.3671875 140.625 401.3671875 133.30078125 399.90234375 c 0,23,24
 125.9765625 398.4375 125.9765625 398.4375 118.65234375 397.705078125 c 0,25,26
 111.328125 396.97265625 111.328125 396.97265625 105.46875 396.97265625 c 0,27,-1
 74.70703125 691.40625 l 0,28,29
 80.078125 694.3359375 80.078125 694.3359375 92.28515625 699.21875 c 0,30,31
 104.4921875 704.1015625 104.4921875 704.1015625 117.919921875 708.984375 c 0,32,33
 131.34765625 713.8671875 131.34765625 713.8671875 143.310546875 717.7734375 c 0,34,35
 155.2734375 721.6796875 155.2734375 721.6796875 160.64453125 722.65625 c 0,36,-1
 183.10546875 711.42578125 l 0,37,-1
 157.2265625 407.2265625 l 0,19,20
EndSplineSet
EndChar

StartChar: numbersign
Encoding: 6 35 6
Width: 481
VWidth: 488
Flags: W
LayerCount: 2
Fore
SplineSet
202.1484375 290.52734375 m 0,0,-1
 291.50390625 290.52734375 l 0,1,-1
 326.171875 410.64453125 l 0,2,-1
 236.328125 410.64453125 l 0,3,-1
 202.1484375 290.52734375 l 0,0,-1
402.83203125 471.6796875 m 0,4,-1
 477.05078125 471.6796875 l 0,5,-1
 489.2578125 459.47265625 l 0,6,7
 488.28125 454.1015625 488.28125 454.1015625 486.083984375 447.265625 c 0,8,9
 483.88671875 440.4296875 483.88671875 440.4296875 481.201171875 433.59375 c 0,10,11
 478.515625 426.7578125 478.515625 426.7578125 476.07421875 420.654296875 c 0,12,13
 473.6328125 414.55078125 473.6328125 414.55078125 471.6796875 410.64453125 c 0,14,-1
 385.25390625 410.64453125 l 0,15,-1
 351.07421875 290.52734375 l 0,16,-1
 425.29296875 290.52734375 l 0,17,-1
 436.03515625 277.34375 l 0,18,19
 435.05859375 272.4609375 435.05859375 272.4609375 433.10546875 266.11328125 c 0,20,21
 431.15234375 259.765625 431.15234375 259.765625 428.7109375 252.9296875 c 0,22,23
 426.26953125 246.09375 426.26953125 246.09375 424.072265625 239.990234375 c 0,24,25
 421.875 233.88671875 421.875 233.88671875 419.921875 229.4921875 c 0,26,-1
 333.49609375 229.4921875 l 0,27,-1
 291.9921875 83.0078125 l 0,28,29
 283.203125 76.171875 283.203125 76.171875 269.04296875 71.2890625 c 0,30,31
 254.8828125 66.40625 254.8828125 66.40625 242.1875 62.01171875 c 0,32,-1
 229.4921875 71.77734375 l 0,33,-1
 274.4140625 229.4921875 l 0,34,-1
 184.5703125 229.4921875 l 0,35,-1
 142.578125 83.0078125 l 0,36,37
 133.7890625 76.171875 133.7890625 76.171875 120.1171875 71.2890625 c 0,38,39
 106.4453125 66.40625 106.4453125 66.40625 93.75 62.01171875 c 0,40,-1
 81.0546875 71.77734375 l 0,41,-1
 125.9765625 229.4921875 l 0,42,-1
 50.78125 229.4921875 l 0,43,-1
 40.0390625 241.69921875 l 0,44,45
 41.015625 246.58203125 41.015625 246.58203125 42.96875 252.9296875 c 0,46,47
 44.921875 259.27734375 44.921875 259.27734375 47.36328125 265.625 c 0,48,-1
 52.24609375 278.80859375 l 0,49,50
 54.6875 285.64453125 54.6875 285.64453125 57.12890625 290.52734375 c 0,51,-1
 143.06640625 290.52734375 l 0,52,-1
 177.734375 410.64453125 l 0,53,-1
 104.00390625 410.64453125 l 0,54,-1
 91.796875 422.36328125 l 0,55,56
 94.23828125 433.10546875 94.23828125 433.10546875 99.853515625 447.509765625 c 0,57,58
 105.46875 461.9140625 105.46875 461.9140625 109.375 471.6796875 c 0,59,-1
 194.82421875 471.6796875 l 0,60,-1
 234.86328125 610.83984375 l 0,61,62
 245.60546875 618.65234375 245.60546875 618.65234375 258.7890625 622.55859375 c 0,63,64
 271.97265625 626.46484375 271.97265625 626.46484375 282.71484375 630.859375 c 0,65,-1
 296.875 620.1171875 l 0,66,-1
 253.90625 471.6796875 l 0,67,-1
 343.26171875 471.6796875 l 0,68,-1
 383.30078125 610.83984375 l 0,69,70
 394.04296875 618.65234375 394.04296875 618.65234375 407.470703125 622.55859375 c 0,71,72
 420.8984375 626.46484375 420.8984375 626.46484375 432.12890625 630.859375 c 0,73,-1
 445.3125 620.1171875 l 0,74,-1
 402.83203125 471.6796875 l 0,4,-1
EndSplineSet
EndChar

StartChar: dollar
Encoding: 7 36 7
Width: 481
VWidth: 488
Flags: W
LayerCount: 2
Fore
SplineSet
263.671875 -67.3828125 m 0,0,1
 254.8828125 -75.1953125 254.8828125 -75.1953125 248.046875 -78.61328125 c 0,2,3
 241.2109375 -82.03125 241.2109375 -82.03125 229.00390625 -84.9609375 c 0,4,-1
 214.84375 -73.2421875 l 0,5,-1
 214.84375 -4.8828125 l 0,6,7
 169.921875 -3.90625 169.921875 -3.90625 130.126953125 9.033203125 c 0,8,9
 90.33203125 21.97265625 90.33203125 21.97265625 47.36328125 49.31640625 c 0,10,11
 43.9453125 51.7578125 43.9453125 51.7578125 42.48046875 66.89453125 c 0,12,13
 41.015625 82.03125 41.015625 82.03125 41.259765625 102.05078125 c 0,14,15
 41.50390625 122.0703125 41.50390625 122.0703125 43.212890625 142.822265625 c 0,16,17
 44.921875 163.57421875 44.921875 163.57421875 48.828125 177.24609375 c 0,18,-1
 74.70703125 175.29296875 l 0,19,20
 98.14453125 125 98.14453125 125 133.544921875 96.19140625 c 0,21,22
 168.9453125 67.3828125 168.9453125 67.3828125 214.84375 60.546875 c 0,23,-1
 214.84375 285.64453125 l 0,24,25
 184.08203125 296.875 184.08203125 296.875 153.564453125 309.326171875 c 0,26,27
 123.046875 321.77734375 123.046875 321.77734375 99.12109375 339.35546875 c 0,28,29
 75.1953125 356.93359375 75.1953125 356.93359375 60.302734375 382.080078125 c 0,30,31
 45.41015625 407.2265625 45.41015625 407.2265625 45.41015625 443.84765625 c 0,32,33
 45.41015625 464.84375 45.41015625 464.84375 53.7109375 488.525390625 c 0,34,35
 62.01171875 512.20703125 62.01171875 512.20703125 81.787109375 533.203125 c 0,36,37
 101.5625 554.19921875 101.5625 554.19921875 134.033203125 570.068359375 c 0,38,39
 166.50390625 585.9375 166.50390625 585.9375 214.84375 590.8203125 c 0,40,-1
 214.84375 659.66796875 l 0,41,42
 221.6796875 663.57421875 221.6796875 663.57421875 225.341796875 666.015625 c 0,43,44
 229.00390625 668.45703125 229.00390625 668.45703125 231.93359375 669.921875 c 0,45,46
 234.86328125 671.38671875 234.86328125 671.38671875 238.525390625 672.607421875 c 0,47,48
 242.1875 673.828125 242.1875 673.828125 249.51171875 675.78125 c 0,49,-1
 263.671875 664.0625 l 0,50,-1
 263.671875 592.7734375 l 0,51,52
 287.109375 591.796875 287.109375 591.796875 309.814453125 588.134765625 c 0,53,54
 332.51953125 584.47265625 332.51953125 584.47265625 352.05078125 578.125 c 0,55,56
 371.58203125 571.77734375 371.58203125 571.77734375 387.20703125 563.720703125 c 0,57,58
 402.83203125 555.6640625 402.83203125 555.6640625 412.109375 546.38671875 c 0,59,60
 415.0390625 542.96875 415.0390625 542.96875 411.376953125 531.982421875 c 0,61,62
 407.71484375 520.99609375 407.71484375 520.99609375 400.87890625 508.056640625 c 0,63,64
 394.04296875 495.1171875 394.04296875 495.1171875 385.7421875 483.154296875 c 0,65,66
 377.44140625 471.19140625 377.44140625 471.19140625 371.09375 465.33203125 c 0,67,-1
 347.16796875 469.23828125 l 0,68,69
 310.05859375 521.484375 310.05859375 521.484375 263.671875 535.64453125 c 0,70,-1
 263.671875 356.93359375 l 0,71,72
 294.921875 345.21484375 294.921875 345.21484375 325.68359375 331.54296875 c 0,73,74
 356.4453125 317.87109375 356.4453125 317.87109375 380.859375 297.8515625 c 0,75,76
 405.2734375 277.83203125 405.2734375 277.83203125 420.41015625 250.244140625 c 0,77,78
 435.546875 222.65625 435.546875 222.65625 435.546875 183.10546875 c 0,79,80
 435.546875 153.80859375 435.546875 153.80859375 425.048828125 123.779296875 c 0,81,82
 414.55078125 93.75 414.55078125 93.75 393.310546875 68.115234375 c 0,83,84
 372.0703125 42.48046875 372.0703125 42.48046875 339.84375 23.681640625 c 0,85,86
 307.6171875 4.8828125 307.6171875 4.8828125 263.671875 -1.46484375 c 0,87,-1
 263.671875 -67.3828125 l 0,0,1
357.421875 157.2265625 m 0,88,89
 357.421875 178.7109375 357.421875 178.7109375 350.09765625 195.3125 c 0,90,91
 342.7734375 211.9140625 342.7734375 211.9140625 330.078125 225.09765625 c 0,92,93
 317.3828125 238.28125 317.3828125 238.28125 300.29296875 248.291015625 c 0,94,95
 283.203125 258.30078125 283.203125 258.30078125 263.671875 266.6015625 c 0,96,-1
 263.671875 59.5703125 l 0,97,98
 281.73828125 62.5 281.73828125 62.5 298.828125 70.3125 c 0,99,100
 315.91796875 78.125 315.91796875 78.125 328.857421875 90.576171875 c 0,101,102
 341.796875 103.02734375 341.796875 103.02734375 349.609375 119.873046875 c 0,103,104
 357.421875 136.71875 357.421875 136.71875 357.421875 157.2265625 c 0,88,89
119.62890625 466.796875 m 0,105,106
 119.62890625 449.21875 119.62890625 449.21875 126.953125 435.791015625 c 0,107,108
 134.27734375 422.36328125 134.27734375 422.36328125 147.216796875 411.62109375 c 0,109,110
 160.15625 400.87890625 160.15625 400.87890625 177.490234375 392.08984375 c 0,111,112
 194.82421875 383.30078125 194.82421875 383.30078125 214.84375 375.48828125 c 0,113,-1
 214.84375 541.015625 l 0,114,115
 188.96484375 539.55078125 188.96484375 539.55078125 170.8984375 532.71484375 c 0,116,117
 152.83203125 525.87890625 152.83203125 525.87890625 141.6015625 515.625 c 0,118,119
 130.37109375 505.37109375 130.37109375 505.37109375 125 492.67578125 c 0,120,121
 119.62890625 479.98046875 119.62890625 479.98046875 119.62890625 466.796875 c 0,105,106
EndSplineSet
EndChar

StartChar: percent
Encoding: 8 37 8
Width: 702
VWidth: 488
Flags: W
LayerCount: 2
Fore
SplineSet
320.3125 437.98828125 m 0,0,1
 320.3125 404.296875 320.3125 404.296875 308.59375 374.267578125 c 0,2,3
 296.875 344.23828125 296.875 344.23828125 276.611328125 321.533203125 c 0,4,5
 256.34765625 298.828125 256.34765625 298.828125 229.00390625 285.64453125 c 0,6,7
 201.66015625 272.4609375 201.66015625 272.4609375 170.8984375 272.4609375 c 0,8,9
 140.13671875 272.4609375 140.13671875 272.4609375 114.74609375 285.64453125 c 0,10,11
 89.35546875 298.828125 89.35546875 298.828125 71.533203125 321.533203125 c 0,12,13
 53.7109375 344.23828125 53.7109375 344.23828125 43.701171875 374.267578125 c 0,14,15
 33.69140625 404.296875 33.69140625 404.296875 33.69140625 437.98828125 c 0,16,17
 33.69140625 471.6796875 33.69140625 471.6796875 45.166015625 501.708984375 c 0,18,19
 56.640625 531.73828125 56.640625 531.73828125 76.904296875 554.19921875 c 0,20,21
 97.16796875 576.66015625 97.16796875 576.66015625 124.267578125 589.84375 c 0,22,23
 151.3671875 603.02734375 151.3671875 603.02734375 182.12890625 603.02734375 c 0,24,25
 213.37890625 603.02734375 213.37890625 603.02734375 239.013671875 590.087890625 c 0,26,27
 264.6484375 577.1484375 264.6484375 577.1484375 282.71484375 554.6875 c 0,28,29
 300.78125 532.2265625 300.78125 532.2265625 310.546875 502.197265625 c 0,30,31
 320.3125 472.16796875 320.3125 472.16796875 320.3125 437.98828125 c 0,0,1
239.74609375 428.22265625 m 0,32,33
 239.74609375 463.37890625 239.74609375 463.37890625 234.130859375 489.013671875 c 0,34,35
 228.515625 514.6484375 228.515625 514.6484375 218.994140625 531.494140625 c 0,36,37
 209.47265625 548.33984375 209.47265625 548.33984375 197.021484375 556.396484375 c 0,38,39
 184.5703125 564.453125 184.5703125 564.453125 170.8984375 564.453125 c 0,40,41
 159.66796875 564.453125 159.66796875 564.453125 149.4140625 557.6171875 c 0,42,43
 139.16015625 550.78125 139.16015625 550.78125 131.34765625 536.62109375 c 0,44,45
 123.53515625 522.4609375 123.53515625 522.4609375 118.896484375 500.732421875 c 0,46,47
 114.2578125 479.00390625 114.2578125 479.00390625 114.2578125 449.21875 c 0,48,49
 114.2578125 377.9296875 114.2578125 377.9296875 132.8125 344.482421875 c 0,50,51
 151.3671875 311.03515625 151.3671875 311.03515625 182.12890625 311.03515625 c 0,52,53
 207.03125 311.03515625 207.03125 311.03515625 223.388671875 339.84375 c 0,54,55
 239.74609375 368.65234375 239.74609375 368.65234375 239.74609375 428.22265625 c 0,32,33
177.24609375 6.8359375 m 0,56,57
 172.8515625 3.41796875 172.8515625 3.41796875 163.818359375 0.244140625 c 0,58,59
 154.78515625 -2.9296875 154.78515625 -2.9296875 144.775390625 -6.103515625 c 0,60,61
 134.765625 -9.27734375 134.765625 -9.27734375 125.244140625 -11.71875 c 0,62,63
 115.72265625 -14.16015625 115.72265625 -14.16015625 109.375 -16.11328125 c 0,64,-1
 97.65625 0.48828125 l 0,65,-1
 524.90234375 582.03125 l 0,66,67
 531.25 585.44921875 531.25 585.44921875 539.794921875 588.623046875 c 0,68,69
 548.33984375 591.796875 548.33984375 591.796875 557.6171875 594.7265625 c 0,70,71
 566.89453125 597.65625 566.89453125 597.65625 575.927734375 600.09765625 c 0,72,73
 584.9609375 602.5390625 584.9609375 602.5390625 591.796875 604.00390625 c 0,74,-1
 605.46875 588.37890625 l 0,75,-1
 177.24609375 6.8359375 l 0,56,57
669.43359375 150.87890625 m 0,76,77
 669.43359375 117.1875 669.43359375 117.1875 657.71484375 87.158203125 c 0,78,79
 645.99609375 57.12890625 645.99609375 57.12890625 625.732421875 34.423828125 c 0,80,81
 605.46875 11.71875 605.46875 11.71875 578.369140625 -1.46484375 c 0,82,83
 551.26953125 -14.6484375 551.26953125 -14.6484375 520.5078125 -14.6484375 c 0,84,85
 489.74609375 -14.6484375 489.74609375 -14.6484375 464.599609375 -1.46484375 c 0,86,87
 439.453125 11.71875 439.453125 11.71875 421.38671875 34.423828125 c 0,88,89
 403.3203125 57.12890625 403.3203125 57.12890625 393.310546875 87.158203125 c 0,90,91
 383.30078125 117.1875 383.30078125 117.1875 383.30078125 150.87890625 c 0,92,93
 383.30078125 185.05859375 383.30078125 185.05859375 395.01953125 215.087890625 c 0,94,95
 406.73828125 245.1171875 406.73828125 245.1171875 426.7578125 267.578125 c 0,96,97
 446.77734375 290.0390625 446.77734375 290.0390625 474.12109375 303.22265625 c 0,98,99
 501.46484375 316.40625 501.46484375 316.40625 532.2265625 316.40625 c 0,100,101
 563.4765625 316.40625 563.4765625 316.40625 588.8671875 303.466796875 c 0,102,103
 614.2578125 290.52734375 614.2578125 290.52734375 632.32421875 268.06640625 c 0,104,105
 650.390625 245.60546875 650.390625 245.60546875 659.912109375 215.33203125 c 0,106,107
 669.43359375 185.05859375 669.43359375 185.05859375 669.43359375 150.87890625 c 0,76,77
589.35546875 141.11328125 m 0,108,109
 589.35546875 176.26953125 589.35546875 176.26953125 583.740234375 201.904296875 c 0,110,111
 578.125 227.5390625 578.125 227.5390625 568.84765625 244.384765625 c 0,112,113
 559.5703125 261.23046875 559.5703125 261.23046875 546.875 269.53125 c 0,114,115
 534.1796875 277.83203125 534.1796875 277.83203125 520.5078125 277.83203125 c 0,116,117
 509.27734375 277.83203125 509.27734375 277.83203125 499.0234375 270.99609375 c 0,118,119
 488.76953125 264.16015625 488.76953125 264.16015625 481.201171875 249.755859375 c 0,120,121
 473.6328125 235.3515625 473.6328125 235.3515625 468.994140625 213.623046875 c 0,122,123
 464.35546875 191.89453125 464.35546875 191.89453125 464.35546875 162.109375 c 0,124,125
 464.35546875 90.8203125 464.35546875 90.8203125 482.91015625 57.373046875 c 0,126,127
 501.46484375 23.92578125 501.46484375 23.92578125 532.2265625 23.92578125 c 0,128,129
 557.12890625 23.92578125 557.12890625 23.92578125 573.2421875 52.734375 c 0,130,131
 589.35546875 81.54296875 589.35546875 81.54296875 589.35546875 141.11328125 c 0,108,109
EndSplineSet
EndChar

StartChar: ampersand
Encoding: 9 38 9
Width: 675
VWidth: 488
Flags: W
LayerCount: 2
Fore
SplineSet
668.45703125 365.234375 m 0,0,1
 656.25 350.09765625 656.25 350.09765625 643.06640625 337.158203125 c 0,2,3
 629.8828125 324.21875 629.8828125 324.21875 617.67578125 315.91796875 c 0,4,5
 608.88671875 320.3125 608.88671875 320.3125 597.900390625 323.974609375 c 0,6,7
 586.9140625 327.63671875 586.9140625 327.63671875 575.927734375 330.322265625 c 0,8,9
 564.94140625 333.0078125 564.94140625 333.0078125 554.6875 334.716796875 c 0,10,11
 544.43359375 336.42578125 544.43359375 336.42578125 536.1328125 336.9140625 c 0,12,13
 541.015625 328.61328125 541.015625 328.61328125 544.189453125 321.2890625 c 0,14,15
 547.36328125 313.96484375 547.36328125 313.96484375 549.31640625 305.6640625 c 0,16,17
 551.26953125 297.36328125 551.26953125 297.36328125 551.7578125 287.59765625 c 0,18,19
 552.24609375 277.83203125 552.24609375 277.83203125 552.24609375 265.13671875 c 0,20,21
 552.24609375 231.4453125 552.24609375 231.4453125 537.109375 193.359375 c 0,22,23
 521.97265625 155.2734375 521.97265625 155.2734375 494.62890625 119.140625 c 0,24,25
 508.7890625 105.46875 508.7890625 105.46875 522.4609375 93.505859375 c 0,26,27
 536.1328125 81.54296875 536.1328125 81.54296875 548.828125 71.77734375 c 0,28,29
 569.82421875 54.19921875 569.82421875 54.19921875 593.017578125 49.072265625 c 0,30,31
 616.2109375 43.9453125 616.2109375 43.9453125 643.5546875 50.29296875 c 0,32,-1
 648.92578125 24.4140625 l 0,33,34
 627.9296875 15.13671875 627.9296875 15.13671875 608.154296875 7.8125 c 0,35,36
 588.37890625 0.48828125 588.37890625 0.48828125 572.021484375 -4.39453125 c 0,37,38
 555.6640625 -9.27734375 555.6640625 -9.27734375 543.9453125 -11.962890625 c 0,39,40
 532.2265625 -14.6484375 532.2265625 -14.6484375 526.85546875 -14.6484375 c 0,41,42
 515.625 -14.6484375 515.625 -14.6484375 489.501953125 3.173828125 c 0,43,44
 463.37890625 20.99609375 463.37890625 20.99609375 429.19921875 52.24609375 c 0,45,46
 390.625 21.97265625 390.625 21.97265625 343.994140625 3.662109375 c 0,47,48
 297.36328125 -14.6484375 297.36328125 -14.6484375 245.60546875 -14.6484375 c 0,49,50
 198.2421875 -14.6484375 198.2421875 -14.6484375 159.66796875 -2.685546875 c 0,51,52
 121.09375 9.27734375 121.09375 9.27734375 93.75 32.71484375 c 0,53,54
 66.40625 56.15234375 66.40625 56.15234375 51.513671875 91.064453125 c 0,55,56
 36.62109375 125.9765625 36.62109375 125.9765625 36.62109375 171.875 c 0,57,58
 36.62109375 225.5859375 36.62109375 225.5859375 72.75390625 280.2734375 c 0,59,60
 108.88671875 334.9609375 108.88671875 334.9609375 179.6875 386.23046875 c 0,61,62
 164.55078125 421.875 164.55078125 421.875 156.005859375 456.298828125 c 0,63,64
 147.4609375 490.72265625 147.4609375 490.72265625 147.4609375 523.92578125 c 0,65,66
 147.4609375 563.4765625 147.4609375 563.4765625 161.376953125 597.16796875 c 0,67,68
 175.29296875 630.859375 175.29296875 630.859375 198.486328125 655.517578125 c 0,69,70
 221.6796875 680.17578125 221.6796875 680.17578125 252.44140625 694.091796875 c 0,71,72
 283.203125 708.0078125 283.203125 708.0078125 316.89453125 708.0078125 c 0,73,74
 349.609375 708.0078125 349.609375 708.0078125 372.802734375 697.998046875 c 0,75,76
 395.99609375 687.98828125 395.99609375 687.98828125 410.15625 671.38671875 c 0,77,78
 424.31640625 654.78515625 424.31640625 654.78515625 430.908203125 633.056640625 c 0,79,80
 437.5 611.328125 437.5 611.328125 437.5 587.890625 c 0,81,82
 437.5 562.5 437.5 562.5 427.734375 537.59765625 c 0,83,84
 417.96875 512.6953125 417.96875 512.6953125 400.390625 489.501953125 c 0,85,86
 382.8125 466.30859375 382.8125 466.30859375 358.642578125 445.3125 c 0,87,88
 334.47265625 424.31640625 334.47265625 424.31640625 305.6640625 406.25 c 0,89,-1
 277.83203125 388.18359375 l 0,90,91
 294.921875 357.421875 294.921875 357.421875 315.673828125 326.904296875 c 0,92,93
 336.42578125 296.38671875 336.42578125 296.38671875 359.619140625 267.08984375 c 0,94,95
 382.8125 237.79296875 382.8125 237.79296875 406.982421875 209.9609375 c 0,96,97
 431.15234375 182.12890625 431.15234375 182.12890625 455.56640625 157.2265625 c 0,98,99
 469.23828125 179.19921875 469.23828125 179.19921875 476.318359375 201.904296875 c 0,100,101
 483.3984375 224.609375 483.3984375 224.609375 483.3984375 245.1171875 c 0,102,103
 483.3984375 265.625 483.3984375 265.625 476.806640625 283.203125 c 0,104,105
 470.21484375 300.78125 470.21484375 300.78125 459.228515625 313.4765625 c 0,106,107
 448.2421875 326.171875 448.2421875 326.171875 434.326171875 333.49609375 c 0,108,109
 420.41015625 340.8203125 420.41015625 340.8203125 406.25 340.8203125 c 0,110,-1
 394.53125 355.46875 l 0,111,112
 396.97265625 358.3984375 396.97265625 358.3984375 401.611328125 362.79296875 c 0,113,114
 406.25 367.1875 406.25 367.1875 411.62109375 371.337890625 c 0,115,116
 416.9921875 375.48828125 416.9921875 375.48828125 422.607421875 378.90625 c 0,117,118
 428.22265625 382.32421875 428.22265625 382.32421875 433.10546875 384.27734375 c 0,119,-1
 655.76171875 384.27734375 l 0,120,-1
 668.45703125 365.234375 l 0,0,1
265.13671875 45.8984375 m 0,121,122
 301.7578125 45.8984375 301.7578125 45.8984375 333.740234375 57.373046875 c 0,123,124
 365.72265625 68.84765625 365.72265625 68.84765625 392.08984375 87.890625 c 0,125,126
 367.67578125 112.3046875 367.67578125 112.3046875 342.529296875 140.625 c 0,127,128
 317.3828125 168.9453125 317.3828125 168.9453125 293.212890625 200.1953125 c 0,129,130
 269.04296875 231.4453125 269.04296875 231.4453125 246.826171875 264.892578125 c 0,131,132
 224.609375 298.33984375 224.609375 298.33984375 206.0546875 332.51953125 c 0,133,134
 185.05859375 312.98828125 185.05859375 312.98828125 170.8984375 294.43359375 c 0,135,136
 156.73828125 275.87890625 156.73828125 275.87890625 147.94921875 257.568359375 c 0,137,138
 139.16015625 239.2578125 139.16015625 239.2578125 135.498046875 220.458984375 c 0,139,140
 131.8359375 201.66015625 131.8359375 201.66015625 131.8359375 182.12890625 c 0,141,142
 131.8359375 147.94921875 131.8359375 147.94921875 143.310546875 122.314453125 c 0,143,144
 154.78515625 96.6796875 154.78515625 96.6796875 173.33984375 79.833984375 c 0,145,146
 191.89453125 62.98828125 191.89453125 62.98828125 216.064453125 54.443359375 c 0,147,148
 240.234375 45.8984375 240.234375 45.8984375 265.13671875 45.8984375 c 0,121,122
225.5859375 551.7578125 m 0,149,150
 225.5859375 523.92578125 225.5859375 523.92578125 233.3984375 494.384765625 c 0,151,152
 241.2109375 464.84375 241.2109375 464.84375 255.37109375 433.59375 c 0,153,154
 285.15625 450.68359375 285.15625 450.68359375 304.19921875 468.505859375 c 0,155,156
 323.2421875 486.328125 323.2421875 486.328125 334.228515625 503.90625 c 0,157,158
 345.21484375 521.484375 345.21484375 521.484375 349.365234375 538.57421875 c 0,159,160
 353.515625 555.6640625 353.515625 555.6640625 353.515625 571.77734375 c 0,161,162
 353.515625 588.8671875 353.515625 588.8671875 349.12109375 603.515625 c 0,163,164
 344.7265625 618.1640625 344.7265625 618.1640625 336.669921875 629.150390625 c 0,165,166
 328.61328125 640.13671875 328.61328125 640.13671875 316.650390625 646.240234375 c 0,167,168
 304.6875 652.34375 304.6875 652.34375 289.55078125 652.34375 c 0,169,170
 273.4375 652.34375 273.4375 652.34375 261.474609375 643.798828125 c 0,171,172
 249.51171875 635.25390625 249.51171875 635.25390625 241.455078125 621.337890625 c 0,173,174
 233.3984375 607.421875 233.3984375 607.421875 229.4921875 589.111328125 c 0,175,176
 225.5859375 570.80078125 225.5859375 570.80078125 225.5859375 551.7578125 c 0,149,150
EndSplineSet
EndChar

StartChar: quotesingle
Encoding: 10 39 10
Width: 257
VWidth: 488
Flags: W
LayerCount: 2
Fore
SplineSet
157.2265625 407.2265625 m 0,0,1
 153.3203125 405.2734375 153.3203125 405.2734375 146.97265625 403.3203125 c 0,2,3
 140.625 401.3671875 140.625 401.3671875 133.30078125 399.90234375 c 0,4,5
 125.9765625 398.4375 125.9765625 398.4375 118.65234375 397.705078125 c 0,6,7
 111.328125 396.97265625 111.328125 396.97265625 105.46875 396.97265625 c 0,8,-1
 74.70703125 691.40625 l 0,9,10
 80.078125 694.3359375 80.078125 694.3359375 92.28515625 699.21875 c 0,11,12
 104.4921875 704.1015625 104.4921875 704.1015625 117.919921875 708.984375 c 0,13,14
 131.34765625 713.8671875 131.34765625 713.8671875 143.310546875 717.7734375 c 0,15,16
 155.2734375 721.6796875 155.2734375 721.6796875 160.64453125 722.65625 c 0,17,-1
 183.10546875 711.42578125 l 0,18,-1
 157.2265625 407.2265625 l 0,0,1
EndSplineSet
EndChar

StartChar: parenleft
Encoding: 11 40 11
Width: 321
VWidth: 488
Flags: W
LayerCount: 2
Fore
SplineSet
286.1328125 -153.80859375 m 0,0,1
 229.00390625 -125.9765625 229.00390625 -125.9765625 186.03515625 -80.078125 c 0,2,3
 143.06640625 -34.1796875 143.06640625 -34.1796875 114.2578125 25.390625 c 0,4,5
 85.44921875 84.9609375 85.44921875 84.9609375 71.044921875 155.76171875 c 0,6,7
 56.640625 226.5625 56.640625 226.5625 56.640625 304.19921875 c 0,8,9
 56.640625 384.27734375 56.640625 384.27734375 72.998046875 458.251953125 c 0,10,11
 89.35546875 532.2265625 89.35546875 532.2265625 119.384765625 594.482421875 c 0,12,13
 149.4140625 656.73828125 149.4140625 656.73828125 191.650390625 704.833984375 c 0,14,15
 233.88671875 752.9296875 233.88671875 752.9296875 286.1328125 781.25 c 0,16,-1
 305.17578125 754.39453125 l 0,17,18
 274.4140625 727.05078125 274.4140625 727.05078125 246.826171875 684.814453125 c 0,19,20
 219.23828125 642.578125 219.23828125 642.578125 198.73046875 587.158203125 c 0,21,22
 178.22265625 531.73828125 178.22265625 531.73828125 166.259765625 463.8671875 c 0,23,24
 154.296875 395.99609375 154.296875 395.99609375 154.296875 317.87109375 c 0,25,26
 154.296875 246.58203125 154.296875 246.58203125 164.306640625 180.17578125 c 0,27,28
 174.31640625 113.76953125 174.31640625 113.76953125 193.359375 55.908203125 c 0,29,30
 212.40234375 -1.953125 212.40234375 -1.953125 240.478515625 -48.583984375 c 0,31,32
 268.5546875 -95.21484375 268.5546875 -95.21484375 305.17578125 -126.953125 c 0,33,-1
 286.1328125 -153.80859375 l 0,0,1
EndSplineSet
EndChar

StartChar: parenright
Encoding: 12 41 12
Width: 321
VWidth: 488
Flags: W
LayerCount: 2
Fore
SplineSet
266.11328125 323.73046875 m 0,0,1
 266.11328125 243.65234375 266.11328125 243.65234375 249.755859375 169.677734375 c 0,2,3
 233.3984375 95.703125 233.3984375 95.703125 203.369140625 33.203125 c 0,4,5
 173.33984375 -29.296875 173.33984375 -29.296875 130.859375 -77.392578125 c 0,6,7
 88.37890625 -125.48828125 88.37890625 -125.48828125 36.62109375 -153.80859375 c 0,8,-1
 17.578125 -126.953125 l 0,9,10
 48.33984375 -99.609375 48.33984375 -99.609375 75.68359375 -57.12890625 c 0,11,12
 103.02734375 -14.6484375 103.02734375 -14.6484375 123.779296875 40.771484375 c 0,13,14
 144.53125 96.19140625 144.53125 96.19140625 156.494140625 163.818359375 c 0,15,16
 168.45703125 231.4453125 168.45703125 231.4453125 168.45703125 310.05859375 c 0,17,18
 168.45703125 380.859375 168.45703125 380.859375 158.69140625 447.509765625 c 0,19,20
 148.92578125 514.16015625 148.92578125 514.16015625 129.638671875 571.77734375 c 0,21,22
 110.3515625 629.39453125 110.3515625 629.39453125 82.275390625 676.26953125 c 0,23,24
 54.19921875 723.14453125 54.19921875 723.14453125 17.578125 754.39453125 c 0,25,-1
 36.62109375 781.25 l 0,26,27
 93.75 753.90625 93.75 753.90625 136.71875 708.0078125 c 0,28,29
 179.6875 662.109375 179.6875 662.109375 208.49609375 602.5390625 c 0,30,31
 237.3046875 542.96875 237.3046875 542.96875 251.708984375 472.16796875 c 0,32,33
 266.11328125 401.3671875 266.11328125 401.3671875 266.11328125 323.73046875 c 0,0,1
EndSplineSet
EndChar

StartChar: asterisk
Encoding: 13 42 13
Width: 445
VWidth: 488
Flags: W
LayerCount: 2
Fore
SplineSet
240.72265625 585.44921875 m 0,0,-1
 360.83984375 679.19921875 l 0,1,2
 365.72265625 675.78125 365.72265625 675.78125 373.291015625 670.8984375 c 0,3,4
 380.859375 666.015625 380.859375 666.015625 388.427734375 660.400390625 c 0,5,6
 395.99609375 654.78515625 395.99609375 654.78515625 402.83203125 649.4140625 c 0,7,8
 409.66796875 644.04296875 409.66796875 644.04296875 413.57421875 640.13671875 c 0,9,-1
 412.59765625 617.67578125 l 0,10,-1
 259.27734375 554.19921875 l 0,11,-1
 400.87890625 496.58203125 l 0,12,13
 400.390625 490.72265625 400.390625 490.72265625 399.90234375 481.93359375 c 0,14,15
 399.4140625 473.14453125 399.4140625 473.14453125 398.193359375 463.623046875 c 0,16,17
 396.97265625 454.1015625 396.97265625 454.1015625 395.751953125 445.556640625 c 0,18,19
 394.53125 437.01171875 394.53125 437.01171875 392.578125 431.640625 c 0,20,-1
 372.0703125 420.8984375 l 0,21,-1
 241.69921875 521.97265625 l 0,22,-1
 262.20703125 371.58203125 l 0,23,24
 256.8359375 368.65234375 256.8359375 368.65234375 249.0234375 364.501953125 c 0,25,26
 241.2109375 360.3515625 241.2109375 360.3515625 232.666015625 356.689453125 c 0,27,28
 224.12109375 353.02734375 224.12109375 353.02734375 216.064453125 350.09765625 c 0,29,30
 208.0078125 347.16796875 208.0078125 347.16796875 202.63671875 346.19140625 c 0,31,-1
 182.6171875 357.421875 l 0,32,-1
 205.078125 521.97265625 l 0,33,-1
 84.9609375 428.22265625 l 0,34,35
 79.58984375 431.640625 79.58984375 431.640625 72.021484375 436.767578125 c 0,36,37
 64.453125 441.89453125 64.453125 441.89453125 56.884765625 447.265625 c 0,38,39
 49.31640625 452.63671875 49.31640625 452.63671875 42.724609375 458.0078125 c 0,40,41
 36.1328125 463.37890625 36.1328125 463.37890625 32.71484375 467.28515625 c 0,42,-1
 33.203125 490.234375 l 0,43,-1
 187.01171875 553.22265625 l 0,44,-1
 44.921875 610.83984375 l 0,45,46
 45.41015625 616.69921875 45.41015625 616.69921875 45.8984375 625.732421875 c 0,47,48
 46.38671875 634.765625 46.38671875 634.765625 47.36328125 644.04296875 c 0,49,50
 48.33984375 653.3203125 48.33984375 653.3203125 49.8046875 661.865234375 c 0,51,52
 51.26953125 670.41015625 51.26953125 670.41015625 52.734375 675.29296875 c 0,53,-1
 72.75390625 686.03515625 l 0,54,-1
 204.1015625 584.9609375 l 0,55,-1
 183.10546875 736.328125 l 0,56,57
 188.4765625 739.2578125 188.4765625 739.2578125 196.533203125 743.1640625 c 0,58,59
 204.58984375 747.0703125 204.58984375 747.0703125 213.37890625 750.732421875 c 0,60,61
 222.16796875 754.39453125 222.16796875 754.39453125 230.46875 757.568359375 c 0,62,63
 238.76953125 760.7421875 238.76953125 760.7421875 244.140625 762.20703125 c 0,64,-1
 262.6953125 749.51171875 l 0,65,-1
 240.72265625 585.44921875 l 0,0,-1
EndSplineSet
EndChar

StartChar: plus
Encoding: 14 43 14
Width: 414
VWidth: 488
Flags: W
LayerCount: 2
Fore
SplineSet
237.79296875 113.28125 m 0,0,1
 228.02734375 108.3984375 228.02734375 108.3984375 214.35546875 104.00390625 c 0,2,3
 200.68359375 99.609375 200.68359375 99.609375 189.94140625 97.16796875 c 0,4,-1
 176.7578125 108.88671875 l 0,5,-1
 176.7578125 245.1171875 l 0,6,-1
 41.9921875 245.1171875 l 0,7,-1
 28.3203125 257.8125 l 0,8,9
 30.76171875 268.06640625 30.76171875 268.06640625 36.1328125 281.25 c 0,10,11
 41.50390625 294.43359375 41.50390625 294.43359375 45.8984375 304.19921875 c 0,12,-1
 176.7578125 304.19921875 l 0,13,-1
 176.7578125 437.01171875 l 0,14,15
 186.03515625 439.94140625 186.03515625 439.94140625 199.951171875 444.82421875 c 0,16,17
 213.8671875 449.70703125 213.8671875 449.70703125 224.609375 452.1484375 c 0,18,-1
 237.79296875 439.94140625 l 0,19,-1
 237.79296875 304.19921875 l 0,20,-1
 372.0703125 304.19921875 l 0,21,-1
 385.25390625 291.015625 l 0,22,23
 383.7890625 286.1328125 383.7890625 286.1328125 381.591796875 279.78515625 c 0,24,25
 379.39453125 273.4375 379.39453125 273.4375 376.953125 267.08984375 c 0,26,27
 374.51171875 260.7421875 374.51171875 260.7421875 372.0703125 254.8828125 c 0,28,29
 369.62890625 249.0234375 369.62890625 249.0234375 367.67578125 245.1171875 c 0,30,-1
 237.79296875 245.1171875 l 0,31,-1
 237.79296875 113.28125 l 0,0,1
EndSplineSet
EndChar

StartChar: comma
Encoding: 15 44 15
Width: 242
VWidth: 488
Flags: W
LayerCount: 2
Fore
SplineSet
205.078125 34.1796875 m 0,0,1
 205.078125 12.6953125 205.078125 12.6953125 196.2890625 -13.427734375 c 0,2,3
 187.5 -39.55078125 187.5 -39.55078125 171.630859375 -65.91796875 c 0,4,5
 155.76171875 -92.28515625 155.76171875 -92.28515625 133.7890625 -117.1875 c 0,6,7
 111.81640625 -142.08984375 111.81640625 -142.08984375 84.9609375 -161.1328125 c 0,8,-1
 59.08203125 -141.6015625 l 0,9,10
 72.75390625 -125.9765625 72.75390625 -125.9765625 82.763671875 -110.595703125 c 0,11,12
 92.7734375 -95.21484375 92.7734375 -95.21484375 99.365234375 -79.1015625 c 0,13,14
 105.95703125 -62.98828125 105.95703125 -62.98828125 109.375 -45.166015625 c 0,15,16
 112.79296875 -27.34375 112.79296875 -27.34375 112.79296875 -6.34765625 c 0,17,18
 112.79296875 15.625 112.79296875 15.625 97.412109375 30.029296875 c 0,19,20
 82.03125 44.43359375 82.03125 44.43359375 50.78125 42.48046875 c 0,21,-1
 42.96875 70.3125 l 0,22,23
 47.36328125 76.171875 47.36328125 76.171875 62.744140625 84.228515625 c 0,24,25
 78.125 92.28515625 78.125 92.28515625 97.16796875 99.609375 c 0,26,27
 116.2109375 106.93359375 116.2109375 106.93359375 134.765625 112.060546875 c 0,28,29
 153.3203125 117.1875 153.3203125 117.1875 163.0859375 116.69921875 c 0,30,31
 186.5234375 105.46875 186.5234375 105.46875 195.80078125 85.44921875 c 0,32,33
 205.078125 65.4296875 205.078125 65.4296875 205.078125 34.1796875 c 0,0,1
EndSplineSet
EndChar

StartChar: hyphen
Encoding: 16 45 16
Width: 343
Flags: W
LayerCount: 2
Fore
SplineSet
43 203 m 1,0,-1
 43 277 l 1,1,-1
 274 277 l 1,2,-1
 274 203 l 1,3,-1
 43 203 l 1,0,-1
EndSplineSet
Refer: 356 727 N 1 0 0 1 0 0 2
EndChar

StartChar: period
Encoding: 17 46 17
Width: 242
VWidth: 488
Flags: W
LayerCount: 2
Fore
SplineSet
194.82421875 61.5234375 m 0,0,1
 194.82421875 43.9453125 194.82421875 43.9453125 188.96484375 29.052734375 c 0,2,3
 183.10546875 14.16015625 183.10546875 14.16015625 173.095703125 3.41796875 c 0,4,5
 163.0859375 -7.32421875 163.0859375 -7.32421875 149.4140625 -13.427734375 c 0,6,7
 135.7421875 -19.53125 135.7421875 -19.53125 120.1171875 -19.53125 c 0,8,9
 93.26171875 -19.53125 93.26171875 -19.53125 78.61328125 -4.8828125 c 0,10,11
 63.96484375 9.765625 63.96484375 9.765625 63.96484375 39.0625 c 0,12,13
 63.96484375 56.640625 63.96484375 56.640625 70.068359375 71.2890625 c 0,14,15
 76.171875 85.9375 76.171875 85.9375 86.42578125 96.923828125 c 0,16,17
 96.6796875 107.91015625 96.6796875 107.91015625 110.3515625 114.013671875 c 0,18,19
 124.0234375 120.1171875 124.0234375 120.1171875 139.16015625 120.1171875 c 0,20,21
 164.55078125 120.1171875 164.55078125 120.1171875 179.6875 105.46875 c 0,22,23
 194.82421875 90.8203125 194.82421875 90.8203125 194.82421875 61.5234375 c 0,0,1
EndSplineSet
EndChar

StartChar: slash
Encoding: 18 47 18
Width: 471
VWidth: 488
Flags: W
LayerCount: 2
Fore
SplineSet
107.91015625 -137.6953125 m 0,0,1
 103.02734375 -141.11328125 103.02734375 -141.11328125 94.23828125 -144.775390625 c 0,2,3
 85.44921875 -148.4375 85.44921875 -148.4375 75.68359375 -152.099609375 c 0,4,5
 65.91796875 -155.76171875 65.91796875 -155.76171875 56.396484375 -158.69140625 c 0,6,7
 46.875 -161.62109375 46.875 -161.62109375 41.015625 -163.57421875 c 0,8,-1
 21.484375 -150.390625 l 0,9,-1
 363.76953125 756.34765625 l 0,10,11
 370.1171875 760.7421875 370.1171875 760.7421875 378.662109375 764.404296875 c 0,12,13
 387.20703125 768.06640625 387.20703125 768.06640625 396.240234375 771.240234375 c 0,14,15
 405.2734375 774.4140625 405.2734375 774.4140625 414.0625 776.85546875 c 0,16,17
 422.8515625 779.296875 422.8515625 779.296875 429.6875 781.25 c 0,18,-1
 448.73046875 769.53125 l 0,19,-1
 107.91015625 -137.6953125 l 0,0,1
EndSplineSet
EndChar

StartChar: zero
Encoding: 19 48 19
Width: 481
VWidth: 488
Flags: W
LayerCount: 2
Fore
SplineSet
446.77734375 293.9453125 m 0,0,1
 446.77734375 230.95703125 446.77734375 230.95703125 431.15234375 174.8046875 c 0,2,3
 415.52734375 118.65234375 415.52734375 118.65234375 387.451171875 76.66015625 c 0,4,5
 359.375 34.66796875 359.375 34.66796875 319.82421875 10.009765625 c 0,6,7
 280.2734375 -14.6484375 280.2734375 -14.6484375 232.421875 -14.6484375 c 0,8,9
 184.5703125 -14.6484375 184.5703125 -14.6484375 147.705078125 10.009765625 c 0,10,11
 110.83984375 34.66796875 110.83984375 34.66796875 85.693359375 76.66015625 c 0,12,13
 60.546875 118.65234375 60.546875 118.65234375 47.607421875 174.8046875 c 0,14,15
 34.66796875 230.95703125 34.66796875 230.95703125 34.66796875 293.9453125 c 0,16,17
 34.66796875 356.93359375 34.66796875 356.93359375 50.048828125 413.0859375 c 0,18,19
 65.4296875 469.23828125 65.4296875 469.23828125 93.505859375 511.474609375 c 0,20,21
 121.58203125 553.7109375 121.58203125 553.7109375 161.1328125 578.369140625 c 0,22,23
 200.68359375 603.02734375 200.68359375 603.02734375 249.0234375 603.02734375 c 0,24,25
 297.36328125 603.02734375 297.36328125 603.02734375 334.228515625 578.61328125 c 0,26,27
 371.09375 554.19921875 371.09375 554.19921875 396.240234375 512.20703125 c 0,28,29
 421.38671875 470.21484375 421.38671875 470.21484375 434.08203125 413.818359375 c 0,30,31
 446.77734375 357.421875 446.77734375 357.421875 446.77734375 293.9453125 c 0,0,1
351.07421875 275.87890625 m 0,32,33
 351.07421875 342.7734375 351.07421875 342.7734375 341.552734375 393.06640625 c 0,34,35
 332.03125 443.359375 332.03125 443.359375 315.673828125 477.05078125 c 0,36,37
 299.31640625 510.7421875 299.31640625 510.7421875 277.83203125 527.587890625 c 0,38,39
 256.34765625 544.43359375 256.34765625 544.43359375 232.421875 544.43359375 c 0,40,41
 208.0078125 544.43359375 208.0078125 544.43359375 189.208984375 531.494140625 c 0,42,43
 170.41015625 518.5546875 170.41015625 518.5546875 157.470703125 490.72265625 c 0,44,45
 144.53125 462.890625 144.53125 462.890625 137.6953125 419.43359375 c 0,46,47
 130.859375 375.9765625 130.859375 375.9765625 130.859375 314.94140625 c 0,48,49
 130.859375 248.046875 130.859375 248.046875 139.404296875 197.265625 c 0,50,51
 147.94921875 146.484375 147.94921875 146.484375 163.57421875 112.3046875 c 0,52,53
 179.19921875 78.125 179.19921875 78.125 200.927734375 61.03515625 c 0,54,55
 222.65625 43.9453125 222.65625 43.9453125 249.0234375 43.9453125 c 0,56,57
 273.4375 43.9453125 273.4375 43.9453125 292.48046875 56.884765625 c 0,58,59
 311.5234375 69.82421875 311.5234375 69.82421875 324.462890625 97.900390625 c 0,60,61
 337.40234375 125.9765625 337.40234375 125.9765625 344.23828125 169.921875 c 0,62,63
 351.07421875 213.8671875 351.07421875 213.8671875 351.07421875 275.87890625 c 0,32,33
EndSplineSet
EndChar

StartChar: one
Encoding: 20 49 20
Width: 481
VWidth: 488
Flags: W
LayerCount: 2
Fore
SplineSet
80.56640625 0 m 0,0,-1
 80.56640625 30.76171875 l 0,1,2
 118.65234375 35.15625 118.65234375 35.15625 144.04296875 40.771484375 c 0,3,4
 169.43359375 46.38671875 169.43359375 46.38671875 184.5703125 52.24609375 c 0,5,6
 199.70703125 58.10546875 199.70703125 58.10546875 206.0546875 63.720703125 c 0,7,8
 212.40234375 69.3359375 212.40234375 69.3359375 212.40234375 74.70703125 c 0,9,-1
 212.40234375 454.1015625 l 0,10,11
 212.40234375 473.6328125 212.40234375 473.6328125 210.9375 484.375 c 0,12,13
 209.47265625 495.1171875 209.47265625 495.1171875 203.61328125 501.953125 c 0,14,15
 200.68359375 504.8828125 200.68359375 504.8828125 192.626953125 506.8359375 c 0,16,17
 184.5703125 508.7890625 184.5703125 508.7890625 169.677734375 508.30078125 c 0,18,19
 154.78515625 507.8125 154.78515625 507.8125 132.080078125 504.8828125 c 0,20,21
 109.375 501.953125 109.375 501.953125 77.1484375 495.1171875 c 0,22,-1
 65.4296875 524.90234375 l 0,23,24
 85.9375 530.2734375 85.9375 530.2734375 115.966796875 540.52734375 c 0,25,26
 145.99609375 550.78125 145.99609375 550.78125 177.24609375 562.98828125 c 0,27,28
 208.49609375 575.1953125 208.49609375 575.1953125 236.572265625 587.158203125 c 0,29,30
 264.6484375 599.12109375 264.6484375 599.12109375 281.25 607.91015625 c 0,31,-1
 300.29296875 589.84375 l 0,32,-1
 300.29296875 74.70703125 l 0,33,34
 300.29296875 69.82421875 300.29296875 69.82421875 305.6640625 64.208984375 c 0,35,36
 311.03515625 58.59375 311.03515625 58.59375 324.70703125 52.734375 c 0,37,38
 338.37890625 46.875 338.37890625 46.875 362.060546875 41.015625 c 0,39,40
 385.7421875 35.15625 385.7421875 35.15625 422.36328125 30.76171875 c 0,41,-1
 422.36328125 0 l 0,42,-1
 80.56640625 0 l 0,0,-1
EndSplineSet
EndChar

StartChar: two
Encoding: 21 50 21
Width: 481
VWidth: 488
Flags: W
LayerCount: 2
Fore
SplineSet
415.52734375 0 m 0,0,-1
 59.5703125 0 l 0,1,-1
 45.41015625 36.1328125 l 0,2,3
 103.02734375 103.02734375 103.02734375 103.02734375 146.240234375 155.029296875 c 0,4,5
 189.453125 207.03125 189.453125 207.03125 220.458984375 247.0703125 c 0,6,7
 251.46484375 287.109375 251.46484375 287.109375 271.728515625 317.138671875 c 0,8,9
 291.9921875 347.16796875 291.9921875 347.16796875 303.955078125 370.849609375 c 0,10,11
 315.91796875 394.53125 315.91796875 394.53125 320.556640625 413.818359375 c 0,12,13
 325.1953125 433.10546875 325.1953125 433.10546875 325.1953125 451.171875 c 0,14,15
 325.1953125 473.14453125 325.1953125 473.14453125 320.068359375 492.1875 c 0,16,17
 314.94140625 511.23046875 314.94140625 511.23046875 303.955078125 525.390625 c 0,18,19
 292.96875 539.55078125 292.96875 539.55078125 275.87890625 547.607421875 c 0,20,21
 258.7890625 555.6640625 258.7890625 555.6640625 234.375 555.6640625 c 0,22,23
 214.35546875 555.6640625 214.35546875 555.6640625 198.2421875 546.38671875 c 0,24,25
 182.12890625 537.109375 182.12890625 537.109375 171.142578125 522.216796875 c 0,26,27
 160.15625 507.32421875 160.15625 507.32421875 154.78515625 489.2578125 c 0,28,29
 149.4140625 471.19140625 149.4140625 471.19140625 150.390625 453.61328125 c 0,30,31
 133.7890625 444.3359375 133.7890625 444.3359375 114.74609375 437.01171875 c 0,32,33
 95.703125 429.6875 95.703125 429.6875 73.2421875 427.24609375 c 0,34,-1
 58.59375 448.2421875 l 0,35,36
 58.59375 473.6328125 58.59375 473.6328125 76.171875 500.9765625 c 0,37,38
 93.75 528.3203125 93.75 528.3203125 122.802734375 551.025390625 c 0,39,40
 151.85546875 573.73046875 151.85546875 573.73046875 189.453125 588.37890625 c 0,41,42
 227.05078125 603.02734375 227.05078125 603.02734375 267.578125 603.02734375 c 0,43,44
 299.8046875 603.02734375 299.8046875 603.02734375 327.1484375 594.970703125 c 0,45,46
 354.4921875 586.9140625 354.4921875 586.9140625 374.267578125 570.3125 c 0,47,48
 394.04296875 553.7109375 394.04296875 553.7109375 405.2734375 528.80859375 c 0,49,50
 416.50390625 503.90625 416.50390625 503.90625 416.50390625 469.7265625 c 0,51,52
 416.50390625 447.75390625 416.50390625 447.75390625 410.400390625 425.78125 c 0,53,54
 404.296875 403.80859375 404.296875 403.80859375 390.625 378.662109375 c 0,55,56
 376.953125 353.515625 376.953125 353.515625 355.712890625 323.73046875 c 0,57,58
 334.47265625 293.9453125 334.47265625 293.9453125 303.955078125 256.591796875 c 0,59,60
 273.4375 219.23828125 273.4375 219.23828125 233.3984375 172.607421875 c 0,61,62
 193.359375 125.9765625 193.359375 125.9765625 142.578125 67.87109375 c 0,63,-1
 343.75 67.87109375 l 0,64,65
 352.05078125 67.87109375 352.05078125 67.87109375 358.642578125 71.77734375 c 0,66,67
 365.234375 75.68359375 365.234375 75.68359375 370.361328125 82.03125 c 0,68,69
 375.48828125 88.37890625 375.48828125 88.37890625 379.150390625 96.435546875 c 0,70,71
 382.8125 104.4921875 382.8125 104.4921875 385.25390625 112.79296875 c 0,72,73
 391.11328125 132.32421875 391.11328125 132.32421875 393.5546875 158.203125 c 0,74,-1
 422.8515625 151.3671875 l 0,75,-1
 415.52734375 0 l 0,0,-1
EndSplineSet
EndChar

StartChar: three
Encoding: 22 51 22
Width: 481
VWidth: 488
Flags: W
LayerCount: 2
Fore
SplineSet
417.48046875 186.03515625 m 0,0,1
 417.48046875 145.01953125 417.48046875 145.01953125 403.3203125 108.3984375 c 0,2,3
 389.16015625 71.77734375 389.16015625 71.77734375 362.3046875 44.43359375 c 0,4,5
 335.44921875 17.08984375 335.44921875 17.08984375 296.38671875 1.220703125 c 0,6,7
 257.32421875 -14.6484375 257.32421875 -14.6484375 207.03125 -14.6484375 c 0,8,9
 187.98828125 -14.6484375 187.98828125 -14.6484375 166.748046875 -10.7421875 c 0,10,11
 145.5078125 -6.8359375 145.5078125 -6.8359375 123.53515625 1.953125 c 0,12,13
 101.5625 10.7421875 101.5625 10.7421875 79.1015625 25.146484375 c 0,14,15
 56.640625 39.55078125 56.640625 39.55078125 34.66796875 60.546875 c 0,16,-1
 52.24609375 98.14453125 l 0,17,18
 74.21875 81.54296875 74.21875 81.54296875 93.017578125 70.556640625 c 0,19,20
 111.81640625 59.5703125 111.81640625 59.5703125 129.150390625 52.978515625 c 0,21,22
 146.484375 46.38671875 146.484375 46.38671875 163.0859375 43.45703125 c 0,23,24
 179.6875 40.52734375 179.6875 40.52734375 198.2421875 40.52734375 c 0,25,26
 225.5859375 40.52734375 225.5859375 40.52734375 248.779296875 49.31640625 c 0,27,28
 271.97265625 58.10546875 271.97265625 58.10546875 288.57421875 74.951171875 c 0,29,30
 305.17578125 91.796875 305.17578125 91.796875 314.453125 115.966796875 c 0,31,32
 323.73046875 140.13671875 323.73046875 140.13671875 323.73046875 171.38671875 c 0,33,34
 323.73046875 207.03125 323.73046875 207.03125 312.5 231.689453125 c 0,35,36
 301.26953125 256.34765625 301.26953125 256.34765625 284.1796875 271.728515625 c 0,37,38
 267.08984375 287.109375 267.08984375 287.109375 245.849609375 293.9453125 c 0,39,40
 224.609375 300.78125 224.609375 300.78125 205.078125 300.78125 c 0,41,-1
 194.3359375 300.78125 l 0,42,43
 190.91796875 300.78125 190.91796875 300.78125 187.98828125 300.29296875 c 0,44,45
 185.05859375 299.8046875 185.05859375 299.8046875 180.908203125 299.31640625 c 0,46,47
 176.7578125 298.828125 176.7578125 298.828125 169.43359375 297.36328125 c 0,48,-1
 162.109375 331.54296875 l 0,49,50
 206.0546875 343.26171875 206.0546875 343.26171875 232.421875 359.130859375 c 0,51,52
 258.7890625 375 258.7890625 375 272.94921875 392.08984375 c 0,53,54
 287.109375 409.1796875 287.109375 409.1796875 291.50390625 426.513671875 c 0,55,56
 295.8984375 443.84765625 295.8984375 443.84765625 295.8984375 458.984375 c 0,57,58
 295.8984375 475.5859375 295.8984375 475.5859375 291.259765625 492.919921875 c 0,59,60
 286.62109375 510.25390625 286.62109375 510.25390625 276.611328125 524.169921875 c 0,61,62
 266.6015625 538.0859375 266.6015625 538.0859375 251.220703125 546.875 c 0,63,64
 235.83984375 555.6640625 235.83984375 555.6640625 214.35546875 555.6640625 c 0,65,66
 196.77734375 555.6640625 196.77734375 555.6640625 182.861328125 548.828125 c 0,67,68
 168.9453125 541.9921875 168.9453125 541.9921875 159.66796875 530.76171875 c 0,69,70
 150.390625 519.53125 150.390625 519.53125 146.728515625 504.39453125 c 0,71,72
 143.06640625 489.2578125 143.06640625 489.2578125 146.484375 472.65625 c 0,73,74
 128.90625 462.890625 128.90625 462.890625 108.642578125 456.787109375 c 0,75,76
 88.37890625 450.68359375 88.37890625 450.68359375 65.4296875 448.73046875 c 0,77,-1
 50.78125 468.75 l 0,78,79
 50.78125 489.2578125 50.78125 489.2578125 65.673828125 512.6953125 c 0,80,81
 80.56640625 536.1328125 80.56640625 536.1328125 106.689453125 556.396484375 c 0,82,83
 132.8125 576.66015625 132.8125 576.66015625 167.724609375 589.84375 c 0,84,85
 202.63671875 603.02734375 202.63671875 603.02734375 242.1875 603.02734375 c 0,86,87
 281.25 603.02734375 281.25 603.02734375 309.326171875 591.30859375 c 0,88,89
 337.40234375 579.58984375 337.40234375 579.58984375 355.224609375 560.302734375 c 0,90,91
 373.046875 541.015625 373.046875 541.015625 381.34765625 516.845703125 c 0,92,93
 389.6484375 492.67578125 389.6484375 492.67578125 389.6484375 467.7734375 c 0,94,95
 389.6484375 449.21875 389.6484375 449.21875 382.32421875 430.908203125 c 0,96,97
 375 412.59765625 375 412.59765625 361.328125 395.751953125 c 0,98,99
 347.65625 378.90625 347.65625 378.90625 328.61328125 364.74609375 c 0,100,101
 309.5703125 350.5859375 309.5703125 350.5859375 285.64453125 340.8203125 c 0,102,103
 313.96484375 337.40234375 313.96484375 337.40234375 338.134765625 323.974609375 c 0,104,105
 362.3046875 310.546875 362.3046875 310.546875 379.8828125 289.794921875 c 0,106,107
 397.4609375 269.04296875 397.4609375 269.04296875 407.470703125 242.431640625 c 0,108,109
 417.48046875 215.8203125 417.48046875 215.8203125 417.48046875 186.03515625 c 0,0,1
EndSplineSet
EndChar

StartChar: four
Encoding: 23 52 23
Width: 481
VWidth: 488
Flags: W
LayerCount: 2
Fore
SplineSet
440.4296875 212.40234375 m 0,0,1
 430.17578125 196.77734375 430.17578125 196.77734375 419.677734375 186.767578125 c 0,2,3
 409.1796875 176.7578125 409.1796875 176.7578125 397.94921875 168.45703125 c 0,4,-1
 366.2109375 168.45703125 l 0,5,-1
 366.2109375 55.6640625 l 0,6,7
 366.2109375 51.7578125 366.2109375 51.7578125 369.140625 48.583984375 c 0,8,9
 372.0703125 45.41015625 372.0703125 45.41015625 379.8828125 41.748046875 c 0,10,11
 387.6953125 38.0859375 387.6953125 38.0859375 400.87890625 34.1796875 c 0,12,13
 414.0625 30.2734375 414.0625 30.2734375 434.08203125 25.87890625 c 0,14,-1
 434.08203125 0 l 0,15,-1
 180.6640625 0 l 0,16,-1
 180.6640625 25.87890625 l 0,17,18
 212.40234375 31.25 212.40234375 31.25 232.421875 35.888671875 c 0,19,20
 252.44140625 40.52734375 252.44140625 40.52734375 263.671875 44.677734375 c 0,21,22
 274.90234375 48.828125 274.90234375 48.828125 279.052734375 52.734375 c 0,23,24
 283.203125 56.640625 283.203125 56.640625 283.203125 61.03515625 c 0,25,-1
 283.203125 168.45703125 l 0,26,-1
 44.43359375 168.45703125 l 0,27,-1
 26.85546875 186.03515625 l 0,28,-1
 266.6015625 572.265625 l 0,29,30
 288.0859375 580.56640625 288.0859375 580.56640625 309.08203125 590.33203125 c 0,31,32
 330.078125 600.09765625 330.078125 600.09765625 347.16796875 607.91015625 c 0,33,-1
 366.2109375 589.84375 l 0,34,-1
 366.2109375 227.05078125 l 0,35,-1
 427.734375 227.05078125 l 0,36,-1
 440.4296875 212.40234375 l 0,0,1
283.203125 498.046875 m 0,37,-1
 110.3515625 227.05078125 l 0,38,-1
 283.203125 227.05078125 l 0,39,-1
 283.203125 498.046875 l 0,37,-1
EndSplineSet
EndChar

StartChar: five
Encoding: 24 53 24
Width: 481
VWidth: 488
Flags: W
LayerCount: 2
Fore
SplineSet
421.875 200.1953125 m 0,0,1
 421.875 157.71484375 421.875 157.71484375 408.935546875 118.896484375 c 0,2,3
 395.99609375 80.078125 395.99609375 80.078125 370.361328125 50.29296875 c 0,4,5
 344.7265625 20.5078125 344.7265625 20.5078125 307.12890625 2.9296875 c 0,6,7
 269.53125 -14.6484375 269.53125 -14.6484375 219.7265625 -14.6484375 c 0,8,9
 174.31640625 -14.6484375 174.31640625 -14.6484375 127.44140625 2.9296875 c 0,10,11
 80.56640625 20.5078125 80.56640625 20.5078125 38.0859375 60.05859375 c 0,12,-1
 57.6171875 96.19140625 l 0,13,14
 83.49609375 78.125 83.49609375 78.125 105.224609375 66.89453125 c 0,15,16
 126.953125 55.6640625 126.953125 55.6640625 145.263671875 49.560546875 c 0,17,18
 163.57421875 43.45703125 163.57421875 43.45703125 179.19921875 41.259765625 c 0,19,20
 194.82421875 39.0625 194.82421875 39.0625 208.984375 39.0625 c 0,21,22
 238.28125 39.0625 238.28125 39.0625 260.986328125 50.537109375 c 0,23,24
 283.69140625 62.01171875 283.69140625 62.01171875 299.072265625 81.298828125 c 0,25,26
 314.453125 100.5859375 314.453125 100.5859375 322.265625 125.9765625 c 0,27,28
 330.078125 151.3671875 330.078125 151.3671875 330.078125 179.19921875 c 0,29,30
 330.078125 212.40234375 330.078125 212.40234375 321.77734375 239.2578125 c 0,31,32
 313.4765625 266.11328125 313.4765625 266.11328125 297.36328125 284.912109375 c 0,33,34
 281.25 303.7109375 281.25 303.7109375 257.32421875 313.720703125 c 0,35,36
 233.3984375 323.73046875 233.3984375 323.73046875 201.66015625 323.73046875 c 0,37,38
 174.8046875 323.73046875 174.8046875 323.73046875 145.263671875 313.232421875 c 0,39,40
 115.72265625 302.734375 115.72265625 302.734375 89.84375 283.203125 c 0,41,-1
 66.89453125 299.31640625 l 0,42,43
 69.82421875 316.89453125 69.82421875 316.89453125 73.73046875 340.576171875 c 0,44,45
 77.63671875 364.2578125 77.63671875 364.2578125 81.787109375 390.625 c 0,46,47
 85.9375 416.9921875 85.9375 416.9921875 90.087890625 444.580078125 c 0,48,49
 94.23828125 472.16796875 94.23828125 472.16796875 97.65625 498.53515625 c 0,50,51
 101.07421875 524.90234375 101.07421875 524.90234375 103.515625 548.095703125 c 0,52,53
 105.95703125 571.2890625 105.95703125 571.2890625 106.93359375 588.37890625 c 0,54,-1
 334.47265625 588.37890625 l 0,55,56
 348.6328125 588.37890625 348.6328125 588.37890625 359.375 589.599609375 c 0,57,58
 370.1171875 590.8203125 370.1171875 590.8203125 377.9296875 592.7734375 c 0,59,60
 386.71875 594.7265625 386.71875 594.7265625 393.5546875 597.16796875 c 0,61,-1
 409.1796875 582.03125 l 0,62,63
 403.80859375 574.21875 403.80859375 574.21875 396.240234375 564.453125 c 0,64,65
 388.671875 554.6875 388.671875 554.6875 380.37109375 545.654296875 c 0,66,67
 372.0703125 536.62109375 372.0703125 536.62109375 364.2578125 528.80859375 c 0,68,69
 356.4453125 520.99609375 356.4453125 520.99609375 350.5859375 516.6015625 c 0,70,-1
 154.296875 516.6015625 l 0,71,72
 153.3203125 502.44140625 153.3203125 502.44140625 151.123046875 481.4453125 c 0,73,74
 148.92578125 460.44921875 148.92578125 460.44921875 145.751953125 438.96484375 c 0,75,76
 142.578125 417.48046875 142.578125 417.48046875 139.404296875 398.193359375 c 0,77,78
 136.23046875 378.90625 136.23046875 378.90625 134.27734375 368.1640625 c 0,79,80
 154.78515625 375 154.78515625 375 181.15234375 379.150390625 c 0,81,82
 207.51953125 383.30078125 207.51953125 383.30078125 234.86328125 383.30078125 c 0,83,84
 280.76171875 383.30078125 280.76171875 383.30078125 315.673828125 368.1640625 c 0,85,86
 350.5859375 353.02734375 350.5859375 353.02734375 374.267578125 327.63671875 c 0,87,88
 397.94921875 302.24609375 397.94921875 302.24609375 409.912109375 269.04296875 c 0,89,90
 421.875 235.83984375 421.875 235.83984375 421.875 200.1953125 c 0,0,1
EndSplineSet
EndChar

StartChar: six
Encoding: 25 54 25
Width: 481
VWidth: 488
Flags: W
LayerCount: 2
Fore
SplineSet
444.82421875 201.171875 m 0,0,1
 444.82421875 178.22265625 444.82421875 178.22265625 439.453125 153.3203125 c 0,2,3
 434.08203125 128.41796875 434.08203125 128.41796875 423.33984375 104.4921875 c 0,4,5
 412.59765625 80.56640625 412.59765625 80.56640625 396.484375 59.08203125 c 0,6,7
 380.37109375 37.59765625 380.37109375 37.59765625 359.375 21.240234375 c 0,8,9
 338.37890625 4.8828125 338.37890625 4.8828125 312.01171875 -4.8828125 c 0,10,11
 285.64453125 -14.6484375 285.64453125 -14.6484375 254.39453125 -14.6484375 c 0,12,13
 212.40234375 -14.6484375 212.40234375 -14.6484375 175.29296875 3.173828125 c 0,14,15
 138.18359375 20.99609375 138.18359375 20.99609375 110.595703125 53.22265625 c 0,16,17
 83.0078125 85.44921875 83.0078125 85.44921875 67.138671875 130.615234375 c 0,18,19
 51.26953125 175.78125 51.26953125 175.78125 51.26953125 230.95703125 c 0,20,21
 51.26953125 299.8046875 51.26953125 299.8046875 72.265625 363.037109375 c 0,22,23
 93.26171875 426.26953125 93.26171875 426.26953125 135.986328125 477.05078125 c 0,24,25
 178.7109375 527.83203125 178.7109375 527.83203125 243.1640625 562.5 c 0,26,27
 307.6171875 597.16796875 307.6171875 597.16796875 394.53125 609.86328125 c 0,28,-1
 405.2734375 576.171875 l 0,29,30
 347.16796875 562.98828125 347.16796875 562.98828125 302.978515625 537.59765625 c 0,31,32
 258.7890625 512.20703125 258.7890625 512.20703125 227.5390625 478.759765625 c 0,33,34
 196.2890625 445.3125 196.2890625 445.3125 177.24609375 405.2734375 c 0,35,36
 158.203125 365.234375 158.203125 365.234375 150.87890625 322.75390625 c 0,37,38
 167.48046875 337.890625 167.48046875 337.890625 184.5703125 348.388671875 c 0,39,40
 201.66015625 358.88671875 201.66015625 358.88671875 217.7734375 365.478515625 c 0,41,42
 233.88671875 372.0703125 233.88671875 372.0703125 248.779296875 375.244140625 c 0,43,44
 263.671875 378.41796875 263.671875 378.41796875 275.390625 378.41796875 c 0,45,46
 315.4296875 378.41796875 315.4296875 378.41796875 346.923828125 365.72265625 c 0,47,48
 378.41796875 353.02734375 378.41796875 353.02734375 400.146484375 329.833984375 c 0,49,50
 421.875 306.640625 421.875 306.640625 433.349609375 273.92578125 c 0,51,52
 444.82421875 241.2109375 444.82421875 241.2109375 444.82421875 201.171875 c 0,0,1
251.46484375 319.82421875 m 0,53,54
 228.02734375 319.82421875 228.02734375 319.82421875 199.951171875 305.6640625 c 0,55,56
 171.875 291.50390625 171.875 291.50390625 145.5078125 261.71875 c 0,57,58
 145.5078125 204.1015625 145.5078125 204.1015625 154.541015625 162.353515625 c 0,59,60
 163.57421875 120.60546875 163.57421875 120.60546875 180.17578125 93.505859375 c 0,61,62
 196.77734375 66.40625 196.77734375 66.40625 219.970703125 53.466796875 c 0,63,64
 243.1640625 40.52734375 243.1640625 40.52734375 270.99609375 40.52734375 c 0,65,66
 295.41015625 40.52734375 295.41015625 40.52734375 311.767578125 52.24609375 c 0,67,68
 328.125 63.96484375 328.125 63.96484375 337.890625 82.763671875 c 0,69,70
 347.65625 101.5625 347.65625 101.5625 351.806640625 124.51171875 c 0,71,72
 355.95703125 147.4609375 355.95703125 147.4609375 355.95703125 169.921875 c 0,73,74
 355.95703125 215.8203125 355.95703125 215.8203125 346.19140625 244.873046875 c 0,75,76
 336.42578125 273.92578125 336.42578125 273.92578125 321.044921875 290.52734375 c 0,77,78
 305.6640625 307.12890625 305.6640625 307.12890625 287.109375 313.4765625 c 0,79,80
 268.5546875 319.82421875 268.5546875 319.82421875 251.46484375 319.82421875 c 0,53,54
EndSplineSet
EndChar

StartChar: seven
Encoding: 26 55 26
Width: 481
VWidth: 488
Flags: W
LayerCount: 2
Fore
SplineSet
444.3359375 569.82421875 m 0,0,1
 421.875 517.08984375 421.875 517.08984375 399.4140625 463.623046875 c 0,2,3
 376.953125 410.15625 376.953125 410.15625 355.46875 357.91015625 c 0,4,5
 333.984375 305.6640625 333.984375 305.6640625 314.453125 256.591796875 c 0,6,7
 294.921875 207.51953125 294.921875 207.51953125 278.3203125 164.306640625 c 0,8,9
 261.71875 121.09375 261.71875 121.09375 248.53515625 84.9609375 c 0,10,11
 235.3515625 48.828125 235.3515625 48.828125 227.05078125 22.94921875 c 0,12,13
 209.9609375 10.7421875 209.9609375 10.7421875 186.279296875 1.220703125 c 0,14,15
 162.59765625 -8.30078125 162.59765625 -8.30078125 138.18359375 -14.6484375 c 0,16,-1
 116.69921875 2.9296875 l 0,17,18
 159.1796875 77.63671875 159.1796875 77.63671875 192.626953125 143.798828125 c 0,19,20
 226.07421875 209.9609375 226.07421875 209.9609375 254.638671875 272.216796875 c 0,21,22
 283.203125 334.47265625 283.203125 334.47265625 309.08203125 394.287109375 c 0,23,24
 334.9609375 454.1015625 334.9609375 454.1015625 361.81640625 516.6015625 c 0,25,-1
 141.11328125 516.6015625 l 0,26,27
 133.7890625 516.6015625 133.7890625 516.6015625 126.708984375 515.869140625 c 0,28,29
 119.62890625 515.13671875 119.62890625 515.13671875 111.81640625 508.544921875 c 0,30,31
 104.00390625 501.953125 104.00390625 501.953125 94.970703125 486.81640625 c 0,32,33
 85.9375 471.6796875 85.9375 471.6796875 75.68359375 443.359375 c 0,34,-1
 49.8046875 453.125 l 0,35,36
 51.26953125 464.35546875 51.26953125 464.35546875 53.955078125 482.91015625 c 0,37,38
 56.640625 501.46484375 56.640625 501.46484375 59.5703125 521.240234375 c 0,39,40
 62.5 541.015625 62.5 541.015625 65.673828125 559.326171875 c 0,41,42
 68.84765625 577.63671875 68.84765625 577.63671875 71.77734375 588.37890625 c 0,43,-1
 428.22265625 588.37890625 l 0,44,-1
 444.3359375 569.82421875 l 0,0,1
EndSplineSet
EndChar

StartChar: eight
Encoding: 27 56 27
Width: 481
VWidth: 488
Flags: W
LayerCount: 2
Fore
SplineSet
437.98828125 171.875 m 0,0,1
 437.98828125 133.7890625 437.98828125 133.7890625 421.38671875 100.09765625 c 0,2,3
 404.78515625 66.40625 404.78515625 66.40625 376.220703125 40.771484375 c 0,4,5
 347.65625 15.13671875 347.65625 15.13671875 309.326171875 0.244140625 c 0,6,7
 270.99609375 -14.6484375 270.99609375 -14.6484375 227.5390625 -14.6484375 c 0,8,9
 183.10546875 -14.6484375 183.10546875 -14.6484375 148.681640625 -1.953125 c 0,10,11
 114.2578125 10.7421875 114.2578125 10.7421875 90.8203125 32.2265625 c 0,12,13
 67.3828125 53.7109375 67.3828125 53.7109375 55.419921875 81.298828125 c 0,14,15
 43.45703125 108.88671875 43.45703125 108.88671875 43.45703125 139.16015625 c 0,16,17
 43.45703125 165.52734375 43.45703125 165.52734375 52.978515625 189.697265625 c 0,18,19
 62.5 213.8671875 62.5 213.8671875 79.58984375 235.83984375 c 0,20,21
 96.6796875 257.8125 96.6796875 257.8125 120.849609375 277.099609375 c 0,22,23
 145.01953125 296.38671875 145.01953125 296.38671875 174.31640625 312.5 c 0,24,25
 152.83203125 322.75390625 152.83203125 322.75390625 133.7890625 334.47265625 c 0,26,27
 114.74609375 346.19140625 114.74609375 346.19140625 100.09765625 361.81640625 c 0,28,29
 85.44921875 377.44140625 85.44921875 377.44140625 76.904296875 398.193359375 c 0,30,31
 68.359375 418.9453125 68.359375 418.9453125 68.359375 446.77734375 c 0,32,33
 68.359375 480.46875 68.359375 480.46875 82.51953125 509.27734375 c 0,34,35
 96.6796875 538.0859375 96.6796875 538.0859375 121.09375 558.837890625 c 0,36,37
 145.5078125 579.58984375 145.5078125 579.58984375 178.7109375 591.30859375 c 0,38,39
 211.9140625 603.02734375 211.9140625 603.02734375 250 603.02734375 c 0,40,41
 290.0390625 603.02734375 290.0390625 603.02734375 320.556640625 593.26171875 c 0,42,43
 351.07421875 583.49609375 351.07421875 583.49609375 371.826171875 566.40625 c 0,44,45
 392.578125 549.31640625 392.578125 549.31640625 403.076171875 525.390625 c 0,46,47
 413.57421875 501.46484375 413.57421875 501.46484375 413.57421875 473.14453125 c 0,48,49
 413.57421875 453.125 413.57421875 453.125 405.76171875 435.05859375 c 0,50,51
 397.94921875 416.9921875 397.94921875 416.9921875 384.521484375 400.634765625 c 0,52,53
 371.09375 384.27734375 371.09375 384.27734375 352.5390625 368.65234375 c 0,54,55
 333.984375 353.02734375 333.984375 353.02734375 312.01171875 338.37890625 c 0,56,57
 336.42578125 326.66015625 336.42578125 326.66015625 359.130859375 312.01171875 c 0,58,59
 381.8359375 297.36328125 381.8359375 297.36328125 399.4140625 277.587890625 c 0,60,61
 416.9921875 257.8125 416.9921875 257.8125 427.490234375 231.93359375 c 0,62,63
 437.98828125 206.0546875 437.98828125 206.0546875 437.98828125 171.875 c 0,0,1
344.23828125 150.87890625 m 0,64,65
 344.23828125 182.12890625 344.23828125 182.12890625 333.49609375 204.345703125 c 0,66,67
 322.75390625 226.5625 322.75390625 226.5625 304.931640625 242.67578125 c 0,68,69
 287.109375 258.7890625 287.109375 258.7890625 264.16015625 270.751953125 c 0,70,71
 241.2109375 282.71484375 241.2109375 282.71484375 216.796875 293.45703125 c 0,72,73
 196.2890625 277.34375 196.2890625 277.34375 181.396484375 261.474609375 c 0,74,75
 166.50390625 245.60546875 166.50390625 245.60546875 156.73828125 228.759765625 c 0,76,77
 146.97265625 211.9140625 146.97265625 211.9140625 142.333984375 193.603515625 c 0,78,79
 137.6953125 175.29296875 137.6953125 175.29296875 137.6953125 153.80859375 c 0,80,81
 137.6953125 128.41796875 137.6953125 128.41796875 145.99609375 107.177734375 c 0,82,83
 154.296875 85.9375 154.296875 85.9375 168.9453125 70.556640625 c 0,84,85
 183.59375 55.17578125 183.59375 55.17578125 204.1015625 46.630859375 c 0,86,87
 224.609375 38.0859375 224.609375 38.0859375 249.0234375 38.0859375 c 0,88,89
 273.92578125 38.0859375 273.92578125 38.0859375 291.748046875 47.8515625 c 0,90,91
 309.5703125 57.6171875 309.5703125 57.6171875 321.2890625 73.2421875 c 0,92,93
 333.0078125 88.8671875 333.0078125 88.8671875 338.623046875 109.130859375 c 0,94,95
 344.23828125 129.39453125 344.23828125 129.39453125 344.23828125 150.87890625 c 0,64,65
147.94921875 463.8671875 m 0,96,97
 147.94921875 443.359375 147.94921875 443.359375 157.71484375 427.978515625 c 0,98,99
 167.48046875 412.59765625 167.48046875 412.59765625 184.08203125 400.634765625 c 0,100,101
 200.68359375 388.671875 200.68359375 388.671875 222.412109375 378.41796875 c 0,102,103
 244.140625 368.1640625 244.140625 368.1640625 267.578125 357.91015625 c 0,104,105
 298.33984375 382.8125 298.33984375 382.8125 311.5234375 407.958984375 c 0,106,107
 324.70703125 433.10546875 324.70703125 433.10546875 324.70703125 458.0078125 c 0,108,109
 324.70703125 483.3984375 324.70703125 483.3984375 317.3828125 501.46484375 c 0,110,111
 310.05859375 519.53125 310.05859375 519.53125 297.119140625 531.25 c 0,112,113
 284.1796875 542.96875 284.1796875 542.96875 266.357421875 548.33984375 c 0,114,115
 248.53515625 553.7109375 248.53515625 553.7109375 227.5390625 553.7109375 c 0,116,117
 207.51953125 553.7109375 207.51953125 553.7109375 192.626953125 545.8984375 c 0,118,119
 177.734375 538.0859375 177.734375 538.0859375 167.724609375 525.390625 c 0,120,121
 157.71484375 512.6953125 157.71484375 512.6953125 152.83203125 496.58203125 c 0,122,123
 147.94921875 480.46875 147.94921875 480.46875 147.94921875 463.8671875 c 0,96,97
EndSplineSet
EndChar

StartChar: nine
Encoding: 28 57 28
Width: 481
VWidth: 488
Flags: W
LayerCount: 2
Fore
SplineSet
439.453125 356.93359375 m 0,0,1
 439.453125 282.71484375 439.453125 282.71484375 418.45703125 218.994140625 c 0,2,3
 397.4609375 155.2734375 397.4609375 155.2734375 354.736328125 105.712890625 c 0,4,5
 312.01171875 56.15234375 312.01171875 56.15234375 247.314453125 23.4375 c 0,6,7
 182.6171875 -9.27734375 182.6171875 -9.27734375 95.21484375 -20.99609375 c 0,8,-1
 85.44921875 12.6953125 l 0,9,10
 151.3671875 29.296875 151.3671875 29.296875 198.2421875 54.6875 c 0,11,12
 245.1171875 80.078125 245.1171875 80.078125 275.634765625 113.525390625 c 0,13,14
 306.15234375 146.97265625 306.15234375 146.97265625 322.265625 187.5 c 0,15,16
 338.37890625 228.02734375 338.37890625 228.02734375 343.26171875 274.4140625 c 0,17,18
 316.89453125 246.58203125 316.89453125 246.58203125 283.203125 230.224609375 c 0,19,20
 249.51171875 213.8671875 249.51171875 213.8671875 215.33203125 213.8671875 c 0,21,22
 174.8046875 213.8671875 174.8046875 213.8671875 143.310546875 227.5390625 c 0,23,24
 111.81640625 241.2109375 111.81640625 241.2109375 90.33203125 264.6484375 c 0,25,26
 68.84765625 288.0859375 68.84765625 288.0859375 57.6171875 319.82421875 c 0,27,28
 46.38671875 351.5625 46.38671875 351.5625 46.38671875 388.18359375 c 0,29,30
 46.38671875 425.29296875 46.38671875 425.29296875 61.5234375 463.37890625 c 0,31,32
 76.66015625 501.46484375 76.66015625 501.46484375 104.00390625 532.470703125 c 0,33,34
 131.34765625 563.4765625 131.34765625 563.4765625 169.189453125 583.251953125 c 0,35,36
 207.03125 603.02734375 207.03125 603.02734375 251.953125 603.02734375 c 0,37,38
 289.55078125 603.02734375 289.55078125 603.02734375 323.73046875 588.8671875 c 0,39,40
 357.91015625 574.70703125 357.91015625 574.70703125 383.544921875 544.677734375 c 0,41,42
 409.1796875 514.6484375 409.1796875 514.6484375 424.31640625 468.26171875 c 0,43,44
 439.453125 421.875 439.453125 421.875 439.453125 356.93359375 c 0,0,1
239.74609375 273.4375 m 0,45,46
 271.484375 273.4375 271.484375 273.4375 298.33984375 290.771484375 c 0,47,48
 325.1953125 308.10546875 325.1953125 308.10546875 345.703125 334.9609375 c 0,49,50
 344.7265625 397.94921875 344.7265625 397.94921875 334.228515625 439.208984375 c 0,51,52
 323.73046875 480.46875 323.73046875 480.46875 307.6171875 504.638671875 c 0,53,54
 291.50390625 528.80859375 291.50390625 528.80859375 272.216796875 538.57421875 c 0,55,56
 252.9296875 548.33984375 252.9296875 548.33984375 234.375 548.33984375 c 0,57,58
 210.9375 548.33984375 210.9375 548.33984375 192.626953125 538.818359375 c 0,59,60
 174.31640625 529.296875 174.31640625 529.296875 161.62109375 511.962890625 c 0,61,62
 148.92578125 494.62890625 148.92578125 494.62890625 142.333984375 470.703125 c 0,63,64
 135.7421875 446.77734375 135.7421875 446.77734375 135.7421875 417.96875 c 0,65,66
 135.7421875 374.0234375 135.7421875 374.0234375 145.99609375 345.947265625 c 0,67,68
 156.25 317.87109375 156.25 317.87109375 171.630859375 301.7578125 c 0,69,70
 187.01171875 285.64453125 187.01171875 285.64453125 205.322265625 279.541015625 c 0,71,72
 223.6328125 273.4375 223.6328125 273.4375 239.74609375 273.4375 c 0,45,46
EndSplineSet
EndChar

StartChar: colon
Encoding: 29 58 29
Width: 242
VWidth: 488
Flags: W
LayerCount: 2
Fore
SplineSet
194.82421875 61.5234375 m 0,0,1
 194.82421875 43.9453125 194.82421875 43.9453125 188.96484375 29.052734375 c 0,2,3
 183.10546875 14.16015625 183.10546875 14.16015625 173.095703125 3.41796875 c 0,4,5
 163.0859375 -7.32421875 163.0859375 -7.32421875 149.4140625 -13.427734375 c 0,6,7
 135.7421875 -19.53125 135.7421875 -19.53125 120.1171875 -19.53125 c 0,8,9
 93.26171875 -19.53125 93.26171875 -19.53125 78.61328125 -4.8828125 c 0,10,11
 63.96484375 9.765625 63.96484375 9.765625 63.96484375 39.0625 c 0,12,13
 63.96484375 56.640625 63.96484375 56.640625 70.068359375 71.2890625 c 0,14,15
 76.171875 85.9375 76.171875 85.9375 86.42578125 96.923828125 c 0,16,17
 96.6796875 107.91015625 96.6796875 107.91015625 110.3515625 114.013671875 c 0,18,19
 124.0234375 120.1171875 124.0234375 120.1171875 139.16015625 120.1171875 c 0,20,21
 164.55078125 120.1171875 164.55078125 120.1171875 179.6875 105.46875 c 0,22,23
 194.82421875 90.8203125 194.82421875 90.8203125 194.82421875 61.5234375 c 0,0,1
194.82421875 410.15625 m 0,24,25
 194.82421875 392.578125 194.82421875 392.578125 188.96484375 377.685546875 c 0,26,27
 183.10546875 362.79296875 183.10546875 362.79296875 173.095703125 352.05078125 c 0,28,29
 163.0859375 341.30859375 163.0859375 341.30859375 149.4140625 335.205078125 c 0,30,31
 135.7421875 329.1015625 135.7421875 329.1015625 120.1171875 329.1015625 c 0,32,33
 93.26171875 329.1015625 93.26171875 329.1015625 78.61328125 343.75 c 0,34,35
 63.96484375 358.3984375 63.96484375 358.3984375 63.96484375 387.6953125 c 0,36,37
 63.96484375 405.2734375 63.96484375 405.2734375 70.068359375 419.921875 c 0,38,39
 76.171875 434.5703125 76.171875 434.5703125 86.42578125 445.556640625 c 0,40,41
 96.6796875 456.54296875 96.6796875 456.54296875 110.3515625 462.646484375 c 0,42,43
 124.0234375 468.75 124.0234375 468.75 139.16015625 468.75 c 0,44,45
 164.55078125 468.75 164.55078125 468.75 179.6875 454.1015625 c 0,46,47
 194.82421875 439.453125 194.82421875 439.453125 194.82421875 410.15625 c 0,24,25
EndSplineSet
EndChar

StartChar: semicolon
Encoding: 30 59 30
Width: 242
Flags: W
LayerCount: 2
Fore
SplineSet
206 9 m 0,0,1
 206 -28 206 -28 192 -59 c 128,-1,2
 178 -90 178 -90 154 -113.5 c 128,-1,3
 130 -137 130 -137 99 -151 c 128,-1,4
 68 -165 68 -165 34 -167 c 1,5,-1
 34 -131 l 1,6,7
 60 -126 60 -126 80.5 -116 c 128,-1,8
 101 -106 101 -106 114.5 -90 c 128,-1,9
 128 -74 128 -74 135 -50.5 c 128,-1,10
 142 -27 142 -27 142 7 c 1,11,-1
 80 7 l 1,12,13
 80 7 80 7 77.5 10.5 c 128,-1,14
 75 14 75 14 72 19.5 c 128,-1,15
 69 25 69 25 67 33 c 128,-1,16
 65 41 65 41 65 51 c 0,17,18
 65 64 65 64 69.5 76 c 128,-1,19
 74 88 74 88 82 97.5 c 128,-1,20
 90 107 90 107 101 112.5 c 128,-1,21
 112 118 112 118 125 118 c 0,22,23
 146 118 146 118 161.5 109.5 c 128,-1,24
 177 101 177 101 187 86.5 c 128,-1,25
 197 72 197 72 201.5 51.5 c 128,-1,26
 206 31 206 31 206 9 c 0,0,1
195 424 m 256,27,28
 195 411 195 411 190 399 c 128,-1,29
 185 387 185 387 176 378 c 128,-1,30
 167 369 167 369 155 364 c 128,-1,31
 143 359 143 359 130 359 c 0,32,33
 116 359 116 359 104.5 364 c 128,-1,34
 93 369 93 369 84 378 c 128,-1,35
 75 387 75 387 70 399 c 128,-1,36
 65 411 65 411 65 424 c 256,37,38
 65 437 65 437 70 449 c 128,-1,39
 75 461 75 461 84 470 c 128,-1,40
 93 479 93 479 105 484 c 128,-1,41
 117 489 117 489 131 489 c 0,42,43
 144 489 144 489 156 484 c 128,-1,44
 168 479 168 479 176.5 470 c 128,-1,45
 185 461 185 461 190 449 c 128,-1,46
 195 437 195 437 195 424 c 256,27,28
EndSplineSet
Refer: 17 46 N 1 0 0 1 0 348.633 2
Refer: 15 44 N 1 0 0 1 0 0 2
EndChar

StartChar: less
Encoding: 31 60 31
Width: 443
VWidth: 488
Flags: W
LayerCount: 2
Fore
SplineSet
415.52734375 159.1796875 m 0,0,1
 404.78515625 149.4140625 404.78515625 149.4140625 395.5078125 140.625 c 0,2,3
 386.23046875 131.8359375 386.23046875 131.8359375 371.09375 122.55859375 c 0,4,-1
 41.9921875 244.140625 l 0,5,-1
 28.3203125 258.30078125 l 0,6,-1
 29.78515625 264.6484375 l 0,7,-1
 32.2265625 272.4609375 l 0,8,9
 35.64453125 284.66796875 35.64453125 284.66796875 39.0625 295.41015625 c 0,10,11
 40.0390625 299.31640625 40.0390625 299.31640625 41.50390625 302.24609375 c 0,12,13
 42.96875 305.17578125 42.96875 305.17578125 43.9453125 308.10546875 c 0,14,-1
 44.921875 310.05859375 l 0,15,-1
 402.34375 442.3828125 l 0,16,-1
 415.52734375 429.19921875 l 0,17,18
 414.0625 423.828125 414.0625 423.828125 412.109375 416.748046875 c 0,19,20
 410.15625 409.66796875 410.15625 409.66796875 407.958984375 401.85546875 c 0,21,22
 405.76171875 394.04296875 405.76171875 394.04296875 403.80859375 386.962890625 c 0,23,24
 401.85546875 379.8828125 401.85546875 379.8828125 400.390625 375.48828125 c 0,25,-1
 133.30078125 277.34375 l 0,26,-1
 406.25 177.734375 l 0,27,-1
 415.52734375 159.1796875 l 0,0,1
EndSplineSet
EndChar

StartChar: equal
Encoding: 32 61 32
Width: 443
VWidth: 488
Flags: W
LayerCount: 2
Fore
SplineSet
415.52734375 363.28125 m 0,0,1
 414.0625 358.3984375 414.0625 358.3984375 411.865234375 352.05078125 c 0,2,3
 409.66796875 345.703125 409.66796875 345.703125 407.2265625 339.599609375 c 0,4,5
 404.78515625 333.49609375 404.78515625 333.49609375 402.587890625 327.63671875 c 0,6,7
 400.390625 321.77734375 400.390625 321.77734375 398.92578125 317.3828125 c 0,8,-1
 41.9921875 317.3828125 l 0,9,-1
 28.3203125 330.56640625 l 0,10,11
 30.76171875 340.8203125 30.76171875 340.8203125 36.1328125 354.00390625 c 0,12,13
 41.50390625 367.1875 41.50390625 367.1875 45.8984375 376.46484375 c 0,14,-1
 402.34375 376.46484375 l 0,15,-1
 415.52734375 363.28125 l 0,0,1
415.52734375 216.796875 m 0,16,17
 413.0859375 206.54296875 413.0859375 206.54296875 407.470703125 193.115234375 c 0,18,19
 401.85546875 179.6875 401.85546875 179.6875 398.92578125 170.8984375 c 0,20,-1
 41.9921875 170.8984375 l 0,21,-1
 28.3203125 185.05859375 l 0,22,23
 30.76171875 194.82421875 30.76171875 194.82421875 36.1328125 207.51953125 c 0,24,25
 41.50390625 220.21484375 41.50390625 220.21484375 45.8984375 229.98046875 c 0,26,-1
 402.34375 229.98046875 l 0,27,-1
 415.52734375 216.796875 l 0,16,17
EndSplineSet
EndChar

StartChar: greater
Encoding: 33 62 33
Width: 443
VWidth: 488
Flags: W
LayerCount: 2
Fore
SplineSet
415.52734375 306.640625 m 0,0,1
 414.0625 301.26953125 414.0625 301.26953125 412.353515625 294.677734375 c 0,2,3
 410.64453125 288.0859375 410.64453125 288.0859375 408.447265625 280.76171875 c 0,4,5
 406.25 273.4375 406.25 273.4375 403.80859375 266.6015625 c 0,6,7
 401.3671875 259.765625 401.3671875 259.765625 399.4140625 253.90625 c 0,8,-1
 41.9921875 122.55859375 l 0,9,-1
 28.3203125 136.23046875 l 0,10,11
 29.78515625 141.11328125 29.78515625 141.11328125 31.982421875 148.193359375 c 0,12,13
 34.1796875 155.2734375 34.1796875 155.2734375 36.376953125 162.841796875 c 0,14,15
 38.57421875 170.41015625 38.57421875 170.41015625 40.771484375 177.490234375 c 0,16,17
 42.96875 184.5703125 42.96875 184.5703125 44.43359375 188.96484375 c 0,18,-1
 309.5703125 286.62109375 l 0,19,-1
 38.0859375 386.71875 l 0,20,-1
 28.3203125 406.25 l 0,21,22
 39.55078125 415.52734375 39.55078125 415.52734375 51.26953125 425.048828125 c 0,23,24
 62.98828125 434.5703125 62.98828125 434.5703125 73.2421875 442.3828125 c 0,25,-1
 402.83203125 321.2890625 l 0,26,-1
 415.52734375 306.640625 l 0,0,1
EndSplineSet
EndChar

StartChar: question
Encoding: 34 63 34
Width: 440
VWidth: 488
Flags: W
LayerCount: 2
Fore
SplineSet
274.4140625 61.5234375 m 0,0,1
 274.4140625 43.9453125 274.4140625 43.9453125 268.5546875 29.052734375 c 0,2,3
 262.6953125 14.16015625 262.6953125 14.16015625 252.685546875 3.41796875 c 0,4,5
 242.67578125 -7.32421875 242.67578125 -7.32421875 229.00390625 -13.427734375 c 0,6,7
 215.33203125 -19.53125 215.33203125 -19.53125 199.70703125 -19.53125 c 0,8,9
 172.8515625 -19.53125 172.8515625 -19.53125 158.203125 -4.8828125 c 0,10,11
 143.5546875 9.765625 143.5546875 9.765625 143.5546875 39.0625 c 0,12,13
 143.5546875 56.640625 143.5546875 56.640625 149.658203125 71.2890625 c 0,14,15
 155.76171875 85.9375 155.76171875 85.9375 166.015625 96.923828125 c 0,16,17
 176.26953125 107.91015625 176.26953125 107.91015625 189.94140625 114.013671875 c 0,18,19
 203.61328125 120.1171875 203.61328125 120.1171875 218.75 120.1171875 c 0,20,21
 244.140625 120.1171875 244.140625 120.1171875 259.27734375 105.46875 c 0,22,23
 274.4140625 90.8203125 274.4140625 90.8203125 274.4140625 61.5234375 c 0,0,1
403.3203125 568.84765625 m 0,24,25
 403.3203125 532.2265625 403.3203125 532.2265625 391.6015625 502.685546875 c 0,26,27
 379.8828125 473.14453125 379.8828125 473.14453125 361.81640625 447.509765625 c 0,28,29
 343.75 421.875 343.75 421.875 322.509765625 398.681640625 c 0,30,31
 301.26953125 375.48828125 301.26953125 375.48828125 282.71484375 351.07421875 c 0,32,33
 264.16015625 326.66015625 264.16015625 326.66015625 250.9765625 300.048828125 c 0,34,35
 237.79296875 273.4375 237.79296875 273.4375 235.3515625 240.72265625 c 0,36,-1
 232.421875 193.84765625 l 0,37,38
 223.14453125 187.01171875 223.14453125 187.01171875 214.111328125 182.373046875 c 0,39,40
 205.078125 177.734375 205.078125 177.734375 191.40625 173.828125 c 0,41,-1
 178.22265625 185.05859375 l 0,42,-1
 174.31640625 240.72265625 l 0,43,44
 172.8515625 268.5546875 172.8515625 268.5546875 182.12890625 295.8984375 c 0,45,46
 191.40625 323.2421875 191.40625 323.2421875 206.298828125 349.365234375 c 0,47,48
 221.19140625 375.48828125 221.19140625 375.48828125 238.76953125 401.123046875 c 0,49,50
 256.34765625 426.7578125 256.34765625 426.7578125 271.728515625 451.416015625 c 0,51,52
 287.109375 476.07421875 287.109375 476.07421875 297.36328125 499.755859375 c 0,53,54
 307.6171875 523.4375 307.6171875 523.4375 307.6171875 546.875 c 0,55,56
 307.6171875 607.421875 307.6171875 607.421875 282.71484375 639.892578125 c 0,57,58
 257.8125 672.36328125 257.8125 672.36328125 211.9140625 672.36328125 c 0,59,60
 196.2890625 672.36328125 196.2890625 672.36328125 181.884765625 665.0390625 c 0,61,62
 167.48046875 657.71484375 167.48046875 657.71484375 156.494140625 644.775390625 c 0,63,64
 145.5078125 631.8359375 145.5078125 631.8359375 139.16015625 614.990234375 c 0,65,66
 132.8125 598.14453125 132.8125 598.14453125 132.8125 579.1015625 c 0,67,68
 132.8125 572.265625 132.8125 572.265625 134.521484375 564.453125 c 0,69,70
 136.23046875 556.640625 136.23046875 556.640625 138.671875 549.8046875 c 0,71,72
 130.859375 545.8984375 130.859375 545.8984375 120.361328125 542.236328125 c 0,73,74
 109.86328125 538.57421875 109.86328125 538.57421875 98.388671875 535.64453125 c 0,75,76
 86.9140625 532.71484375 86.9140625 532.71484375 74.951171875 530.517578125 c 0,77,78
 62.98828125 528.3203125 62.98828125 528.3203125 52.24609375 527.34375 c 0,79,-1
 37.59765625 543.45703125 l 0,80,81
 36.62109375 547.36328125 36.62109375 547.36328125 36.62109375 552.734375 c 0,82,-1
 36.62109375 562.01171875 l 0,83,84
 36.62109375 596.19140625 36.62109375 596.19140625 53.955078125 625.732421875 c 0,85,86
 71.2890625 655.2734375 71.2890625 655.2734375 100.5859375 676.7578125 c 0,87,88
 129.8828125 698.2421875 129.8828125 698.2421875 168.45703125 710.44921875 c 0,89,90
 207.03125 722.65625 207.03125 722.65625 249.0234375 722.65625 c 0,91,92
 286.1328125 722.65625 286.1328125 722.65625 314.94140625 711.42578125 c 0,93,94
 343.75 700.1953125 343.75 700.1953125 363.525390625 679.931640625 c 0,95,96
 383.30078125 659.66796875 383.30078125 659.66796875 393.310546875 631.34765625 c 0,97,98
 403.3203125 603.02734375 403.3203125 603.02734375 403.3203125 568.84765625 c 0,24,25
EndSplineSet
EndChar

StartChar: at
Encoding: 35 64 35
Width: 830
VWidth: 488
Flags: W
LayerCount: 2
Fore
SplineSet
793.9453125 271.97265625 m 0,0,1
 793.9453125 229.98046875 793.9453125 229.98046875 784.1796875 192.3828125 c 0,2,3
 774.4140625 154.78515625 774.4140625 154.78515625 758.056640625 123.046875 c 0,4,5
 741.69921875 91.30859375 741.69921875 91.30859375 719.7265625 65.673828125 c 0,6,7
 697.75390625 40.0390625 697.75390625 40.0390625 673.33984375 22.216796875 c 0,8,9
 648.92578125 4.39453125 648.92578125 4.39453125 623.53515625 -5.126953125 c 0,10,11
 598.14453125 -14.6484375 598.14453125 -14.6484375 574.70703125 -14.6484375 c 0,12,13
 562.01171875 -14.6484375 562.01171875 -14.6484375 550.537109375 -10.009765625 c 0,14,15
 539.0625 -5.37109375 539.0625 -5.37109375 529.78515625 5.126953125 c 0,16,17
 520.5078125 15.625 520.5078125 15.625 513.671875 32.71484375 c 0,18,19
 506.8359375 49.8046875 506.8359375 49.8046875 502.9296875 74.21875 c 0,20,21
 482.91015625 47.8515625 482.91015625 47.8515625 467.7734375 30.76171875 c 0,22,23
 452.63671875 13.671875 452.63671875 13.671875 438.232421875 3.41796875 c 0,24,25
 423.828125 -6.8359375 423.828125 -6.8359375 408.935546875 -10.7421875 c 0,26,27
 394.04296875 -14.6484375 394.04296875 -14.6484375 374.51171875 -14.6484375 c 0,28,29
 349.609375 -14.6484375 349.609375 -14.6484375 323.974609375 0.48828125 c 0,30,31
 298.33984375 15.625 298.33984375 15.625 277.83203125 44.921875 c 0,32,33
 257.32421875 74.21875 257.32421875 74.21875 244.140625 117.1875 c 0,34,35
 230.95703125 160.15625 230.95703125 160.15625 230.95703125 215.8203125 c 0,36,37
 230.95703125 244.62890625 230.95703125 244.62890625 237.548828125 274.658203125 c 0,38,39
 244.140625 304.6875 244.140625 304.6875 256.8359375 332.763671875 c 0,40,41
 269.53125 360.83984375 269.53125 360.83984375 287.841796875 385.7421875 c 0,42,43
 306.15234375 410.64453125 306.15234375 410.64453125 329.345703125 428.955078125 c 0,44,45
 352.5390625 447.265625 352.5390625 447.265625 380.859375 458.0078125 c 0,46,47
 409.1796875 468.75 409.1796875 468.75 441.40625 468.75 c 0,48,49
 452.63671875 468.75 452.63671875 468.75 462.158203125 467.041015625 c 0,50,51
 471.6796875 465.33203125 471.6796875 465.33203125 480.95703125 460.44921875 c 0,52,53
 490.234375 455.56640625 490.234375 455.56640625 500.244140625 446.77734375 c 0,54,55
 510.25390625 437.98828125 510.25390625 437.98828125 522.94921875 423.828125 c 0,56,57
 540.52734375 432.12890625 540.52734375 432.12890625 555.908203125 442.87109375 c 0,58,59
 571.2890625 453.61328125 571.2890625 453.61328125 587.40234375 468.75 c 0,60,-1
 602.5390625 454.1015625 l 0,61,62
 598.14453125 439.453125 598.14453125 439.453125 595.21484375 422.36328125 c 0,63,64
 592.28515625 407.71484375 592.28515625 407.71484375 590.087890625 388.916015625 c 0,65,66
 587.890625 370.1171875 587.890625 370.1171875 587.890625 349.609375 c 0,67,-1
 587.890625 139.16015625 l 0,68,69
 587.890625 100.09765625 587.890625 100.09765625 599.853515625 81.0546875 c 0,70,71
 611.81640625 62.01171875 611.81640625 62.01171875 634.765625 62.01171875 c 0,72,73
 646.97265625 62.01171875 646.97265625 62.01171875 662.353515625 75.927734375 c 0,74,75
 677.734375 89.84375 677.734375 89.84375 691.162109375 114.74609375 c 0,76,77
 704.58984375 139.6484375 704.58984375 139.6484375 713.8671875 174.31640625 c 0,78,79
 723.14453125 208.984375 723.14453125 208.984375 723.14453125 250 c 0,80,81
 723.14453125 332.51953125 723.14453125 332.51953125 702.392578125 395.99609375 c 0,82,83
 681.640625 459.47265625 681.640625 459.47265625 644.287109375 502.197265625 c 0,84,85
 606.93359375 544.921875 606.93359375 544.921875 554.931640625 566.89453125 c 0,86,87
 502.9296875 588.8671875 502.9296875 588.8671875 440.91796875 588.8671875 c 0,88,89
 391.11328125 588.8671875 391.11328125 588.8671875 348.14453125 576.416015625 c 0,90,91
 305.17578125 563.96484375 305.17578125 563.96484375 269.775390625 541.748046875 c 0,92,93
 234.375 519.53125 234.375 519.53125 206.787109375 488.525390625 c 0,94,95
 179.19921875 457.51953125 179.19921875 457.51953125 160.400390625 420.41015625 c 0,96,97
 141.6015625 383.30078125 141.6015625 383.30078125 131.8359375 341.552734375 c 0,98,99
 122.0703125 299.8046875 122.0703125 299.8046875 122.0703125 255.859375 c 0,100,101
 122.0703125 195.80078125 122.0703125 195.80078125 134.27734375 144.775390625 c 0,102,103
 146.484375 93.75 146.484375 93.75 168.45703125 51.7578125 c 0,104,105
 190.4296875 9.765625 190.4296875 9.765625 220.947265625 -22.705078125 c 0,106,107
 251.46484375 -55.17578125 251.46484375 -55.17578125 288.330078125 -77.1484375 c 0,108,109
 325.1953125 -99.12109375 325.1953125 -99.12109375 366.943359375 -110.595703125 c 0,110,111
 408.69140625 -122.0703125 408.69140625 -122.0703125 453.125 -122.0703125 c 0,112,113
 496.09375 -122.0703125 496.09375 -122.0703125 536.1328125 -113.525390625 c 0,114,115
 576.171875 -104.98046875 576.171875 -104.98046875 609.86328125 -92.28515625 c 0,116,117
 643.5546875 -79.58984375 643.5546875 -79.58984375 669.189453125 -64.94140625 c 0,118,119
 694.82421875 -50.29296875 694.82421875 -50.29296875 709.47265625 -37.59765625 c 0,120,-1
 726.07421875 -69.82421875 l 0,121,122
 708.49609375 -88.8671875 708.49609375 -88.8671875 680.419921875 -109.86328125 c 0,123,124
 652.34375 -130.859375 652.34375 -130.859375 614.990234375 -148.4375 c 0,125,126
 577.63671875 -166.015625 577.63671875 -166.015625 530.76171875 -177.734375 c 0,127,128
 483.88671875 -189.453125 483.88671875 -189.453125 429.19921875 -189.453125 c 0,129,130
 342.7734375 -189.453125 342.7734375 -189.453125 270.751953125 -160.400390625 c 0,131,132
 198.73046875 -131.34765625 198.73046875 -131.34765625 146.728515625 -77.392578125 c 0,133,134
 94.7265625 -23.4375 94.7265625 -23.4375 65.673828125 53.7109375 c 0,135,136
 36.62109375 130.859375 36.62109375 130.859375 36.62109375 227.05078125 c 0,137,138
 36.62109375 283.69140625 36.62109375 283.69140625 51.7578125 337.40234375 c 0,139,140
 66.89453125 391.11328125 66.89453125 391.11328125 94.482421875 438.720703125 c 0,141,142
 122.0703125 486.328125 122.0703125 486.328125 160.64453125 526.123046875 c 0,143,144
 199.21875 565.91796875 199.21875 565.91796875 246.337890625 594.7265625 c 0,145,146
 293.45703125 623.53515625 293.45703125 623.53515625 347.412109375 639.6484375 c 0,147,148
 401.3671875 655.76171875 401.3671875 655.76171875 459.9609375 655.76171875 c 0,149,150
 534.66796875 655.76171875 534.66796875 655.76171875 596.19140625 631.34765625 c 0,151,152
 657.71484375 606.93359375 657.71484375 606.93359375 701.66015625 558.837890625 c 0,153,154
 745.60546875 510.7421875 745.60546875 510.7421875 769.775390625 438.96484375 c 0,155,156
 793.9453125 367.1875 793.9453125 367.1875 793.9453125 271.97265625 c 0,0,1
500 356.93359375 m 0,157,158
 493.65234375 369.62890625 493.65234375 369.62890625 487.060546875 379.638671875 c 0,159,160
 480.46875 389.6484375 480.46875 389.6484375 471.923828125 396.728515625 c 0,161,162
 463.37890625 403.80859375 463.37890625 403.80859375 452.880859375 407.71484375 c 0,163,164
 442.3828125 411.62109375 442.3828125 411.62109375 428.7109375 411.62109375 c 0,165,166
 378.41796875 411.62109375 378.41796875 411.62109375 348.6328125 366.943359375 c 0,167,168
 318.84765625 322.265625 318.84765625 322.265625 318.84765625 230.95703125 c 0,169,170
 318.84765625 189.453125 318.84765625 189.453125 327.63671875 157.2265625 c 0,171,172
 336.42578125 125 336.42578125 125 350.341796875 103.02734375 c 0,173,174
 364.2578125 81.0546875 364.2578125 81.0546875 381.103515625 69.82421875 c 0,175,176
 397.94921875 58.59375 397.94921875 58.59375 414.0625 58.59375 c 0,177,178
 423.33984375 58.59375 423.33984375 58.59375 431.884765625 61.767578125 c 0,179,180
 440.4296875 64.94140625 440.4296875 64.94140625 449.951171875 72.509765625 c 0,181,182
 459.47265625 80.078125 459.47265625 80.078125 471.435546875 93.26171875 c 0,183,184
 483.3984375 106.4453125 483.3984375 106.4453125 500 126.953125 c 0,185,-1
 500 356.93359375 l 0,157,158
EndSplineSet
EndChar

StartChar: A
Encoding: 36 65 36
Width: 606
VWidth: 488
Flags: W
LayerCount: 2
Fore
SplineSet
187.98828125 214.84375 m 0,0,-1
 136.23046875 59.08203125 l 0,1,2
 131.34765625 43.9453125 131.34765625 43.9453125 148.92578125 37.109375 c 0,3,4
 166.50390625 30.2734375 166.50390625 30.2734375 206.54296875 25.87890625 c 0,5,-1
 206.54296875 0 l 0,6,-1
 0 0 l 0,7,-1
 0 25.87890625 l 0,8,9
 33.203125 31.73828125 33.203125 31.73828125 52.24609375 38.0859375 c 0,10,11
 71.2890625 44.43359375 71.2890625 44.43359375 76.171875 59.08203125 c 0,12,-1
 253.90625 599.12109375 l 0,13,14
 269.53125 613.76953125 269.53125 613.76953125 290.283203125 625 c 0,15,16
 311.03515625 636.23046875 311.03515625 636.23046875 328.125 643.06640625 c 0,17,-1
 533.203125 59.08203125 l 0,18,19
 535.64453125 52.24609375 535.64453125 52.24609375 539.794921875 46.875 c 0,20,21
 543.9453125 41.50390625 543.9453125 41.50390625 551.26953125 37.59765625 c 0,22,23
 558.59375 33.69140625 558.59375 33.69140625 569.580078125 30.76171875 c 0,24,25
 580.56640625 27.83203125 580.56640625 27.83203125 596.19140625 25.87890625 c 0,26,-1
 596.19140625 0 l 0,27,-1
 377.9296875 0 l 0,28,-1
 377.9296875 25.87890625 l 0,29,30
 416.015625 28.3203125 416.015625 28.3203125 430.17578125 35.64453125 c 0,31,32
 444.3359375 42.96875 444.3359375 42.96875 438.96484375 59.08203125 c 0,33,-1
 385.25390625 214.84375 l 0,34,-1
 187.98828125 214.84375 l 0,0,-1
368.1640625 263.671875 m 0,35,-1
 284.1796875 506.8359375 l 0,36,-1
 204.1015625 263.671875 l 0,37,-1
 368.1640625 263.671875 l 0,35,-1
EndSplineSet
EndChar

StartChar: B
Encoding: 37 66 37
Width: 566
VWidth: 488
Flags: W
LayerCount: 2
Fore
SplineSet
514.6484375 173.828125 m 0,0,1
 514.6484375 132.32421875 514.6484375 132.32421875 498.046875 98.876953125 c 0,2,3
 481.4453125 65.4296875 481.4453125 65.4296875 450.927734375 41.9921875 c 0,4,5
 420.41015625 18.5546875 420.41015625 18.5546875 377.44140625 5.859375 c 0,6,7
 334.47265625 -6.8359375 334.47265625 -6.8359375 281.73828125 -6.8359375 c 0,8,9
 270.99609375 -6.8359375 270.99609375 -6.8359375 255.615234375 -6.591796875 c 0,10,11
 240.234375 -6.34765625 240.234375 -6.34765625 222.65625 -5.859375 c 0,12,13
 205.078125 -5.37109375 205.078125 -5.37109375 186.279296875 -4.8828125 c 0,14,15
 167.48046875 -4.39453125 167.48046875 -4.39453125 149.4140625 -3.41796875 c 0,16,17
 106.93359375 -1.953125 106.93359375 -1.953125 60.05859375 0 c 0,18,-1
 23.4375 0 l 0,19,-1
 23.4375 25.87890625 l 0,20,21
 56.640625 32.71484375 56.640625 32.71484375 74.70703125 40.771484375 c 0,22,23
 92.7734375 48.828125 92.7734375 48.828125 92.7734375 55.6640625 c 0,24,-1
 92.7734375 577.1484375 l 0,25,26
 74.21875 574.70703125 74.21875 574.70703125 56.640625 572.265625 c 0,27,28
 39.0625 569.82421875 39.0625 569.82421875 23.4375 566.89453125 c 0,29,-1
 18.06640625 600.5859375 l 0,30,31
 38.0859375 605.95703125 38.0859375 605.95703125 64.697265625 611.083984375 c 0,32,33
 91.30859375 616.2109375 91.30859375 616.2109375 120.849609375 620.361328125 c 0,34,35
 150.390625 624.51171875 150.390625 624.51171875 180.908203125 627.197265625 c 0,36,37
 211.42578125 629.8828125 211.42578125 629.8828125 238.76953125 629.8828125 c 0,38,39
 290.0390625 629.8828125 290.0390625 629.8828125 331.298828125 620.849609375 c 0,40,41
 372.55859375 611.81640625 372.55859375 611.81640625 401.123046875 594.7265625 c 0,42,43
 429.6875 577.63671875 429.6875 577.63671875 445.068359375 553.22265625 c 0,44,45
 460.44921875 528.80859375 460.44921875 528.80859375 460.44921875 498.046875 c 0,46,47
 460.44921875 445.3125 460.44921875 445.3125 434.326171875 407.71484375 c 0,48,49
 408.203125 370.1171875 408.203125 370.1171875 361.328125 353.02734375 c 0,50,51
 394.04296875 347.16796875 394.04296875 347.16796875 422.119140625 331.0546875 c 0,52,53
 450.1953125 314.94140625 450.1953125 314.94140625 470.703125 291.259765625 c 0,54,55
 491.2109375 267.578125 491.2109375 267.578125 502.9296875 237.548828125 c 0,56,57
 514.6484375 207.51953125 514.6484375 207.51953125 514.6484375 173.828125 c 0,0,1
261.23046875 315.4296875 m 0,58,59
 237.79296875 315.4296875 237.79296875 315.4296875 219.970703125 313.232421875 c 0,60,61
 202.1484375 311.03515625 202.1484375 311.03515625 185.546875 308.59375 c 0,62,-1
 185.546875 54.6875 l 0,63,64
 185.546875 51.26953125 185.546875 51.26953125 189.453125 47.8515625 c 0,65,66
 197.265625 44.921875 197.265625 44.921875 207.03125 42.96875 c 0,67,68
 216.796875 41.015625 216.796875 41.015625 227.294921875 40.0390625 c 0,69,70
 237.79296875 39.0625 237.79296875 39.0625 248.291015625 38.57421875 c 0,71,72
 258.7890625 38.0859375 258.7890625 38.0859375 268.5546875 38.0859375 c 0,73,74
 303.7109375 38.0859375 303.7109375 38.0859375 331.54296875 46.875 c 0,75,76
 359.375 55.6640625 359.375 55.6640625 378.662109375 71.533203125 c 0,77,78
 397.94921875 87.40234375 397.94921875 87.40234375 408.203125 109.86328125 c 0,79,80
 418.45703125 132.32421875 418.45703125 132.32421875 418.45703125 159.66796875 c 0,81,82
 418.45703125 186.5234375 418.45703125 186.5234375 409.912109375 214.35546875 c 0,83,84
 401.3671875 242.1875 401.3671875 242.1875 382.32421875 264.6484375 c 0,85,86
 363.28125 287.109375 363.28125 287.109375 333.49609375 301.26953125 c 0,87,88
 303.7109375 315.4296875 303.7109375 315.4296875 261.23046875 315.4296875 c 0,58,59
210.44921875 585.44921875 m 0,89,90
 204.58984375 585.44921875 204.58984375 585.44921875 198.486328125 585.205078125 c 0,91,92
 192.3828125 584.9609375 192.3828125 584.9609375 185.546875 584.9609375 c 0,93,-1
 185.546875 356.4453125 l 0,94,-1
 199.70703125 356.4453125 l 0,95,96
 252.9296875 356.4453125 252.9296875 356.4453125 286.1328125 366.943359375 c 0,97,98
 319.3359375 377.44140625 319.3359375 377.44140625 337.646484375 394.287109375 c 0,99,100
 355.95703125 411.1328125 355.95703125 411.1328125 362.3046875 432.12890625 c 0,101,102
 368.65234375 453.125 368.65234375 453.125 368.65234375 474.12109375 c 0,103,104
 368.65234375 498.53515625 368.65234375 498.53515625 360.83984375 519.04296875 c 0,105,106
 353.02734375 539.55078125 353.02734375 539.55078125 334.716796875 554.19921875 c 0,107,108
 316.40625 568.84765625 316.40625 568.84765625 286.1328125 577.1484375 c 0,109,110
 255.859375 585.44921875 255.859375 585.44921875 210.44921875 585.44921875 c 0,89,90
EndSplineSet
EndChar

StartChar: C
Encoding: 38 67 38
Width: 543
VWidth: 488
Flags: W
LayerCount: 2
Fore
SplineSet
505.859375 103.02734375 m 0,0,1
 474.609375 70.3125 474.609375 70.3125 445.556640625 47.8515625 c 0,2,3
 416.50390625 25.390625 416.50390625 25.390625 388.671875 11.474609375 c 0,4,5
 360.83984375 -2.44140625 360.83984375 -2.44140625 334.228515625 -8.544921875 c 0,6,7
 307.6171875 -14.6484375 307.6171875 -14.6484375 281.25 -14.6484375 c 0,8,9
 234.86328125 -14.6484375 234.86328125 -14.6484375 189.94140625 5.859375 c 0,10,11
 145.01953125 26.3671875 145.01953125 26.3671875 109.86328125 64.94140625 c 0,12,13
 74.70703125 103.515625 74.70703125 103.515625 53.22265625 159.423828125 c 0,14,15
 31.73828125 215.33203125 31.73828125 215.33203125 31.73828125 286.1328125 c 0,16,17
 31.73828125 364.2578125 31.73828125 364.2578125 55.419921875 427.734375 c 0,18,19
 79.1015625 491.2109375 79.1015625 491.2109375 120.1171875 536.1328125 c 0,20,21
 161.1328125 581.0546875 161.1328125 581.0546875 215.8203125 605.46875 c 0,22,23
 270.5078125 629.8828125 270.5078125 629.8828125 332.51953125 629.8828125 c 0,24,25
 358.88671875 629.8828125 358.88671875 629.8828125 383.056640625 625.9765625 c 0,26,27
 407.2265625 622.0703125 407.2265625 622.0703125 428.22265625 615.478515625 c 0,28,29
 449.21875 608.88671875 449.21875 608.88671875 466.552734375 600.09765625 c 0,30,31
 483.88671875 591.30859375 483.88671875 591.30859375 496.58203125 581.0546875 c 0,32,33
 499.51171875 578.61328125 499.51171875 578.61328125 494.62890625 568.84765625 c 0,34,35
 489.74609375 559.08203125 489.74609375 559.08203125 481.689453125 547.119140625 c 0,36,37
 473.6328125 535.15625 473.6328125 535.15625 464.84375 523.681640625 c 0,38,39
 456.0546875 512.20703125 456.0546875 512.20703125 450.1953125 506.34765625 c 0,40,-1
 428.22265625 510.7421875 l 0,41,42
 403.3203125 540.0390625 403.3203125 540.0390625 369.873046875 556.396484375 c 0,43,44
 336.42578125 572.75390625 336.42578125 572.75390625 293.9453125 572.75390625 c 0,45,46
 277.34375 572.75390625 277.34375 572.75390625 258.056640625 566.89453125 c 0,47,48
 238.76953125 561.03515625 238.76953125 561.03515625 219.970703125 548.095703125 c 0,49,50
 201.171875 535.15625 201.171875 535.15625 183.59375 514.404296875 c 0,51,52
 166.015625 493.65234375 166.015625 493.65234375 152.83203125 463.8671875 c 0,53,54
 139.6484375 434.08203125 139.6484375 434.08203125 131.591796875 394.53125 c 0,55,56
 123.53515625 354.98046875 123.53515625 354.98046875 123.53515625 304.19921875 c 0,57,58
 123.53515625 240.234375 123.53515625 240.234375 141.6015625 192.626953125 c 0,59,60
 159.66796875 145.01953125 159.66796875 145.01953125 187.98828125 113.525390625 c 0,61,62
 216.30859375 82.03125 216.30859375 82.03125 251.46484375 66.650390625 c 0,63,64
 286.62109375 51.26953125 286.62109375 51.26953125 320.3125 51.26953125 c 0,65,66
 333.49609375 51.26953125 333.49609375 51.26953125 351.07421875 55.17578125 c 0,67,68
 368.65234375 59.08203125 368.65234375 59.08203125 389.6484375 68.115234375 c 0,69,70
 410.64453125 77.1484375 410.64453125 77.1484375 434.814453125 92.041015625 c 0,71,72
 458.984375 106.93359375 458.984375 106.93359375 485.3515625 128.90625 c 0,73,74
 487.79296875 127.44140625 487.79296875 127.44140625 490.72265625 123.779296875 c 0,75,76
 493.65234375 120.1171875 493.65234375 120.1171875 496.58203125 115.966796875 c 0,77,78
 499.51171875 111.81640625 499.51171875 111.81640625 501.953125 108.154296875 c 0,79,80
 504.39453125 104.4921875 504.39453125 104.4921875 505.859375 103.02734375 c 0,0,1
EndSplineSet
EndChar

StartChar: D
Encoding: 39 68 39
Width: 607
VWidth: 488
Flags: W
LayerCount: 2
Fore
SplineSet
564.453125 330.078125 m 0,0,1
 564.453125 269.04296875 564.453125 269.04296875 552.001953125 220.947265625 c 0,2,3
 539.55078125 172.8515625 539.55078125 172.8515625 518.310546875 135.986328125 c 0,4,5
 497.0703125 99.12109375 497.0703125 99.12109375 468.994140625 73.486328125 c 0,6,7
 440.91796875 47.8515625 440.91796875 47.8515625 409.66796875 31.494140625 c 0,8,9
 378.41796875 15.13671875 378.41796875 15.13671875 345.703125 7.568359375 c 0,10,11
 312.98828125 0 312.98828125 0 282.71484375 0 c 0,12,-1
 23.4375 0 l 0,13,-1
 23.4375 25.87890625 l 0,14,15
 56.640625 32.71484375 56.640625 32.71484375 74.70703125 40.771484375 c 0,16,17
 92.7734375 48.828125 92.7734375 48.828125 92.7734375 55.6640625 c 0,18,-1
 92.7734375 575.1953125 l 0,19,20
 73.73046875 572.75390625 73.73046875 572.75390625 56.15234375 570.3125 c 0,21,22
 38.57421875 567.87109375 38.57421875 567.87109375 23.4375 565.4296875 c 0,23,-1
 18.06640625 600.5859375 l 0,24,25
 40.52734375 606.4453125 40.52734375 606.4453125 70.3125 611.81640625 c 0,26,27
 100.09765625 617.1875 100.09765625 617.1875 132.8125 621.337890625 c 0,28,29
 165.52734375 625.48828125 165.52734375 625.48828125 199.21875 627.685546875 c 0,30,31
 232.91015625 629.8828125 232.91015625 629.8828125 262.6953125 629.8828125 c 0,32,33
 333.0078125 629.8828125 333.0078125 629.8828125 388.916015625 609.619140625 c 0,34,35
 444.82421875 589.35546875 444.82421875 589.35546875 483.88671875 550.78125 c 0,36,37
 522.94921875 512.20703125 522.94921875 512.20703125 543.701171875 456.54296875 c 0,38,39
 564.453125 400.87890625 564.453125 400.87890625 564.453125 330.078125 c 0,0,1
229.98046875 585.44921875 m 0,40,41
 207.51953125 585.44921875 207.51953125 585.44921875 185.546875 583.984375 c 0,42,-1
 185.546875 80.078125 l 0,43,44
 185.546875 69.3359375 185.546875 69.3359375 189.453125 62.01171875 c 0,45,46
 195.80078125 53.22265625 195.80078125 53.22265625 213.8671875 49.072265625 c 0,47,48
 231.93359375 44.921875 231.93359375 44.921875 269.53125 44.921875 c 0,49,50
 301.26953125 44.921875 301.26953125 44.921875 335.9375 60.791015625 c 0,51,52
 370.60546875 76.66015625 370.60546875 76.66015625 399.4140625 109.375 c 0,53,54
 428.22265625 142.08984375 428.22265625 142.08984375 446.77734375 192.138671875 c 0,55,56
 465.33203125 242.1875 465.33203125 242.1875 465.33203125 311.03515625 c 0,57,58
 465.33203125 375.9765625 465.33203125 375.9765625 449.951171875 427.001953125 c 0,59,60
 434.5703125 478.02734375 434.5703125 478.02734375 404.541015625 513.18359375 c 0,61,62
 374.51171875 548.33984375 374.51171875 548.33984375 330.810546875 566.89453125 c 0,63,64
 287.109375 585.44921875 287.109375 585.44921875 229.98046875 585.44921875 c 0,40,41
EndSplineSet
EndChar

StartChar: E
Encoding: 40 69 40
Width: 505
VWidth: 488
Flags: W
LayerCount: 2
Fore
SplineSet
478.02734375 128.90625 m 0,0,1
 476.07421875 107.91015625 476.07421875 107.91015625 473.6328125 87.890625 c 0,2,3
 471.19140625 67.87109375 471.19140625 67.87109375 468.26171875 50.537109375 c 0,4,5
 465.33203125 33.203125 465.33203125 33.203125 462.646484375 20.263671875 c 0,6,7
 459.9609375 7.32421875 459.9609375 7.32421875 458.0078125 0 c 0,8,-1
 23.4375 0 l 0,9,-1
 23.4375 25.87890625 l 0,10,11
 56.640625 32.71484375 56.640625 32.71484375 74.70703125 40.771484375 c 0,12,13
 92.7734375 48.828125 92.7734375 48.828125 92.7734375 55.6640625 c 0,14,-1
 92.7734375 559.08203125 l 0,15,16
 92.7734375 564.94140625 92.7734375 564.94140625 75.68359375 573.73046875 c 0,17,18
 58.59375 582.51953125 58.59375 582.51953125 23.4375 589.35546875 c 0,19,-1
 23.4375 615.234375 l 0,20,-1
 429.19921875 615.234375 l 0,21,-1
 446.2890625 602.05078125 l 0,22,23
 445.3125 589.35546875 445.3125 589.35546875 443.359375 572.998046875 c 0,24,25
 441.40625 556.640625 441.40625 556.640625 438.4765625 539.794921875 c 0,26,27
 435.546875 522.94921875 435.546875 522.94921875 432.373046875 507.8125 c 0,28,29
 429.19921875 492.67578125 429.19921875 492.67578125 426.26953125 483.3984375 c 0,30,-1
 399.4140625 483.3984375 l 0,31,32
 396.97265625 528.3203125 396.97265625 528.3203125 387.20703125 547.36328125 c 0,33,34
 377.44140625 566.40625 377.44140625 566.40625 359.375 566.40625 c 0,35,-1
 185.546875 566.40625 l 0,36,-1
 185.546875 358.88671875 l 0,37,-1
 382.32421875 358.88671875 l 0,38,-1
 395.99609375 344.23828125 l 0,39,40
 392.08984375 337.40234375 392.08984375 337.40234375 386.474609375 329.1015625 c 0,41,42
 380.859375 320.80078125 380.859375 320.80078125 374.755859375 312.98828125 c 0,43,44
 368.65234375 305.17578125 368.65234375 305.17578125 362.548828125 298.33984375 c 0,45,46
 356.4453125 291.50390625 356.4453125 291.50390625 351.07421875 287.59765625 c 0,47,48
 343.75 294.921875 343.75 294.921875 335.205078125 299.8046875 c 0,49,50
 326.66015625 304.6875 326.66015625 304.6875 315.673828125 308.10546875 c 0,51,52
 304.6875 311.5234375 304.6875 311.5234375 289.794921875 312.98828125 c 0,53,54
 274.90234375 314.453125 274.90234375 314.453125 254.39453125 314.453125 c 0,55,-1
 185.546875 314.453125 l 0,56,-1
 185.546875 80.078125 l 0,57,58
 185.546875 72.75390625 185.546875 72.75390625 188.96484375 67.138671875 c 0,59,60
 192.3828125 61.5234375 192.3828125 61.5234375 203.125 57.373046875 c 0,61,62
 213.8671875 53.22265625 213.8671875 53.22265625 233.3984375 51.025390625 c 0,63,64
 252.9296875 48.828125 252.9296875 48.828125 285.15625 48.828125 c 0,65,-1
 343.26171875 48.828125 l 0,66,67
 365.72265625 48.828125 365.72265625 48.828125 381.591796875 52.24609375 c 0,68,69
 397.4609375 55.6640625 397.4609375 55.6640625 409.66796875 65.4296875 c 0,70,71
 421.875 75.1953125 421.875 75.1953125 431.884765625 92.7734375 c 0,72,73
 441.89453125 110.3515625 441.89453125 110.3515625 452.1484375 139.16015625 c 0,74,-1
 478.02734375 128.90625 l 0,0,1
EndSplineSet
EndChar

StartChar: F
Encoding: 41 70 41
Width: 487
VWidth: 488
Flags: W
LayerCount: 2
Fore
SplineSet
23.4375 0 m 0,0,-1
 23.4375 25.87890625 l 0,1,2
 56.640625 32.71484375 56.640625 32.71484375 74.70703125 40.771484375 c 0,3,4
 92.7734375 48.828125 92.7734375 48.828125 92.7734375 55.6640625 c 0,5,-1
 92.7734375 559.08203125 l 0,6,7
 92.7734375 564.94140625 92.7734375 564.94140625 75.68359375 573.73046875 c 0,8,9
 58.59375 582.51953125 58.59375 582.51953125 23.4375 589.35546875 c 0,10,-1
 23.4375 615.234375 l 0,11,-1
 434.08203125 615.234375 l 0,12,-1
 450.1953125 602.05078125 l 0,13,14
 449.70703125 589.35546875 449.70703125 589.35546875 447.75390625 572.998046875 c 0,15,16
 445.80078125 556.640625 445.80078125 556.640625 443.115234375 539.794921875 c 0,17,18
 440.4296875 522.94921875 440.4296875 522.94921875 437.255859375 507.8125 c 0,19,20
 434.08203125 492.67578125 434.08203125 492.67578125 431.15234375 483.3984375 c 0,21,-1
 403.3203125 483.3984375 l 0,22,23
 401.85546875 528.3203125 401.85546875 528.3203125 391.845703125 547.36328125 c 0,24,25
 381.8359375 566.40625 381.8359375 566.40625 363.28125 566.40625 c 0,26,-1
 185.546875 566.40625 l 0,27,-1
 185.546875 358.88671875 l 0,28,-1
 367.1875 358.88671875 l 0,29,-1
 382.32421875 344.23828125 l 0,30,31
 377.9296875 336.9140625 377.9296875 336.9140625 372.0703125 328.61328125 c 0,32,33
 366.2109375 320.3125 366.2109375 320.3125 359.86328125 312.5 c 0,34,35
 353.515625 304.6875 353.515625 304.6875 347.412109375 298.095703125 c 0,36,37
 341.30859375 291.50390625 341.30859375 291.50390625 336.42578125 287.59765625 c 0,38,39
 329.1015625 294.921875 329.1015625 294.921875 320.80078125 299.8046875 c 0,40,41
 312.5 304.6875 312.5 304.6875 301.513671875 308.10546875 c 0,42,43
 290.52734375 311.5234375 290.52734375 311.5234375 275.634765625 312.98828125 c 0,44,45
 260.7421875 314.453125 260.7421875 314.453125 240.234375 314.453125 c 0,46,-1
 185.546875 314.453125 l 0,47,-1
 185.546875 55.6640625 l 0,48,49
 185.546875 52.734375 185.546875 52.734375 189.697265625 49.31640625 c 0,50,51
 193.84765625 45.8984375 193.84765625 45.8984375 203.857421875 42.236328125 c 0,52,53
 213.8671875 38.57421875 213.8671875 38.57421875 229.98046875 34.423828125 c 0,54,55
 246.09375 30.2734375 246.09375 30.2734375 270.01953125 25.87890625 c 0,56,-1
 270.01953125 0 l 0,57,-1
 23.4375 0 l 0,0,-1
EndSplineSet
EndChar

StartChar: G
Encoding: 42 71 42
Width: 589
VWidth: 488
Flags: W
LayerCount: 2
Fore
SplineSet
517.578125 580.078125 m 0,0,1
 520.99609375 577.63671875 520.99609375 577.63671875 516.11328125 568.115234375 c 0,2,3
 511.23046875 558.59375 511.23046875 558.59375 502.685546875 547.36328125 c 0,4,5
 494.140625 536.1328125 494.140625 536.1328125 484.375 525.146484375 c 0,6,7
 474.609375 514.16015625 474.609375 514.16015625 468.26171875 508.30078125 c 0,8,-1
 447.265625 512.6953125 l 0,9,10
 431.15234375 530.76171875 431.15234375 530.76171875 414.306640625 542.48046875 c 0,11,12
 397.4609375 554.19921875 397.4609375 554.19921875 379.150390625 561.279296875 c 0,13,14
 360.83984375 568.359375 360.83984375 568.359375 340.33203125 571.044921875 c 0,15,16
 319.82421875 573.73046875 319.82421875 573.73046875 296.875 573.73046875 c 0,17,18
 284.66796875 573.73046875 284.66796875 573.73046875 267.08984375 568.359375 c 0,19,20
 249.51171875 562.98828125 249.51171875 562.98828125 230.224609375 550.78125 c 0,21,22
 210.9375 538.57421875 210.9375 538.57421875 191.89453125 518.5546875 c 0,23,24
 172.8515625 498.53515625 172.8515625 498.53515625 157.71484375 469.482421875 c 0,25,26
 142.578125 440.4296875 142.578125 440.4296875 133.056640625 401.123046875 c 0,27,28
 123.53515625 361.81640625 123.53515625 361.81640625 123.53515625 311.03515625 c 0,29,30
 123.53515625 244.140625 123.53515625 244.140625 140.625 195.068359375 c 0,31,32
 157.71484375 145.99609375 157.71484375 145.99609375 185.546875 113.76953125 c 0,33,34
 213.37890625 81.54296875 213.37890625 81.54296875 248.53515625 65.91796875 c 0,35,36
 283.69140625 50.29296875 283.69140625 50.29296875 319.82421875 50.29296875 c 0,37,38
 353.02734375 50.29296875 353.02734375 50.29296875 379.8828125 56.640625 c 0,39,40
 406.73828125 62.98828125 406.73828125 62.98828125 428.7109375 74.70703125 c 0,41,-1
 428.7109375 234.375 l 0,42,43
 428.7109375 239.74609375 428.7109375 239.74609375 425.048828125 244.873046875 c 0,44,45
 421.38671875 250 421.38671875 250 411.1328125 254.8828125 c 0,46,47
 400.87890625 259.765625 400.87890625 259.765625 382.568359375 264.6484375 c 0,48,49
 364.2578125 269.53125 364.2578125 269.53125 335.44921875 274.4140625 c 0,50,-1
 335.44921875 300.29296875 l 0,51,-1
 566.40625 300.29296875 l 0,52,-1
 566.40625 274.4140625 l 0,53,54
 538.57421875 267.578125 538.57421875 267.578125 527.587890625 256.591796875 c 0,55,56
 516.6015625 245.60546875 516.6015625 245.60546875 516.6015625 234.375 c 0,57,-1
 516.6015625 77.63671875 l 0,58,59
 480.46875 47.8515625 480.46875 47.8515625 450.927734375 29.78515625 c 0,60,61
 421.38671875 11.71875 421.38671875 11.71875 396.240234375 1.708984375 c 0,62,63
 371.09375 -8.30078125 371.09375 -8.30078125 348.6328125 -11.474609375 c 0,64,65
 326.171875 -14.6484375 326.171875 -14.6484375 304.19921875 -14.6484375 c 0,66,67
 253.90625 -14.6484375 253.90625 -14.6484375 205.078125 3.662109375 c 0,68,69
 156.25 21.97265625 156.25 21.97265625 117.67578125 59.326171875 c 0,70,71
 79.1015625 96.6796875 79.1015625 96.6796875 55.419921875 152.587890625 c 0,72,73
 31.73828125 208.49609375 31.73828125 208.49609375 31.73828125 284.1796875 c 0,74,75
 31.73828125 365.234375 31.73828125 365.234375 57.6171875 429.443359375 c 0,76,77
 83.49609375 493.65234375 83.49609375 493.65234375 128.173828125 538.330078125 c 0,78,79
 172.8515625 583.0078125 172.8515625 583.0078125 233.154296875 606.4453125 c 0,80,81
 293.45703125 629.8828125 293.45703125 629.8828125 362.3046875 629.8828125 c 0,82,83
 378.41796875 629.8828125 378.41796875 629.8828125 398.681640625 626.46484375 c 0,84,85
 418.9453125 623.046875 418.9453125 623.046875 440.185546875 616.69921875 c 0,86,87
 461.42578125 610.3515625 461.42578125 610.3515625 481.689453125 601.07421875 c 0,88,89
 501.953125 591.796875 501.953125 591.796875 517.578125 580.078125 c 0,0,1
EndSplineSet
EndChar

StartChar: H
Encoding: 43 72 43
Width: 663
VWidth: 488
Flags: W
LayerCount: 2
Fore
SplineSet
23.4375 0 m 0,0,-1
 23.4375 25.87890625 l 0,1,2
 56.640625 32.71484375 56.640625 32.71484375 74.70703125 40.771484375 c 0,3,4
 92.7734375 48.828125 92.7734375 48.828125 92.7734375 55.6640625 c 0,5,-1
 92.7734375 559.08203125 l 0,6,7
 92.7734375 564.94140625 92.7734375 564.94140625 75.68359375 573.73046875 c 0,8,9
 58.59375 582.51953125 58.59375 582.51953125 23.4375 589.35546875 c 0,10,-1
 23.4375 615.234375 l 0,11,-1
 255.37109375 615.234375 l 0,12,-1
 255.37109375 589.35546875 l 0,13,14
 222.16796875 582.51953125 222.16796875 582.51953125 203.857421875 574.21875 c 0,15,16
 185.546875 565.91796875 185.546875 565.91796875 185.546875 559.08203125 c 0,17,-1
 185.546875 346.6796875 l 0,18,-1
 468.75 346.6796875 l 0,19,-1
 468.75 559.08203125 l 0,20,21
 468.75 564.94140625 468.75 564.94140625 451.66015625 573.73046875 c 0,22,23
 434.5703125 582.51953125 434.5703125 582.51953125 399.4140625 589.35546875 c 0,24,-1
 399.4140625 615.234375 l 0,25,-1
 631.34765625 615.234375 l 0,26,-1
 631.34765625 589.35546875 l 0,27,28
 598.14453125 582.51953125 598.14453125 582.51953125 579.833984375 574.21875 c 0,29,30
 561.5234375 565.91796875 561.5234375 565.91796875 561.5234375 559.08203125 c 0,31,-1
 561.5234375 55.6640625 l 0,32,33
 561.5234375 49.8046875 561.5234375 49.8046875 578.857421875 41.259765625 c 0,34,35
 596.19140625 32.71484375 596.19140625 32.71484375 631.34765625 25.87890625 c 0,36,-1
 631.34765625 0 l 0,37,-1
 399.4140625 0 l 0,38,-1
 399.4140625 25.87890625 l 0,39,40
 432.6171875 32.71484375 432.6171875 32.71484375 450.68359375 40.771484375 c 0,41,42
 468.75 48.828125 468.75 48.828125 468.75 55.6640625 c 0,43,-1
 468.75 297.8515625 l 0,44,-1
 185.546875 297.8515625 l 0,45,-1
 185.546875 55.6640625 l 0,46,47
 185.546875 49.8046875 185.546875 49.8046875 202.63671875 41.259765625 c 0,48,49
 219.7265625 32.71484375 219.7265625 32.71484375 255.37109375 25.87890625 c 0,50,-1
 255.37109375 0 l 0,51,-1
 23.4375 0 l 0,0,-1
EndSplineSet
EndChar

StartChar: I
Encoding: 44 73 44
Width: 307
VWidth: 488
Flags: W
LayerCount: 2
Fore
SplineSet
33.203125 0 m 0,0,-1
 33.203125 25.87890625 l 0,1,2
 66.40625 32.71484375 66.40625 32.71484375 84.47265625 40.771484375 c 0,3,4
 102.5390625 48.828125 102.5390625 48.828125 102.5390625 55.6640625 c 0,5,-1
 102.5390625 559.08203125 l 0,6,7
 102.5390625 564.94140625 102.5390625 564.94140625 85.44921875 573.73046875 c 0,8,9
 68.359375 582.51953125 68.359375 582.51953125 33.203125 589.35546875 c 0,10,-1
 33.203125 615.234375 l 0,11,-1
 265.13671875 615.234375 l 0,12,-1
 265.13671875 589.35546875 l 0,13,14
 231.93359375 582.51953125 231.93359375 582.51953125 213.623046875 574.21875 c 0,15,16
 195.3125 565.91796875 195.3125 565.91796875 195.3125 559.08203125 c 0,17,-1
 195.3125 55.6640625 l 0,18,19
 195.3125 49.8046875 195.3125 49.8046875 212.646484375 41.259765625 c 0,20,21
 229.98046875 32.71484375 229.98046875 32.71484375 265.13671875 25.87890625 c 0,22,-1
 265.13671875 0 l 0,23,-1
 33.203125 0 l 0,0,-1
EndSplineSet
EndChar

StartChar: J
Encoding: 45 74 45
Width: 314
VWidth: 488
Flags: W
LayerCount: 2
Fore
SplineSet
282.2265625 589.35546875 m 0,0,1
 249.0234375 582.51953125 249.0234375 582.51953125 230.712890625 574.21875 c 0,2,3
 212.40234375 565.91796875 212.40234375 565.91796875 212.40234375 559.08203125 c 0,4,-1
 212.40234375 96.6796875 l 0,5,6
 212.40234375 40.0390625 212.40234375 40.0390625 203.61328125 1.220703125 c 0,7,8
 194.82421875 -37.59765625 194.82421875 -37.59765625 180.17578125 -64.94140625 c 0,9,10
 165.52734375 -92.28515625 165.52734375 -92.28515625 146.97265625 -110.595703125 c 0,11,12
 128.41796875 -128.90625 128.41796875 -128.90625 109.375 -144.53125 c 0,13,14
 96.19140625 -155.2734375 96.19140625 -155.2734375 80.078125 -164.0625 c 0,15,16
 63.96484375 -172.8515625 63.96484375 -172.8515625 47.36328125 -178.955078125 c 0,17,18
 30.76171875 -185.05859375 30.76171875 -185.05859375 15.13671875 -188.4765625 c 0,19,20
 -0.48828125 -191.89453125 -0.48828125 -191.89453125 -12.20703125 -191.89453125 c 0,21,22
 -29.296875 -191.89453125 -29.296875 -191.89453125 -45.8984375 -187.01171875 c 0,23,24
 -62.5 -182.12890625 -62.5 -182.12890625 -75.68359375 -175.537109375 c 0,25,26
 -88.8671875 -168.9453125 -88.8671875 -168.9453125 -96.923828125 -161.865234375 c 0,27,28
 -104.98046875 -154.78515625 -104.98046875 -154.78515625 -104.98046875 -150.390625 c 0,29,30
 -104.98046875 -145.99609375 -104.98046875 -145.99609375 -97.412109375 -137.20703125 c 0,31,32
 -89.84375 -128.41796875 -89.84375 -128.41796875 -79.345703125 -119.140625 c 0,33,34
 -68.84765625 -109.86328125 -68.84765625 -109.86328125 -57.861328125 -102.05078125 c 0,35,36
 -46.875 -94.23828125 -46.875 -94.23828125 -40.0390625 -91.796875 c 0,37,38
 -26.3671875 -101.5625 -26.3671875 -101.5625 -15.380859375 -107.91015625 c 0,39,40
 -4.39453125 -114.2578125 -4.39453125 -114.2578125 5.37109375 -117.919921875 c 0,41,42
 15.13671875 -121.58203125 15.13671875 -121.58203125 24.169921875 -123.046875 c 0,43,44
 33.203125 -124.51171875 33.203125 -124.51171875 42.48046875 -124.51171875 c 0,45,46
 55.17578125 -124.51171875 55.17578125 -124.51171875 68.84765625 -116.943359375 c 0,47,48
 82.51953125 -109.375 82.51953125 -109.375 93.75 -88.8671875 c 0,49,50
 104.98046875 -68.359375 104.98046875 -68.359375 112.3046875 -32.2265625 c 0,51,52
 119.62890625 3.90625 119.62890625 3.90625 119.62890625 61.5234375 c 0,53,-1
 119.62890625 559.08203125 l 0,54,55
 119.62890625 562.01171875 119.62890625 562.01171875 115.966796875 565.4296875 c 0,56,57
 112.3046875 568.84765625 112.3046875 568.84765625 102.05078125 572.75390625 c 0,58,59
 91.796875 576.66015625 91.796875 576.66015625 73.486328125 580.810546875 c 0,60,61
 55.17578125 584.9609375 55.17578125 584.9609375 25.87890625 589.35546875 c 0,62,-1
 25.87890625 615.234375 l 0,63,-1
 282.2265625 615.234375 l 0,64,-1
 282.2265625 589.35546875 l 0,0,1
EndSplineSet
EndChar

StartChar: K
Encoding: 46 75 46
Width: 591
VWidth: 488
Flags: W
LayerCount: 2
Fore
SplineSet
23.4375 0 m 0,0,-1
 23.4375 25.87890625 l 0,1,2
 56.640625 32.71484375 56.640625 32.71484375 74.70703125 40.771484375 c 0,3,4
 92.7734375 48.828125 92.7734375 48.828125 92.7734375 55.6640625 c 0,5,-1
 92.7734375 559.08203125 l 0,6,7
 92.7734375 564.94140625 92.7734375 564.94140625 75.68359375 573.73046875 c 0,8,9
 58.59375 582.51953125 58.59375 582.51953125 23.4375 589.35546875 c 0,10,-1
 23.4375 615.234375 l 0,11,-1
 255.37109375 615.234375 l 0,12,-1
 255.37109375 589.35546875 l 0,13,14
 222.16796875 582.51953125 222.16796875 582.51953125 203.857421875 574.21875 c 0,15,16
 185.546875 565.91796875 185.546875 565.91796875 185.546875 559.08203125 c 0,17,-1
 185.546875 317.87109375 l 0,18,-1
 379.39453125 545.8984375 l 0,19,20
 390.625 559.08203125 390.625 559.08203125 394.04296875 566.89453125 c 0,21,22
 397.4609375 574.70703125 397.4609375 574.70703125 393.310546875 579.1015625 c 0,23,24
 389.16015625 583.49609375 389.16015625 583.49609375 377.44140625 585.693359375 c 0,25,26
 365.72265625 587.890625 365.72265625 587.890625 346.6796875 589.35546875 c 0,27,-1
 346.6796875 615.234375 l 0,28,-1
 556.640625 615.234375 l 0,29,-1
 556.640625 589.35546875 l 0,30,31
 541.015625 587.40234375 541.015625 587.40234375 529.296875 585.44921875 c 0,32,33
 517.578125 583.49609375 517.578125 583.49609375 508.30078125 580.322265625 c 0,34,35
 499.0234375 577.1484375 499.0234375 577.1484375 491.2109375 572.265625 c 0,36,37
 483.3984375 567.3828125 483.3984375 567.3828125 476.07421875 559.08203125 c 0,38,-1
 263.671875 328.61328125 l 0,39,-1
 499.51171875 68.359375 l 0,40,41
 516.11328125 49.8046875 516.11328125 49.8046875 537.59765625 46.630859375 c 0,42,43
 559.08203125 43.45703125 559.08203125 43.45703125 584.47265625 46.38671875 c 0,44,-1
 587.890625 20.5078125 l 0,45,46
 573.73046875 16.11328125 573.73046875 16.11328125 558.10546875 11.23046875 c 0,47,48
 542.48046875 6.34765625 542.48046875 6.34765625 527.099609375 2.197265625 c 0,49,50
 511.71875 -1.953125 511.71875 -1.953125 497.55859375 -4.39453125 c 0,51,52
 483.3984375 -6.8359375 483.3984375 -6.8359375 471.6796875 -6.8359375 c 0,53,54
 457.51953125 -6.8359375 457.51953125 -6.8359375 446.533203125 -2.44140625 c 0,55,56
 435.546875 1.953125 435.546875 1.953125 425.78125 14.16015625 c 0,57,-1
 185.546875 309.5703125 l 0,58,-1
 185.546875 55.6640625 l 0,59,60
 185.546875 49.8046875 185.546875 49.8046875 202.63671875 41.259765625 c 0,61,62
 219.7265625 32.71484375 219.7265625 32.71484375 255.37109375 25.87890625 c 0,63,-1
 255.37109375 0 l 0,64,-1
 23.4375 0 l 0,0,-1
EndSplineSet
EndChar

StartChar: L
Encoding: 47 76 47
Width: 487
VWidth: 488
Flags: W
LayerCount: 2
Fore
SplineSet
473.14453125 128.90625 m 0,0,1
 471.19140625 107.91015625 471.19140625 107.91015625 468.505859375 87.890625 c 0,2,3
 465.8203125 67.87109375 465.8203125 67.87109375 463.134765625 50.537109375 c 0,4,5
 460.44921875 33.203125 460.44921875 33.203125 457.763671875 20.263671875 c 0,6,7
 455.078125 7.32421875 455.078125 7.32421875 453.125 0 c 0,8,-1
 23.4375 0 l 0,9,-1
 23.4375 25.87890625 l 0,10,11
 56.640625 32.71484375 56.640625 32.71484375 74.70703125 40.771484375 c 0,12,13
 92.7734375 48.828125 92.7734375 48.828125 92.7734375 55.6640625 c 0,14,-1
 92.7734375 559.08203125 l 0,15,16
 92.7734375 564.94140625 92.7734375 564.94140625 75.68359375 573.73046875 c 0,17,18
 58.59375 582.51953125 58.59375 582.51953125 23.4375 589.35546875 c 0,19,-1
 23.4375 615.234375 l 0,20,-1
 255.37109375 615.234375 l 0,21,-1
 255.37109375 589.35546875 l 0,22,23
 222.16796875 582.51953125 222.16796875 582.51953125 203.857421875 574.21875 c 0,24,25
 185.546875 565.91796875 185.546875 565.91796875 185.546875 559.08203125 c 0,26,-1
 185.546875 84.9609375 l 0,27,28
 185.546875 76.171875 185.546875 76.171875 189.697265625 69.580078125 c 0,29,30
 193.84765625 62.98828125 193.84765625 62.98828125 204.1015625 58.349609375 c 0,31,32
 214.35546875 53.7109375 214.35546875 53.7109375 231.93359375 51.26953125 c 0,33,34
 249.51171875 48.828125 249.51171875 48.828125 276.3671875 48.828125 c 0,35,-1
 341.30859375 48.828125 l 0,36,37
 363.76953125 48.828125 363.76953125 48.828125 379.150390625 52.24609375 c 0,38,39
 394.53125 55.6640625 394.53125 55.6640625 406.25 65.4296875 c 0,40,41
 417.96875 75.1953125 417.96875 75.1953125 427.490234375 92.7734375 c 0,42,43
 437.01171875 110.3515625 437.01171875 110.3515625 447.265625 139.16015625 c 0,44,-1
 473.14453125 128.90625 l 0,0,1
EndSplineSet
EndChar

StartChar: M
Encoding: 48 77 48
Width: 819
VWidth: 488
Flags: W
LayerCount: 2
Fore
SplineSet
770.5078125 589.35546875 m 0,0,1
 757.32421875 589.35546875 757.32421875 589.35546875 740.234375 584.9609375 c 0,2,3
 723.14453125 580.56640625 723.14453125 580.56640625 705.56640625 573.2421875 c 0,4,-1
 710.44921875 55.6640625 l 0,5,6
 710.44921875 49.8046875 710.44921875 49.8046875 728.271484375 41.259765625 c 0,7,8
 746.09375 32.71484375 746.09375 32.71484375 781.25 25.87890625 c 0,9,-1
 781.25 0 l 0,10,-1
 548.33984375 0 l 0,11,-1
 548.33984375 25.87890625 l 0,12,13
 581.54296875 32.71484375 581.54296875 32.71484375 602.05078125 40.771484375 c 0,14,15
 622.55859375 48.828125 622.55859375 48.828125 622.55859375 55.6640625 c 0,16,-1
 618.1640625 491.69921875 l 0,17,-1
 406.73828125 0 l 0,18,-1
 375.48828125 0 l 0,19,-1
 163.0859375 489.74609375 l 0,20,-1
 158.69140625 55.6640625 l 0,21,22
 158.69140625 49.8046875 158.69140625 49.8046875 176.025390625 41.259765625 c 0,23,24
 193.359375 32.71484375 193.359375 32.71484375 228.515625 25.87890625 c 0,25,-1
 228.515625 0 l 0,26,-1
 28.3203125 0 l 0,27,-1
 28.3203125 25.87890625 l 0,28,29
 62.01171875 32.71484375 62.01171875 32.71484375 79.833984375 40.771484375 c 0,30,31
 97.65625 48.828125 97.65625 48.828125 97.65625 55.6640625 c 0,32,-1
 102.5390625 570.80078125 l 0,33,34
 84.47265625 581.0546875 84.47265625 581.0546875 65.91796875 585.205078125 c 0,35,36
 47.36328125 589.35546875 47.36328125 589.35546875 33.203125 589.35546875 c 0,37,-1
 33.203125 615.234375 l 0,38,-1
 182.6171875 615.234375 l 0,39,40
 187.5 615.234375 187.5 615.234375 190.91796875 613.76953125 c 0,41,42
 194.3359375 612.3046875 194.3359375 612.3046875 197.75390625 607.91015625 c 0,43,44
 201.171875 603.515625 201.171875 603.515625 205.078125 595.458984375 c 0,45,46
 208.984375 587.40234375 208.984375 587.40234375 214.84375 574.21875 c 0,47,-1
 404.296875 145.01953125 l 0,48,-1
 589.84375 574.21875 l 0,49,50
 596.19140625 588.8671875 596.19140625 588.8671875 600.341796875 597.16796875 c 0,51,52
 604.4921875 605.46875 604.4921875 605.46875 607.666015625 609.375 c 0,53,54
 610.83984375 613.28125 610.83984375 613.28125 614.2578125 614.2578125 c 0,55,56
 617.67578125 615.234375 617.67578125 615.234375 622.0703125 615.234375 c 0,57,-1
 770.5078125 615.234375 l 0,58,-1
 770.5078125 589.35546875 l 0,0,1
EndSplineSet
EndChar

StartChar: N
Encoding: 49 78 49
Width: 653
VWidth: 488
Flags: W
LayerCount: 2
Fore
SplineSet
23.4375 0 m 0,0,-1
 23.4375 25.87890625 l 0,1,2
 59.5703125 30.2734375 59.5703125 30.2734375 76.171875 39.55078125 c 0,3,4
 92.7734375 48.828125 92.7734375 48.828125 92.7734375 55.6640625 c 0,5,-1
 92.7734375 555.6640625 l 0,6,7
 76.66015625 570.3125 76.66015625 570.3125 59.326171875 578.369140625 c 0,8,9
 41.9921875 586.42578125 41.9921875 586.42578125 23.4375 589.35546875 c 0,10,-1
 23.4375 615.234375 l 0,11,-1
 137.6953125 615.234375 l 0,12,13
 145.01953125 615.234375 145.01953125 615.234375 149.658203125 614.013671875 c 0,14,15
 154.296875 612.79296875 154.296875 612.79296875 159.1796875 608.88671875 c 0,16,17
 164.0625 604.98046875 164.0625 604.98046875 169.677734375 597.412109375 c 0,18,19
 175.29296875 589.84375 175.29296875 589.84375 184.5703125 577.1484375 c 0,20,-1
 498.046875 144.04296875 l 0,21,-1
 498.046875 559.08203125 l 0,22,23
 498.046875 562.01171875 498.046875 562.01171875 494.62890625 566.162109375 c 0,24,25
 491.2109375 570.3125 491.2109375 570.3125 483.154296875 574.462890625 c 0,26,27
 475.09765625 578.61328125 475.09765625 578.61328125 461.669921875 582.51953125 c 0,28,29
 448.2421875 586.42578125 448.2421875 586.42578125 428.7109375 589.35546875 c 0,30,-1
 428.7109375 615.234375 l 0,31,-1
 631.34765625 615.234375 l 0,32,-1
 631.34765625 589.35546875 l 0,33,34
 596.19140625 584.47265625 596.19140625 584.47265625 578.857421875 575.1953125 c 0,35,36
 561.5234375 565.91796875 561.5234375 565.91796875 561.5234375 559.08203125 c 0,37,-1
 561.5234375 -14.6484375 l 0,38,39
 529.78515625 -11.23046875 529.78515625 -11.23046875 510.986328125 -1.708984375 c 0,40,41
 492.1875 7.8125 492.1875 7.8125 483.88671875 19.04296875 c 0,42,-1
 156.25 473.14453125 l 0,43,-1
 156.25 55.6640625 l 0,44,45
 156.25 52.734375 156.25 52.734375 160.15625 48.583984375 c 0,46,47
 164.0625 44.43359375 164.0625 44.43359375 172.36328125 40.283203125 c 0,48,49
 180.6640625 36.1328125 180.6640625 36.1328125 193.84765625 32.2265625 c 0,50,51
 207.03125 28.3203125 207.03125 28.3203125 226.07421875 25.87890625 c 0,52,-1
 226.07421875 0 l 0,53,-1
 23.4375 0 l 0,0,-1
EndSplineSet
EndChar

StartChar: O
Encoding: 50 79 50
Width: 607
VWidth: 488
Flags: W
LayerCount: 2
Fore
SplineSet
565.4296875 315.91796875 m 0,0,1
 565.4296875 249.51171875 565.4296875 249.51171875 542.96875 189.697265625 c 0,2,3
 520.5078125 129.8828125 520.5078125 129.8828125 481.93359375 84.47265625 c 0,4,5
 443.359375 39.0625 443.359375 39.0625 392.578125 12.20703125 c 0,6,7
 341.796875 -14.6484375 341.796875 -14.6484375 284.66796875 -14.6484375 c 0,8,9
 224.609375 -14.6484375 224.609375 -14.6484375 177.734375 11.23046875 c 0,10,11
 130.859375 37.109375 130.859375 37.109375 98.388671875 80.56640625 c 0,12,13
 65.91796875 124.0234375 65.91796875 124.0234375 48.828125 180.6640625 c 0,14,15
 31.73828125 237.3046875 31.73828125 237.3046875 31.73828125 298.828125 c 0,16,17
 31.73828125 365.234375 31.73828125 365.234375 53.22265625 425.29296875 c 0,18,19
 74.70703125 485.3515625 74.70703125 485.3515625 112.548828125 530.76171875 c 0,20,21
 150.390625 576.171875 150.390625 576.171875 201.66015625 603.02734375 c 0,22,23
 252.9296875 629.8828125 252.9296875 629.8828125 312.98828125 629.8828125 c 0,24,25
 374.51171875 629.8828125 374.51171875 629.8828125 421.875 603.271484375 c 0,26,27
 469.23828125 576.66015625 469.23828125 576.66015625 500.9765625 532.71484375 c 0,28,29
 532.71484375 488.76953125 532.71484375 488.76953125 549.072265625 432.12890625 c 0,30,31
 565.4296875 375.48828125 565.4296875 375.48828125 565.4296875 315.91796875 c 0,0,1
474.12109375 307.12890625 m 0,32,33
 474.12109375 340.8203125 474.12109375 340.8203125 468.26171875 373.53515625 c 0,34,35
 462.40234375 406.25 462.40234375 406.25 451.416015625 435.546875 c 0,36,37
 440.4296875 464.84375 440.4296875 464.84375 424.8046875 489.74609375 c 0,38,39
 409.1796875 514.6484375 409.1796875 514.6484375 389.16015625 532.71484375 c 0,40,41
 369.140625 550.78125 369.140625 550.78125 345.458984375 561.03515625 c 0,42,43
 321.77734375 571.2890625 321.77734375 571.2890625 294.921875 571.2890625 c 0,44,45
 254.39453125 571.2890625 254.39453125 571.2890625 222.412109375 553.22265625 c 0,46,47
 190.4296875 535.15625 190.4296875 535.15625 168.45703125 501.708984375 c 0,48,49
 146.484375 468.26171875 146.484375 468.26171875 135.009765625 420.41015625 c 0,50,51
 123.53515625 372.55859375 123.53515625 372.55859375 123.53515625 312.98828125 c 0,52,53
 123.53515625 258.30078125 123.53515625 258.30078125 137.6953125 209.716796875 c 0,54,55
 151.85546875 161.1328125 151.85546875 161.1328125 176.025390625 125 c 0,56,57
 200.1953125 88.8671875 200.1953125 88.8671875 232.666015625 67.626953125 c 0,58,59
 265.13671875 46.38671875 265.13671875 46.38671875 301.26953125 46.38671875 c 0,60,61
 338.8671875 46.38671875 338.8671875 46.38671875 370.60546875 62.98828125 c 0,62,63
 402.34375 79.58984375 402.34375 79.58984375 425.29296875 112.3046875 c 0,64,65
 448.2421875 145.01953125 448.2421875 145.01953125 461.181640625 193.84765625 c 0,66,67
 474.12109375 242.67578125 474.12109375 242.67578125 474.12109375 307.12890625 c 0,32,33
EndSplineSet
EndChar

StartChar: P
Encoding: 51 80 51
Width: 537
VWidth: 488
Flags: W
LayerCount: 2
Fore
SplineSet
23.4375 0 m 0,0,-1
 23.4375 25.87890625 l 0,1,2
 56.640625 32.71484375 56.640625 32.71484375 74.70703125 40.771484375 c 0,3,4
 92.7734375 48.828125 92.7734375 48.828125 92.7734375 55.6640625 c 0,5,-1
 92.7734375 576.171875 l 0,6,7
 74.21875 573.73046875 74.21875 573.73046875 56.884765625 571.044921875 c 0,8,9
 39.55078125 568.359375 39.55078125 568.359375 23.4375 565.4296875 c 0,10,-1
 18.06640625 600.5859375 l 0,11,12
 42.48046875 606.93359375 42.48046875 606.93359375 71.77734375 612.3046875 c 0,13,14
 101.07421875 617.67578125 101.07421875 617.67578125 132.32421875 621.58203125 c 0,15,16
 163.57421875 625.48828125 163.57421875 625.48828125 195.80078125 627.685546875 c 0,17,18
 228.02734375 629.8828125 228.02734375 629.8828125 258.7890625 629.8828125 c 0,19,20
 312.98828125 629.8828125 312.98828125 629.8828125 356.689453125 618.65234375 c 0,21,22
 400.390625 607.421875 400.390625 607.421875 431.640625 585.44921875 c 0,23,24
 462.890625 563.4765625 462.890625 563.4765625 479.736328125 531.25 c 0,25,26
 496.58203125 499.0234375 496.58203125 499.0234375 496.58203125 457.03125 c 0,27,28
 496.58203125 423.33984375 496.58203125 423.33984375 487.060546875 395.5078125 c 0,29,30
 477.5390625 367.67578125 477.5390625 367.67578125 461.669921875 345.703125 c 0,31,32
 445.80078125 323.73046875 445.80078125 323.73046875 425.29296875 307.373046875 c 0,33,34
 404.78515625 291.015625 404.78515625 291.015625 382.32421875 280.2734375 c 0,35,36
 359.86328125 269.53125 359.86328125 269.53125 337.158203125 264.16015625 c 0,37,38
 314.453125 258.7890625 314.453125 258.7890625 294.43359375 258.7890625 c 0,39,40
 271.97265625 258.7890625 271.97265625 258.7890625 251.708984375 262.451171875 c 0,41,42
 231.4453125 266.11328125 231.4453125 266.11328125 214.84375 273.4375 c 0,43,-1
 202.1484375 314.94140625 l 0,44,45
 222.65625 305.6640625 222.65625 305.6640625 240.234375 302.978515625 c 0,46,47
 257.8125 300.29296875 257.8125 300.29296875 274.90234375 300.29296875 c 0,48,49
 296.875 300.29296875 296.875 300.29296875 320.068359375 308.837890625 c 0,50,51
 343.26171875 317.3828125 343.26171875 317.3828125 362.3046875 334.228515625 c 0,52,53
 381.34765625 351.07421875 381.34765625 351.07421875 393.310546875 376.708984375 c 0,54,55
 405.2734375 402.34375 405.2734375 402.34375 405.2734375 437.01171875 c 0,56,57
 405.2734375 475.09765625 405.2734375 475.09765625 391.845703125 503.173828125 c 0,58,59
 378.41796875 531.25 378.41796875 531.25 354.98046875 549.560546875 c 0,60,61
 331.54296875 567.87109375 331.54296875 567.87109375 299.560546875 576.66015625 c 0,62,63
 267.578125 585.44921875 267.578125 585.44921875 230.95703125 585.44921875 c 0,64,65
 208.0078125 585.44921875 208.0078125 585.44921875 185.546875 583.984375 c 0,66,-1
 185.546875 55.6640625 l 0,67,68
 185.546875 52.734375 185.546875 52.734375 189.208984375 49.31640625 c 0,69,70
 192.87109375 45.8984375 192.87109375 45.8984375 202.392578125 41.9921875 c 0,71,72
 211.9140625 38.0859375 211.9140625 38.0859375 228.271484375 34.1796875 c 0,73,74
 244.62890625 30.2734375 244.62890625 30.2734375 270.01953125 25.87890625 c 0,75,-1
 270.01953125 0 l 0,76,-1
 23.4375 0 l 0,0,-1
EndSplineSet
EndChar

StartChar: Q
Encoding: 52 81 52
Width: 607
VWidth: 488
Flags: W
LayerCount: 2
Fore
SplineSet
647.94921875 -58.59375 m 0,0,1
 636.23046875 -80.078125 636.23046875 -80.078125 623.53515625 -97.412109375 c 0,2,3
 610.83984375 -114.74609375 610.83984375 -114.74609375 598.6328125 -126.953125 c 0,4,5
 586.42578125 -139.16015625 586.42578125 -139.16015625 575.68359375 -145.99609375 c 0,6,7
 564.94140625 -152.83203125 564.94140625 -152.83203125 557.6171875 -152.83203125 c 0,8,9
 536.62109375 -152.83203125 536.62109375 -152.83203125 515.869140625 -145.751953125 c 0,10,11
 495.1171875 -138.671875 495.1171875 -138.671875 474.365234375 -126.953125 c 0,12,13
 453.61328125 -115.234375 453.61328125 -115.234375 432.861328125 -100.341796875 c 0,14,15
 412.109375 -85.44921875 412.109375 -85.44921875 391.357421875 -69.82421875 c 0,16,17
 370.60546875 -54.19921875 370.60546875 -54.19921875 349.853515625 -39.306640625 c 0,18,19
 329.1015625 -24.4140625 329.1015625 -24.4140625 308.59375 -13.18359375 c 0,20,21
 296.875 -14.6484375 296.875 -14.6484375 284.66796875 -14.6484375 c 0,22,23
 228.515625 -14.6484375 228.515625 -14.6484375 182.12890625 10.498046875 c 0,24,25
 135.7421875 35.64453125 135.7421875 35.64453125 102.294921875 78.369140625 c 0,26,27
 68.84765625 121.09375 68.84765625 121.09375 50.29296875 177.978515625 c 0,28,29
 31.73828125 234.86328125 31.73828125 234.86328125 31.73828125 298.828125 c 0,30,31
 31.73828125 365.234375 31.73828125 365.234375 53.22265625 425.29296875 c 0,32,33
 74.70703125 485.3515625 74.70703125 485.3515625 112.548828125 530.76171875 c 0,34,35
 150.390625 576.171875 150.390625 576.171875 201.66015625 603.02734375 c 0,36,37
 252.9296875 629.8828125 252.9296875 629.8828125 312.98828125 629.8828125 c 0,38,39
 374.51171875 629.8828125 374.51171875 629.8828125 421.875 603.271484375 c 0,40,41
 469.23828125 576.66015625 469.23828125 576.66015625 500.9765625 532.71484375 c 0,42,43
 532.71484375 488.76953125 532.71484375 488.76953125 549.072265625 432.12890625 c 0,44,45
 565.4296875 375.48828125 565.4296875 375.48828125 565.4296875 315.91796875 c 0,46,47
 565.4296875 264.6484375 565.4296875 264.6484375 551.7578125 217.28515625 c 0,48,49
 538.0859375 169.921875 538.0859375 169.921875 513.916015625 129.638671875 c 0,50,51
 489.74609375 89.35546875 489.74609375 89.35546875 456.787109375 58.10546875 c 0,52,53
 423.828125 26.85546875 423.828125 26.85546875 384.765625 8.30078125 c 0,54,55
 408.69140625 -2.9296875 408.69140625 -2.9296875 431.884765625 -16.845703125 c 0,56,57
 455.078125 -30.76171875 455.078125 -30.76171875 477.294921875 -43.45703125 c 0,58,59
 499.51171875 -56.15234375 499.51171875 -56.15234375 520.5078125 -64.697265625 c 0,60,61
 541.50390625 -73.2421875 541.50390625 -73.2421875 560.546875 -73.2421875 c 0,62,63
 566.40625 -73.2421875 566.40625 -73.2421875 572.998046875 -71.533203125 c 0,64,65
 579.58984375 -69.82421875 579.58984375 -69.82421875 587.646484375 -65.673828125 c 0,66,67
 595.703125 -61.5234375 595.703125 -61.5234375 606.201171875 -54.443359375 c 0,68,69
 616.69921875 -47.36328125 616.69921875 -47.36328125 631.34765625 -36.62109375 c 0,70,-1
 647.94921875 -58.59375 l 0,0,1
474.12109375 307.12890625 m 0,71,72
 474.12109375 340.8203125 474.12109375 340.8203125 468.26171875 373.53515625 c 0,73,74
 462.40234375 406.25 462.40234375 406.25 451.416015625 435.546875 c 0,75,76
 440.4296875 464.84375 440.4296875 464.84375 424.8046875 489.74609375 c 0,77,78
 409.1796875 514.6484375 409.1796875 514.6484375 389.16015625 532.71484375 c 0,79,80
 369.140625 550.78125 369.140625 550.78125 345.458984375 561.03515625 c 0,81,82
 321.77734375 571.2890625 321.77734375 571.2890625 294.921875 571.2890625 c 0,83,84
 254.39453125 571.2890625 254.39453125 571.2890625 222.412109375 553.22265625 c 0,85,86
 190.4296875 535.15625 190.4296875 535.15625 168.45703125 501.708984375 c 0,87,88
 146.484375 468.26171875 146.484375 468.26171875 135.009765625 420.41015625 c 0,89,90
 123.53515625 372.55859375 123.53515625 372.55859375 123.53515625 312.98828125 c 0,91,92
 123.53515625 258.30078125 123.53515625 258.30078125 137.6953125 209.716796875 c 0,93,94
 151.85546875 161.1328125 151.85546875 161.1328125 176.025390625 125 c 0,95,96
 200.1953125 88.8671875 200.1953125 88.8671875 232.666015625 67.626953125 c 0,97,98
 265.13671875 46.38671875 265.13671875 46.38671875 301.26953125 46.38671875 c 0,99,100
 338.8671875 46.38671875 338.8671875 46.38671875 370.60546875 62.98828125 c 0,101,102
 402.34375 79.58984375 402.34375 79.58984375 425.29296875 112.3046875 c 0,103,104
 448.2421875 145.01953125 448.2421875 145.01953125 461.181640625 193.84765625 c 0,105,106
 474.12109375 242.67578125 474.12109375 242.67578125 474.12109375 307.12890625 c 0,71,72
EndSplineSet
EndChar

StartChar: R
Encoding: 53 82 53
Width: 575
VWidth: 488
Flags: W
LayerCount: 2
Fore
SplineSet
23.4375 0 m 0,0,-1
 23.4375 25.87890625 l 0,1,2
 56.640625 32.71484375 56.640625 32.71484375 74.70703125 40.771484375 c 0,3,4
 92.7734375 48.828125 92.7734375 48.828125 92.7734375 55.6640625 c 0,5,-1
 92.7734375 575.1953125 l 0,6,7
 75.1953125 572.75390625 75.1953125 572.75390625 57.861328125 570.3125 c 0,8,9
 40.52734375 567.87109375 40.52734375 567.87109375 23.4375 565.4296875 c 0,10,-1
 18.06640625 600.5859375 l 0,11,12
 41.9921875 606.4453125 41.9921875 606.4453125 66.89453125 611.572265625 c 0,13,14
 91.796875 616.69921875 91.796875 616.69921875 118.896484375 620.849609375 c 0,15,16
 145.99609375 625 145.99609375 625 175.78125 627.44140625 c 0,17,18
 205.56640625 629.8828125 205.56640625 629.8828125 238.76953125 629.8828125 c 0,19,20
 298.828125 629.8828125 298.828125 629.8828125 342.28515625 618.65234375 c 0,21,22
 385.7421875 607.421875 385.7421875 607.421875 414.0625 587.40234375 c 0,23,24
 442.3828125 567.3828125 442.3828125 567.3828125 456.0546875 540.283203125 c 0,25,26
 469.7265625 513.18359375 469.7265625 513.18359375 469.7265625 481.93359375 c 0,27,28
 469.7265625 447.265625 469.7265625 447.265625 459.716796875 418.9453125 c 0,29,30
 449.70703125 390.625 449.70703125 390.625 431.640625 368.1640625 c 0,31,32
 413.57421875 345.703125 413.57421875 345.703125 388.18359375 329.58984375 c 0,33,34
 362.79296875 313.4765625 362.79296875 313.4765625 332.51953125 304.19921875 c 0,35,-1
 482.421875 75.1953125 l 0,36,37
 489.74609375 64.94140625 489.74609375 64.94140625 497.802734375 58.59375 c 0,38,39
 505.859375 52.24609375 505.859375 52.24609375 515.869140625 49.072265625 c 0,40,41
 525.87890625 45.8984375 525.87890625 45.8984375 538.330078125 45.41015625 c 0,42,43
 550.78125 44.921875 550.78125 44.921875 567.3828125 46.38671875 c 0,44,-1
 573.2421875 20.5078125 l 0,45,46
 557.12890625 15.13671875 557.12890625 15.13671875 540.0390625 10.25390625 c 0,47,48
 522.94921875 5.37109375 522.94921875 5.37109375 507.080078125 1.46484375 c 0,49,50
 491.2109375 -2.44140625 491.2109375 -2.44140625 477.294921875 -4.638671875 c 0,51,52
 463.37890625 -6.8359375 463.37890625 -6.8359375 454.1015625 -6.8359375 c 0,53,54
 439.94140625 -6.8359375 439.94140625 -6.8359375 426.513671875 0.9765625 c 0,55,56
 413.0859375 8.7890625 413.0859375 8.7890625 406.25 20.01953125 c 0,57,-1
 261.23046875 291.50390625 l 0,58,59
 255.37109375 291.015625 255.37109375 291.015625 249.267578125 290.771484375 c 0,60,61
 243.1640625 290.52734375 243.1640625 290.52734375 237.3046875 290.52734375 c 0,62,63
 224.609375 290.52734375 224.609375 290.52734375 211.9140625 291.748046875 c 0,64,65
 199.21875 292.96875 199.21875 292.96875 185.546875 295.8984375 c 0,66,-1
 185.546875 55.6640625 l 0,67,68
 185.546875 49.8046875 185.546875 49.8046875 202.63671875 41.259765625 c 0,69,70
 219.7265625 32.71484375 219.7265625 32.71484375 255.37109375 25.87890625 c 0,71,-1
 255.37109375 0 l 0,72,-1
 23.4375 0 l 0,0,-1
219.7265625 585.44921875 m 0,73,74
 211.42578125 585.44921875 211.42578125 585.44921875 202.880859375 585.205078125 c 0,75,76
 194.3359375 584.9609375 194.3359375 584.9609375 185.546875 584.47265625 c 0,77,-1
 185.546875 339.84375 l 0,78,79
 198.73046875 337.40234375 198.73046875 337.40234375 208.49609375 336.9140625 c 0,80,81
 218.26171875 336.42578125 218.26171875 336.42578125 229.00390625 336.42578125 c 0,82,83
 302.734375 336.42578125 302.734375 336.42578125 340.576171875 370.1171875 c 0,84,85
 378.41796875 403.80859375 378.41796875 403.80859375 378.41796875 466.796875 c 0,86,87
 378.41796875 492.1875 378.41796875 492.1875 369.873046875 513.916015625 c 0,88,89
 361.328125 535.64453125 361.328125 535.64453125 342.28515625 551.513671875 c 0,90,91
 323.2421875 567.3828125 323.2421875 567.3828125 292.96875 576.416015625 c 0,92,93
 262.6953125 585.44921875 262.6953125 585.44921875 219.7265625 585.44921875 c 0,73,74
EndSplineSet
EndChar

StartChar: S
Encoding: 54 83 54
Width: 488
VWidth: 488
Flags: W
LayerCount: 2
Fore
SplineSet
445.80078125 184.08203125 m 0,0,1
 445.80078125 162.109375 445.80078125 162.109375 439.697265625 139.16015625 c 0,2,3
 433.59375 116.2109375 433.59375 116.2109375 421.142578125 93.994140625 c 0,4,5
 408.69140625 71.77734375 408.69140625 71.77734375 390.13671875 52.001953125 c 0,6,7
 371.58203125 32.2265625 371.58203125 32.2265625 346.435546875 17.578125 c 0,8,9
 321.2890625 2.9296875 321.2890625 2.9296875 289.794921875 -5.859375 c 0,10,11
 258.30078125 -14.6484375 258.30078125 -14.6484375 219.7265625 -14.6484375 c 0,12,13
 203.125 -14.6484375 203.125 -14.6484375 182.861328125 -11.23046875 c 0,14,15
 162.59765625 -7.8125 162.59765625 -7.8125 141.357421875 -1.708984375 c 0,16,17
 120.1171875 4.39453125 120.1171875 4.39453125 99.365234375 13.18359375 c 0,18,19
 78.61328125 21.97265625 78.61328125 21.97265625 61.5234375 33.203125 c 0,20,21
 58.10546875 35.15625 58.10546875 35.15625 56.396484375 50.78125 c 0,22,23
 54.6875 66.40625 54.6875 66.40625 54.6875 87.40234375 c 0,24,25
 54.6875 108.3984375 54.6875 108.3984375 56.640625 130.615234375 c 0,26,27
 58.59375 152.83203125 58.59375 152.83203125 62.98828125 167.96875 c 0,28,-1
 87.890625 165.52734375 l 0,29,30
 99.12109375 136.71875 99.12109375 136.71875 115.72265625 114.74609375 c 0,31,32
 132.32421875 92.7734375 132.32421875 92.7734375 152.587890625 77.880859375 c 0,33,34
 172.8515625 62.98828125 172.8515625 62.98828125 196.2890625 55.419921875 c 0,35,36
 219.7265625 47.8515625 219.7265625 47.8515625 244.62890625 47.8515625 c 0,37,38
 266.6015625 47.8515625 266.6015625 47.8515625 288.0859375 55.908203125 c 0,39,40
 309.5703125 63.96484375 309.5703125 63.96484375 326.904296875 78.369140625 c 0,41,42
 344.23828125 92.7734375 344.23828125 92.7734375 354.736328125 112.548828125 c 0,43,44
 365.234375 132.32421875 365.234375 132.32421875 365.234375 155.76171875 c 0,45,46
 365.234375 185.546875 365.234375 185.546875 352.05078125 207.03125 c 0,47,48
 338.8671875 228.515625 338.8671875 228.515625 317.3828125 245.361328125 c 0,49,50
 295.8984375 262.20703125 295.8984375 262.20703125 268.5546875 275.634765625 c 0,51,52
 241.2109375 289.0625 241.2109375 289.0625 212.40234375 302.24609375 c 0,53,54
 183.59375 315.4296875 183.59375 315.4296875 156.25 330.322265625 c 0,55,56
 128.90625 345.21484375 128.90625 345.21484375 107.421875 364.501953125 c 0,57,58
 85.9375 383.7890625 85.9375 383.7890625 72.75390625 409.66796875 c 0,59,60
 59.5703125 435.546875 59.5703125 435.546875 59.5703125 471.19140625 c 0,61,62
 59.5703125 494.140625 59.5703125 494.140625 70.80078125 521.728515625 c 0,63,64
 82.03125 549.31640625 82.03125 549.31640625 106.4453125 573.486328125 c 0,65,66
 130.859375 597.65625 130.859375 597.65625 169.677734375 613.76953125 c 0,67,68
 208.49609375 629.8828125 208.49609375 629.8828125 264.16015625 629.8828125 c 0,69,70
 287.59765625 629.8828125 287.59765625 629.8828125 311.03515625 626.46484375 c 0,71,72
 334.47265625 623.046875 334.47265625 623.046875 354.4921875 617.1875 c 0,73,74
 374.51171875 611.328125 374.51171875 611.328125 390.625 603.02734375 c 0,75,76
 406.73828125 594.7265625 406.73828125 594.7265625 415.52734375 584.9609375 c 0,77,78
 418.9453125 582.03125 418.9453125 582.03125 415.52734375 572.021484375 c 0,79,80
 412.109375 562.01171875 412.109375 562.01171875 405.2734375 550.048828125 c 0,81,82
 398.4375 538.0859375 398.4375 538.0859375 390.13671875 526.85546875 c 0,83,84
 381.8359375 515.625 381.8359375 515.625 375.9765625 510.25390625 c 0,85,-1
 353.515625 513.18359375 l 0,86,87
 340.8203125 531.25 340.8203125 531.25 326.171875 543.9453125 c 0,88,89
 311.5234375 556.640625 311.5234375 556.640625 296.38671875 564.208984375 c 0,90,91
 281.25 571.77734375 281.25 571.77734375 265.869140625 575.1953125 c 0,92,93
 250.48828125 578.61328125 250.48828125 578.61328125 236.81640625 578.61328125 c 0,94,95
 210.44921875 578.61328125 210.44921875 578.61328125 191.89453125 571.044921875 c 0,96,97
 173.33984375 563.4765625 173.33984375 563.4765625 161.1328125 551.513671875 c 0,98,99
 148.92578125 539.55078125 148.92578125 539.55078125 143.310546875 524.90234375 c 0,100,101
 137.6953125 510.25390625 137.6953125 510.25390625 137.6953125 496.58203125 c 0,102,103
 137.6953125 473.6328125 137.6953125 473.6328125 150.87890625 455.810546875 c 0,104,105
 164.0625 437.98828125 164.0625 437.98828125 185.791015625 423.095703125 c 0,106,107
 207.51953125 408.203125 207.51953125 408.203125 235.107421875 394.53125 c 0,108,109
 262.6953125 380.859375 262.6953125 380.859375 291.748046875 366.455078125 c 0,110,111
 320.80078125 352.05078125 320.80078125 352.05078125 348.388671875 335.205078125 c 0,112,113
 375.9765625 318.359375 375.9765625 318.359375 397.705078125 296.875 c 0,114,115
 419.43359375 275.390625 419.43359375 275.390625 432.6171875 247.802734375 c 0,116,117
 445.80078125 220.21484375 445.80078125 220.21484375 445.80078125 184.08203125 c 0,0,1
EndSplineSet
EndChar

StartChar: T
Encoding: 55 84 55
Width: 560
VWidth: 488
Flags: W
LayerCount: 2
Fore
SplineSet
148.92578125 0 m 0,0,-1
 148.92578125 25.87890625 l 0,1,2
 171.38671875 30.2734375 171.38671875 30.2734375 186.5234375 35.15625 c 0,3,4
 201.66015625 40.0390625 201.66015625 40.0390625 210.693359375 44.677734375 c 0,5,6
 219.7265625 49.31640625 219.7265625 49.31640625 223.6328125 53.466796875 c 0,7,8
 227.5390625 57.6171875 227.5390625 57.6171875 227.5390625 61.03515625 c 0,9,-1
 227.5390625 566.40625 l 0,10,-1
 88.8671875 566.40625 l 0,11,12
 81.54296875 566.40625 81.54296875 566.40625 75.439453125 562.98828125 c 0,13,14
 69.3359375 559.5703125 69.3359375 559.5703125 62.744140625 549.560546875 c 0,15,16
 56.15234375 539.55078125 56.15234375 539.55078125 48.33984375 521.728515625 c 0,17,18
 40.52734375 503.90625 40.52734375 503.90625 29.78515625 475.5859375 c 0,19,-1
 3.90625 485.83984375 l 0,20,21
 4.8828125 500 4.8828125 500 6.8359375 517.333984375 c 0,22,23
 8.7890625 534.66796875 8.7890625 534.66796875 10.986328125 552.001953125 c 0,24,25
 13.18359375 569.3359375 13.18359375 569.3359375 15.869140625 585.9375 c 0,26,27
 18.5546875 602.5390625 18.5546875 602.5390625 20.99609375 615.234375 c 0,28,-1
 523.92578125 615.234375 l 0,29,-1
 540.0390625 602.05078125 l 0,30,31
 539.55078125 589.35546875 539.55078125 589.35546875 538.0859375 574.462890625 c 0,32,33
 536.62109375 559.5703125 536.62109375 559.5703125 534.423828125 543.212890625 c 0,34,35
 532.2265625 526.85546875 532.2265625 526.85546875 529.541015625 510.25390625 c 0,36,37
 526.85546875 493.65234375 526.85546875 493.65234375 523.92578125 478.515625 c 0,38,-1
 497.0703125 478.515625 l 0,39,40
 492.1875 500.9765625 492.1875 500.9765625 488.76953125 517.578125 c 0,41,42
 485.3515625 534.1796875 485.3515625 534.1796875 480.95703125 545.166015625 c 0,43,44
 476.5625 556.15234375 476.5625 556.15234375 469.970703125 561.279296875 c 0,45,46
 463.37890625 566.40625 463.37890625 566.40625 453.125 566.40625 c 0,47,-1
 320.3125 566.40625 l 0,48,-1
 320.3125 61.03515625 l 0,49,50
 320.3125 58.10546875 320.3125 58.10546875 324.21875 53.955078125 c 0,51,52
 328.125 49.8046875 328.125 49.8046875 337.40234375 44.921875 c 0,53,54
 346.6796875 40.0390625 346.6796875 40.0390625 361.81640625 35.15625 c 0,55,56
 376.953125 30.2734375 376.953125 30.2734375 399.4140625 25.87890625 c 0,57,-1
 399.4140625 0 l 0,58,-1
 148.92578125 0 l 0,0,-1
EndSplineSet
EndChar

StartChar: U
Encoding: 56 85 56
Width: 658
VWidth: 488
Flags: W
LayerCount: 2
Fore
SplineSet
628.90625 589.35546875 m 0,0,1
 595.703125 582.51953125 595.703125 582.51953125 577.392578125 574.21875 c 0,2,3
 559.08203125 565.91796875 559.08203125 565.91796875 559.08203125 559.08203125 c 0,4,-1
 559.08203125 255.859375 l 0,5,6
 559.08203125 191.89453125 559.08203125 191.89453125 542.724609375 141.6015625 c 0,7,8
 526.3671875 91.30859375 526.3671875 91.30859375 496.09375 56.640625 c 0,9,10
 465.8203125 21.97265625 465.8203125 21.97265625 423.095703125 3.662109375 c 0,11,12
 380.37109375 -14.6484375 380.37109375 -14.6484375 327.63671875 -14.6484375 c 0,13,14
 277.34375 -14.6484375 277.34375 -14.6484375 234.375 -0.732421875 c 0,15,16
 191.40625 13.18359375 191.40625 13.18359375 159.912109375 41.748046875 c 0,17,18
 128.41796875 70.3125 128.41796875 70.3125 110.595703125 113.76953125 c 0,19,20
 92.7734375 157.2265625 92.7734375 157.2265625 92.7734375 216.796875 c 0,21,-1
 92.7734375 559.08203125 l 0,22,23
 92.7734375 564.94140625 92.7734375 564.94140625 75.68359375 573.73046875 c 0,24,25
 58.59375 582.51953125 58.59375 582.51953125 23.4375 589.35546875 c 0,26,-1
 23.4375 615.234375 l 0,27,-1
 255.37109375 615.234375 l 0,28,-1
 255.37109375 589.35546875 l 0,29,30
 222.16796875 582.51953125 222.16796875 582.51953125 203.857421875 574.21875 c 0,31,32
 185.546875 565.91796875 185.546875 565.91796875 185.546875 559.08203125 c 0,33,-1
 185.546875 243.65234375 l 0,34,35
 185.546875 149.90234375 185.546875 149.90234375 226.318359375 98.14453125 c 0,36,37
 267.08984375 46.38671875 267.08984375 46.38671875 350.5859375 46.38671875 c 0,38,39
 385.25390625 46.38671875 385.25390625 46.38671875 411.1328125 62.744140625 c 0,40,41
 437.01171875 79.1015625 437.01171875 79.1015625 454.1015625 105.95703125 c 0,42,43
 471.19140625 132.8125 471.19140625 132.8125 479.736328125 167.48046875 c 0,44,45
 488.28125 202.1484375 488.28125 202.1484375 488.28125 238.28125 c 0,46,-1
 488.28125 559.08203125 l 0,47,48
 488.28125 564.94140625 488.28125 564.94140625 471.19140625 573.73046875 c 0,49,50
 454.1015625 582.51953125 454.1015625 582.51953125 418.9453125 589.35546875 c 0,51,-1
 418.9453125 615.234375 l 0,52,-1
 628.90625 615.234375 l 0,53,-1
 628.90625 589.35546875 l 0,0,1
EndSplineSet
EndChar

StartChar: V
Encoding: 57 86 57
Width: 654
VWidth: 488
Flags: W
LayerCount: 2
Fore
SplineSet
636.23046875 589.35546875 m 0,0,1
 603.02734375 583.0078125 603.02734375 583.0078125 584.228515625 576.904296875 c 0,2,3
 565.4296875 570.80078125 565.4296875 570.80078125 560.546875 557.12890625 c 0,4,-1
 374.51171875 32.71484375 l 0,5,6
 370.60546875 21.97265625 370.60546875 21.97265625 360.595703125 13.916015625 c 0,7,8
 350.5859375 5.859375 350.5859375 5.859375 338.623046875 0 c 0,9,10
 326.66015625 -5.859375 326.66015625 -5.859375 314.453125 -9.27734375 c 0,11,12
 302.24609375 -12.6953125 302.24609375 -12.6953125 293.9453125 -14.6484375 c 0,13,-1
 76.66015625 557.12890625 l 0,14,15
 71.77734375 569.82421875 71.77734375 569.82421875 55.6640625 577.63671875 c 0,16,17
 39.55078125 585.44921875 39.55078125 585.44921875 8.7890625 589.35546875 c 0,18,-1
 8.7890625 615.234375 l 0,19,-1
 233.3984375 615.234375 l 0,20,-1
 233.3984375 589.35546875 l 0,21,22
 194.3359375 586.42578125 194.3359375 586.42578125 180.419921875 579.345703125 c 0,23,24
 166.50390625 572.265625 166.50390625 572.265625 171.875 558.10546875 c 0,25,-1
 339.84375 112.79296875 l 0,26,-1
 497.55859375 557.12890625 l 0,27,28
 502.9296875 571.2890625 502.9296875 571.2890625 486.81640625 577.880859375 c 0,29,30
 470.703125 584.47265625 470.703125 584.47265625 430.6640625 589.35546875 c 0,31,-1
 430.6640625 615.234375 l 0,32,-1
 636.23046875 615.234375 l 0,33,-1
 636.23046875 589.35546875 l 0,0,1
EndSplineSet
EndChar

StartChar: W
Encoding: 58 87 58
Width: 850
VWidth: 488
Flags: W
LayerCount: 2
Fore
SplineSet
835.9375 589.35546875 m 0,0,1
 814.453125 584.9609375 814.453125 584.9609375 800.29296875 581.0546875 c 0,2,3
 786.1328125 577.1484375 786.1328125 577.1484375 777.83203125 573.486328125 c 0,4,5
 769.53125 569.82421875 769.53125 569.82421875 765.869140625 566.40625 c 0,6,7
 762.20703125 562.98828125 762.20703125 562.98828125 761.71875 559.08203125 c 0,8,-1
 649.90234375 28.80859375 l 0,9,10
 647.4609375 18.5546875 647.4609375 18.5546875 639.404296875 10.986328125 c 0,11,12
 631.34765625 3.41796875 631.34765625 3.41796875 620.849609375 -1.708984375 c 0,13,14
 610.3515625 -6.8359375 610.3515625 -6.8359375 599.365234375 -10.009765625 c 0,15,16
 588.37890625 -13.18359375 588.37890625 -13.18359375 581.0546875 -14.6484375 c 0,17,-1
 419.43359375 450.1953125 l 0,18,-1
 279.296875 28.80859375 l 0,19,20
 275.87890625 18.5546875 275.87890625 18.5546875 267.333984375 11.23046875 c 0,21,22
 258.7890625 3.90625 258.7890625 3.90625 248.046875 -1.220703125 c 0,23,24
 237.3046875 -6.34765625 237.3046875 -6.34765625 225.5859375 -9.521484375 c 0,25,26
 213.8671875 -12.6953125 213.8671875 -12.6953125 204.1015625 -14.6484375 c 0,27,-1
 77.1484375 555.17578125 l 0,28,29
 74.70703125 567.3828125 74.70703125 567.3828125 59.5703125 575.1953125 c 0,30,31
 44.43359375 583.0078125 44.43359375 583.0078125 9.765625 589.35546875 c 0,32,-1
 9.765625 615.234375 l 0,33,-1
 229.00390625 615.234375 l 0,34,-1
 229.00390625 589.35546875 l 0,35,36
 205.078125 586.9140625 205.078125 586.9140625 191.650390625 583.251953125 c 0,37,38
 178.22265625 579.58984375 178.22265625 579.58984375 171.630859375 575.1953125 c 0,39,40
 165.0390625 570.80078125 165.0390625 570.80078125 164.0625 565.673828125 c 0,41,42
 163.0859375 560.546875 163.0859375 560.546875 164.0625 555.17578125 c 0,43,-1
 256.34765625 144.04296875 l 0,44,-1
 409.66796875 615.234375 l 0,45,-1
 443.84765625 615.234375 l 0,46,-1
 613.28125 144.04296875 l 0,47,-1
 700.68359375 559.08203125 l 0,48,49
 701.66015625 564.94140625 701.66015625 564.94140625 696.2890625 569.3359375 c 0,50,51
 690.91796875 573.73046875 690.91796875 573.73046875 680.6640625 577.1484375 c 0,52,53
 670.41015625 580.56640625 670.41015625 580.56640625 656.25 583.49609375 c 0,54,55
 642.08984375 586.42578125 642.08984375 586.42578125 625.48828125 589.35546875 c 0,56,-1
 625.48828125 615.234375 l 0,57,-1
 835.9375 615.234375 l 0,58,-1
 835.9375 589.35546875 l 0,0,1
EndSplineSet
EndChar

StartChar: X
Encoding: 59 88 59
Width: 620
VWidth: 488
Flags: W
LayerCount: 2
Fore
SplineSet
372.55859375 0 m 0,0,-1
 372.55859375 25.87890625 l 0,1,2
 394.04296875 27.83203125 394.04296875 27.83203125 407.2265625 31.005859375 c 0,3,4
 420.41015625 34.1796875 420.41015625 34.1796875 426.26953125 38.818359375 c 0,5,6
 432.12890625 43.45703125 432.12890625 43.45703125 431.396484375 50.29296875 c 0,7,8
 430.6640625 57.12890625 430.6640625 57.12890625 423.828125 66.89453125 c 0,9,-1
 294.921875 255.37109375 l 0,10,-1
 175.78125 66.89453125 l 0,11,12
 161.62109375 45.41015625 161.62109375 45.41015625 175.29296875 37.109375 c 0,13,14
 188.96484375 28.80859375 188.96484375 28.80859375 233.88671875 25.87890625 c 0,15,-1
 233.88671875 0 l 0,16,-1
 14.16015625 0 l 0,17,-1
 14.16015625 25.87890625 l 0,18,19
 45.8984375 28.3203125 45.8984375 28.3203125 68.115234375 37.59765625 c 0,20,21
 90.33203125 46.875 90.33203125 46.875 103.02734375 66.89453125 c 0,22,-1
 256.34765625 312.01171875 l 0,23,-1
 95.21484375 548.33984375 l 0,24,25
 87.890625 559.08203125 87.890625 559.08203125 81.0546875 565.91796875 c 0,26,27
 74.21875 572.75390625 74.21875 572.75390625 65.673828125 577.1484375 c 0,28,29
 57.12890625 581.54296875 57.12890625 581.54296875 46.142578125 584.228515625 c 0,30,31
 35.15625 586.9140625 35.15625 586.9140625 19.04296875 589.35546875 c 0,32,-1
 19.04296875 615.234375 l 0,33,-1
 253.90625 615.234375 l 0,34,-1
 253.90625 589.35546875 l 0,35,36
 212.40234375 585.44921875 212.40234375 585.44921875 199.70703125 577.392578125 c 0,37,38
 187.01171875 569.3359375 187.01171875 569.3359375 201.66015625 548.33984375 c 0,39,-1
 315.91796875 380.859375 l 0,40,-1
 420.41015625 548.33984375 l 0,41,42
 427.24609375 559.5703125 427.24609375 559.5703125 427.001953125 566.650390625 c 0,43,44
 426.7578125 573.73046875 426.7578125 573.73046875 419.43359375 578.369140625 c 0,45,46
 412.109375 583.0078125 412.109375 583.0078125 397.705078125 585.44921875 c 0,47,48
 383.30078125 587.890625 383.30078125 587.890625 361.328125 589.35546875 c 0,49,-1
 361.328125 615.234375 l 0,50,-1
 582.51953125 615.234375 l 0,51,-1
 582.51953125 589.35546875 l 0,52,53
 564.94140625 587.40234375 564.94140625 587.40234375 551.025390625 584.716796875 c 0,54,55
 537.109375 582.03125 537.109375 582.03125 526.3671875 577.392578125 c 0,56,57
 515.625 572.75390625 515.625 572.75390625 507.568359375 565.673828125 c 0,58,59
 499.51171875 558.59375 499.51171875 558.59375 493.1640625 548.33984375 c 0,60,-1
 353.515625 325.68359375 l 0,61,-1
 530.2734375 66.89453125 l 0,62,63
 537.59765625 56.640625 537.59765625 56.640625 544.921875 49.560546875 c 0,64,65
 552.24609375 42.48046875 552.24609375 42.48046875 561.279296875 37.841796875 c 0,66,67
 570.3125 33.203125 570.3125 33.203125 581.298828125 30.517578125 c 0,68,69
 592.28515625 27.83203125 592.28515625 27.83203125 606.4453125 25.87890625 c 0,70,-1
 606.4453125 0 l 0,71,-1
 372.55859375 0 l 0,0,-1
EndSplineSet
EndChar

StartChar: Y
Encoding: 60 89 60
Width: 600
VWidth: 488
Flags: W
LayerCount: 2
Fore
SplineSet
173.33984375 0 m 0,0,-1
 173.33984375 25.87890625 l 0,1,2
 217.7734375 35.15625 217.7734375 35.15625 235.107421875 44.677734375 c 0,3,4
 252.44140625 54.19921875 252.44140625 54.19921875 252.44140625 61.03515625 c 0,5,-1
 252.44140625 261.23046875 l 0,6,7
 234.375 300.78125 234.375 300.78125 211.9140625 343.017578125 c 0,8,9
 189.453125 385.25390625 189.453125 385.25390625 166.015625 425.29296875 c 0,10,11
 142.578125 465.33203125 142.578125 465.33203125 120.361328125 499.51171875 c 0,12,13
 98.14453125 533.69140625 98.14453125 533.69140625 81.0546875 557.12890625 c 0,14,15
 76.66015625 562.5 76.66015625 562.5 71.2890625 567.138671875 c 0,16,17
 65.91796875 571.77734375 65.91796875 571.77734375 57.373046875 575.439453125 c 0,18,19
 48.828125 579.1015625 48.828125 579.1015625 35.64453125 581.0546875 c 0,20,21
 22.4609375 583.0078125 22.4609375 583.0078125 1.953125 583.0078125 c 0,22,-1
 0 608.88671875 l 0,23,24
 14.16015625 610.83984375 14.16015625 610.83984375 30.029296875 612.79296875 c 0,25,26
 45.8984375 614.74609375 45.8984375 614.74609375 61.279296875 616.455078125 c 0,27,28
 76.66015625 618.1640625 76.66015625 618.1640625 90.33203125 619.140625 c 0,29,30
 104.00390625 620.1171875 104.00390625 620.1171875 114.2578125 620.1171875 c 0,31,32
 125.9765625 620.1171875 125.9765625 620.1171875 136.962890625 614.990234375 c 0,33,34
 147.94921875 609.86328125 147.94921875 609.86328125 156.25 600.09765625 c 0,35,36
 174.31640625 576.171875 174.31640625 576.171875 194.82421875 544.43359375 c 0,37,38
 215.33203125 512.6953125 215.33203125 512.6953125 236.083984375 477.294921875 c 0,39,40
 256.8359375 441.89453125 256.8359375 441.89453125 276.611328125 404.541015625 c 0,41,42
 296.38671875 367.1875 296.38671875 367.1875 313.4765625 332.03125 c 0,43,-1
 438.96484375 557.12890625 l 0,44,45
 446.2890625 569.82421875 446.2890625 569.82421875 434.326171875 577.1484375 c 0,46,47
 422.36328125 584.47265625 422.36328125 584.47265625 384.765625 589.35546875 c 0,48,-1
 384.765625 615.234375 l 0,49,-1
 581.54296875 615.234375 l 0,50,-1
 581.54296875 589.35546875 l 0,51,52
 548.33984375 583.0078125 548.33984375 583.0078125 531.005859375 576.171875 c 0,53,54
 513.671875 569.3359375 513.671875 569.3359375 506.8359375 557.12890625 c 0,55,-1
 345.21484375 261.71875 l 0,56,-1
 345.21484375 61.03515625 l 0,57,58
 345.21484375 58.10546875 345.21484375 58.10546875 349.12109375 53.955078125 c 0,59,60
 353.02734375 49.8046875 353.02734375 49.8046875 362.060546875 44.921875 c 0,61,62
 371.09375 40.0390625 371.09375 40.0390625 386.474609375 35.15625 c 0,63,64
 401.85546875 30.2734375 401.85546875 30.2734375 424.8046875 25.87890625 c 0,65,-1
 424.8046875 0 l 0,66,-1
 173.33984375 0 l 0,0,-1
EndSplineSet
EndChar

StartChar: Z
Encoding: 61 90 61
Width: 530
VWidth: 488
Flags: W
LayerCount: 2
Fore
SplineSet
492.67578125 152.83203125 m 0,0,1
 491.69921875 137.20703125 491.69921875 137.20703125 490.966796875 116.69921875 c 0,2,3
 490.234375 96.19140625 490.234375 96.19140625 489.501953125 74.951171875 c 0,4,5
 488.76953125 53.7109375 488.76953125 53.7109375 488.037109375 33.935546875 c 0,6,7
 487.3046875 14.16015625 487.3046875 14.16015625 486.81640625 0 c 0,8,-1
 42.96875 0 l 0,9,-1
 27.83203125 23.4375 l 0,10,-1
 368.65234375 561.5234375 l 0,11,-1
 155.76171875 561.5234375 l 0,12,13
 147.94921875 561.5234375 147.94921875 561.5234375 138.427734375 555.17578125 c 0,14,15
 128.90625 548.828125 128.90625 548.828125 119.873046875 535.888671875 c 0,16,17
 110.83984375 522.94921875 110.83984375 522.94921875 102.783203125 503.90625 c 0,18,19
 94.7265625 484.86328125 94.7265625 484.86328125 89.35546875 459.47265625 c 0,20,-1
 56.640625 466.30859375 l 0,21,-1
 72.265625 623.046875 l 0,22,23
 85.44921875 620.1171875 85.44921875 620.1171875 96.435546875 618.408203125 c 0,24,25
 107.421875 616.69921875 107.421875 616.69921875 117.919921875 615.966796875 c 0,26,27
 128.41796875 615.234375 128.41796875 615.234375 139.6484375 615.234375 c 0,28,-1
 474.12109375 615.234375 l 0,29,-1
 487.79296875 593.26171875 l 0,30,-1
 149.4140625 53.7109375 l 0,31,-1
 394.04296875 53.7109375 l 0,32,33
 404.296875 53.7109375 404.296875 53.7109375 412.59765625 59.326171875 c 0,34,35
 420.8984375 64.94140625 420.8984375 64.94140625 428.466796875 77.392578125 c 0,36,37
 436.03515625 89.84375 436.03515625 89.84375 443.84765625 110.3515625 c 0,38,39
 451.66015625 130.859375 451.66015625 130.859375 460.9375 161.1328125 c 0,40,-1
 492.67578125 152.83203125 l 0,0,1
EndSplineSet
EndChar

StartChar: bracketleft
Encoding: 62 91 62
Width: 317
VWidth: 488
Flags: W
LayerCount: 2
Fore
SplineSet
300.29296875 -118.1640625 m 0,0,1
 299.31640625 -123.046875 299.31640625 -123.046875 297.36328125 -128.90625 c 0,2,-1
 293.45703125 -141.11328125 l 0,3,4
 291.50390625 -147.4609375 291.50390625 -147.4609375 289.306640625 -153.3203125 c 0,5,6
 287.109375 -159.1796875 287.109375 -159.1796875 285.15625 -163.57421875 c 0,7,-1
 65.91796875 -163.57421875 l 0,8,-1
 65.91796875 781.25 l 0,9,-1
 282.2265625 781.25 l 0,10,-1
 299.31640625 767.578125 l 0,11,12
 298.33984375 761.71875 298.33984375 761.71875 296.38671875 754.638671875 c 0,13,14
 294.43359375 747.55859375 294.43359375 747.55859375 292.48046875 740.966796875 c 0,15,16
 290.52734375 734.375 290.52734375 734.375 288.57421875 728.759765625 c 0,17,18
 286.62109375 723.14453125 286.62109375 723.14453125 285.15625 720.21484375 c 0,19,-1
 148.92578125 720.21484375 l 0,20,-1
 148.92578125 -102.5390625 l 0,21,-1
 282.2265625 -102.5390625 l 0,22,-1
 300.29296875 -118.1640625 l 0,0,1
EndSplineSet
EndChar

StartChar: backslash
Encoding: 63 92 63
Width: 469
VWidth: 488
Flags: W
LayerCount: 2
Fore
SplineSet
426.26953125 -163.57421875 m 0,0,-1
 411.62109375 -158.69140625 l 0,1,2
 402.83203125 -155.76171875 402.83203125 -155.76171875 393.798828125 -152.099609375 c 0,3,4
 384.765625 -148.4375 384.765625 -148.4375 376.708984375 -144.775390625 c 0,5,6
 368.65234375 -141.11328125 368.65234375 -141.11328125 364.2578125 -137.6953125 c 0,7,-1
 24.4140625 769.53125 l 0,8,-1
 43.9453125 781.25 l 0,9,10
 58.10546875 777.34375 58.10546875 777.34375 74.70703125 770.99609375 c 0,11,12
 91.30859375 764.6484375 91.30859375 764.6484375 104.98046875 756.34765625 c 0,13,-1
 444.3359375 -150.390625 l 0,14,-1
 426.26953125 -163.57421875 l 0,0,-1
EndSplineSet
EndChar

StartChar: bracketright
Encoding: 64 93 64
Width: 317
VWidth: 488
Flags: W
LayerCount: 2
Fore
SplineSet
35.64453125 -163.57421875 m 0,0,-1
 18.5546875 -148.4375 l 0,1,2
 19.04296875 -142.578125 19.04296875 -142.578125 20.751953125 -135.986328125 c 0,3,4
 22.4609375 -129.39453125 22.4609375 -129.39453125 24.4140625 -123.046875 c 0,5,6
 26.3671875 -116.69921875 26.3671875 -116.69921875 28.564453125 -111.083984375 c 0,7,8
 30.76171875 -105.46875 30.76171875 -105.46875 32.2265625 -102.5390625 c 0,9,-1
 168.45703125 -102.5390625 l 0,10,-1
 168.45703125 720.21484375 l 0,11,-1
 35.64453125 720.21484375 l 0,12,-1
 17.578125 734.375 l 0,13,14
 19.04296875 745.1171875 19.04296875 745.1171875 23.92578125 759.033203125 c 0,15,16
 28.80859375 772.94921875 28.80859375 772.94921875 32.2265625 781.25 c 0,17,-1
 251.46484375 781.25 l 0,18,-1
 251.46484375 -163.57421875 l 0,19,-1
 35.64453125 -163.57421875 l 0,0,-1
EndSplineSet
EndChar

StartChar: asciicircum
Encoding: 65 94 65
Width: 492
VWidth: 488
Flags: W
LayerCount: 2
Fore
SplineSet
442.87109375 310.05859375 m 0,0,1
 430.6640625 298.828125 430.6640625 298.828125 419.189453125 291.259765625 c 0,2,3
 407.71484375 283.69140625 407.71484375 283.69140625 391.11328125 275.87890625 c 0,4,-1
 373.046875 289.0625 l 0,5,-1
 234.86328125 642.08984375 l 0,6,-1
 112.79296875 310.05859375 l 0,7,8
 107.421875 305.17578125 107.421875 305.17578125 100.5859375 300.048828125 c 0,9,10
 93.75 294.921875 93.75 294.921875 86.42578125 290.283203125 c 0,11,12
 79.1015625 285.64453125 79.1015625 285.64453125 72.021484375 281.982421875 c 0,13,14
 64.94140625 278.3203125 64.94140625 278.3203125 60.05859375 275.87890625 c 0,15,-1
 48.828125 289.0625 l 0,16,-1
 206.0546875 713.8671875 l 0,17,18
 211.9140625 719.7265625 211.9140625 719.7265625 220.458984375 725.830078125 c 0,19,20
 229.00390625 731.93359375 229.00390625 731.93359375 237.79296875 737.79296875 c 0,21,22
 246.58203125 743.65234375 246.58203125 743.65234375 255.37109375 748.53515625 c 0,23,24
 264.16015625 753.41796875 264.16015625 753.41796875 270.99609375 756.8359375 c 0,25,-1
 442.87109375 310.05859375 l 0,0,1
EndSplineSet
EndChar

StartChar: underscore
Encoding: 66 95 66
Width: 474
VWidth: 488
Flags: W
LayerCount: 2
Fore
SplineSet
444.3359375 -77.1484375 m 0,0,1
 443.359375 -82.51953125 443.359375 -82.51953125 441.40625 -88.8671875 c 0,2,3
 439.453125 -95.21484375 439.453125 -95.21484375 437.01171875 -101.806640625 c 0,4,5
 434.5703125 -108.3984375 434.5703125 -108.3984375 432.12890625 -114.501953125 c 0,6,7
 429.6875 -120.60546875 429.6875 -120.60546875 427.734375 -125 c 0,8,-1
 41.9921875 -125 l 0,9,-1
 28.3203125 -110.83984375 l 0,10,11
 30.76171875 -101.07421875 30.76171875 -101.07421875 36.1328125 -87.40234375 c 0,12,13
 41.50390625 -73.73046875 41.50390625 -73.73046875 45.8984375 -63.96484375 c 0,14,-1
 431.640625 -63.96484375 l 0,15,-1
 444.3359375 -77.1484375 l 0,0,1
EndSplineSet
EndChar

StartChar: grave
Encoding: 67 96 67
Width: 318
VWidth: 488
Flags: W
LayerCount: 2
Fore
SplineSet
216.30859375 527.83203125 m 0,0,1
 210.9375 523.4375 210.9375 523.4375 201.66015625 518.06640625 c 0,2,3
 192.3828125 512.6953125 192.3828125 512.6953125 184.08203125 510.25390625 c 0,4,-1
 7.32421875 694.3359375 l 0,5,-1
 19.04296875 716.796875 l 0,6,7
 23.92578125 717.7734375 23.92578125 717.7734375 35.15625 719.970703125 c 0,8,9
 46.38671875 722.16796875 46.38671875 722.16796875 59.326171875 724.365234375 c 0,10,11
 72.265625 726.5625 72.265625 726.5625 84.47265625 728.515625 c 0,12,13
 96.6796875 730.46875 96.6796875 730.46875 102.5390625 730.95703125 c 0,14,-1
 216.30859375 527.83203125 l 0,0,1
EndSplineSet
EndChar

StartChar: a
Encoding: 68 97 68
Width: 472
VWidth: 488
Flags: W
LayerCount: 2
Fore
SplineSet
466.796875 44.921875 m 0,0,1
 425.29296875 16.11328125 425.29296875 16.11328125 392.822265625 0.732421875 c 0,2,3
 360.3515625 -14.6484375 360.3515625 -14.6484375 345.21484375 -14.6484375 c 0,4,5
 328.125 -14.6484375 328.125 -14.6484375 317.138671875 7.32421875 c 0,6,7
 306.15234375 29.296875 306.15234375 29.296875 304.19921875 67.87109375 c 0,8,9
 282.2265625 45.41015625 282.2265625 45.41015625 260.25390625 29.78515625 c 0,10,11
 238.28125 14.16015625 238.28125 14.16015625 217.529296875 4.150390625 c 0,12,13
 196.77734375 -5.859375 196.77734375 -5.859375 177.734375 -10.25390625 c 0,14,15
 158.69140625 -14.6484375 158.69140625 -14.6484375 143.06640625 -14.6484375 c 0,16,17
 124.51171875 -14.6484375 124.51171875 -14.6484375 105.712890625 -8.544921875 c 0,18,19
 86.9140625 -2.44140625 86.9140625 -2.44140625 71.533203125 10.7421875 c 0,20,21
 56.15234375 23.92578125 56.15234375 23.92578125 46.38671875 44.43359375 c 0,22,23
 36.62109375 64.94140625 36.62109375 64.94140625 36.62109375 93.26171875 c 0,24,25
 36.62109375 128.90625 36.62109375 128.90625 49.31640625 153.3203125 c 0,26,27
 62.01171875 177.734375 62.01171875 177.734375 80.078125 195.80078125 c 0,28,29
 91.796875 207.51953125 91.796875 207.51953125 106.93359375 218.26171875 c 0,30,31
 122.0703125 229.00390625 122.0703125 229.00390625 146.728515625 238.76953125 c 0,32,33
 171.38671875 248.53515625 171.38671875 248.53515625 209.228515625 257.568359375 c 0,34,35
 247.0703125 266.6015625 247.0703125 266.6015625 304.19921875 275.390625 c 0,36,-1
 304.19921875 340.33203125 l 0,37,38
 304.19921875 356.4453125 304.19921875 356.4453125 300.78125 370.361328125 c 0,39,40
 297.36328125 384.27734375 297.36328125 384.27734375 288.57421875 394.287109375 c 0,41,42
 279.78515625 404.296875 279.78515625 404.296875 265.13671875 409.912109375 c 0,43,44
 250.48828125 415.52734375 250.48828125 415.52734375 228.515625 415.0390625 c 0,45,46
 213.8671875 415.0390625 213.8671875 415.0390625 200.1953125 410.15625 c 0,47,48
 186.5234375 405.2734375 186.5234375 405.2734375 175.78125 396.97265625 c 0,49,50
 165.0390625 388.671875 165.0390625 388.671875 159.1796875 376.708984375 c 0,51,52
 153.3203125 364.74609375 153.3203125 364.74609375 154.78515625 350.09765625 c 0,53,54
 155.2734375 347.16796875 155.2734375 347.16796875 149.169921875 343.26171875 c 0,55,56
 143.06640625 339.35546875 143.06640625 339.35546875 133.544921875 335.44921875 c 0,57,58
 124.0234375 331.54296875 124.0234375 331.54296875 112.548828125 328.125 c 0,59,60
 101.07421875 324.70703125 101.07421875 324.70703125 90.087890625 322.265625 c 0,61,62
 79.1015625 319.82421875 79.1015625 319.82421875 70.068359375 318.603515625 c 0,63,64
 61.03515625 317.3828125 61.03515625 317.3828125 57.12890625 318.359375 c 0,65,-1
 49.31640625 339.84375 l 0,66,67
 60.546875 365.72265625 60.546875 365.72265625 84.47265625 389.16015625 c 0,68,69
 108.3984375 412.59765625 108.3984375 412.59765625 139.16015625 430.17578125 c 0,70,71
 169.921875 447.75390625 169.921875 447.75390625 205.078125 458.251953125 c 0,72,73
 240.234375 468.75 240.234375 468.75 274.4140625 468.75 c 0,74,75
 332.51953125 468.75 332.51953125 468.75 362.3046875 438.96484375 c 0,76,77
 392.08984375 409.1796875 392.08984375 409.1796875 392.08984375 358.88671875 c 0,78,-1
 392.08984375 96.6796875 l 0,79,80
 392.08984375 76.171875 392.08984375 76.171875 397.4609375 67.3828125 c 0,81,82
 402.83203125 58.59375 402.83203125 58.59375 411.62109375 58.59375 c 0,83,84
 418.45703125 58.59375 418.45703125 58.59375 428.7109375 61.03515625 c 0,85,86
 438.96484375 63.4765625 438.96484375 63.4765625 458.49609375 71.77734375 c 0,87,-1
 466.796875 44.921875 l 0,0,1
181.640625 56.15234375 m 0,88,89
 207.03125 56.15234375 207.03125 56.15234375 237.060546875 69.580078125 c 0,90,91
 267.08984375 83.0078125 267.08984375 83.0078125 304.19921875 114.74609375 c 0,92,-1
 304.19921875 234.86328125 l 0,93,94
 267.08984375 229.00390625 267.08984375 229.00390625 242.67578125 223.14453125 c 0,95,96
 218.26171875 217.28515625 218.26171875 217.28515625 202.1484375 211.181640625 c 0,97,98
 186.03515625 205.078125 186.03515625 205.078125 176.513671875 198.486328125 c 0,99,100
 166.9921875 191.89453125 166.9921875 191.89453125 159.66796875 184.08203125 c 0,101,102
 146.97265625 170.8984375 146.97265625 170.8984375 139.16015625 154.78515625 c 0,103,104
 131.34765625 138.671875 131.34765625 138.671875 131.34765625 116.69921875 c 0,105,106
 131.34765625 98.14453125 131.34765625 98.14453125 136.71875 86.42578125 c 0,107,108
 142.08984375 74.70703125 142.08984375 74.70703125 149.90234375 67.87109375 c 0,109,110
 157.71484375 61.03515625 157.71484375 61.03515625 166.50390625 58.59375 c 0,111,112
 175.29296875 56.15234375 175.29296875 56.15234375 181.640625 56.15234375 c 0,88,89
EndSplineSet
EndChar

StartChar: b
Encoding: 69 98 69
Width: 517
VWidth: 488
Flags: W
LayerCount: 2
Fore
SplineSet
395.99609375 200.68359375 m 0,0,1
 395.99609375 249.51171875 395.99609375 249.51171875 386.474609375 286.1328125 c 0,2,3
 376.953125 322.75390625 376.953125 322.75390625 360.83984375 347.412109375 c 0,4,5
 344.7265625 372.0703125 344.7265625 372.0703125 323.73046875 384.521484375 c 0,6,7
 302.734375 396.97265625 302.734375 396.97265625 279.296875 396.97265625 c 0,8,9
 270.5078125 396.97265625 270.5078125 396.97265625 257.32421875 392.822265625 c 0,10,11
 244.140625 388.671875 244.140625 388.671875 227.5390625 378.41796875 c 0,12,13
 210.9375 368.1640625 210.9375 368.1640625 192.138671875 351.318359375 c 0,14,15
 173.33984375 334.47265625 173.33984375 334.47265625 153.80859375 309.08203125 c 0,16,-1
 153.80859375 101.5625 l 0,17,18
 173.33984375 88.37890625 173.33984375 88.37890625 192.626953125 79.58984375 c 0,19,20
 211.9140625 70.80078125 211.9140625 70.80078125 229.00390625 65.185546875 c 0,21,22
 246.09375 59.5703125 246.09375 59.5703125 259.765625 57.373046875 c 0,23,24
 273.4375 55.17578125 273.4375 55.17578125 281.73828125 55.17578125 c 0,25,26
 310.05859375 55.17578125 310.05859375 55.17578125 331.54296875 67.3828125 c 0,27,28
 353.02734375 79.58984375 353.02734375 79.58984375 367.1875 99.853515625 c 0,29,30
 381.34765625 120.1171875 381.34765625 120.1171875 388.671875 146.240234375 c 0,31,32
 395.99609375 172.36328125 395.99609375 172.36328125 395.99609375 200.68359375 c 0,0,1
476.07421875 242.67578125 m 0,33,34
 476.07421875 214.35546875 476.07421875 214.35546875 467.7734375 184.326171875 c 0,35,36
 459.47265625 154.296875 459.47265625 154.296875 444.091796875 125.732421875 c 0,37,38
 428.7109375 97.16796875 428.7109375 97.16796875 406.73828125 71.533203125 c 0,39,40
 384.765625 45.8984375 384.765625 45.8984375 357.91015625 26.85546875 c 0,41,42
 331.0546875 7.8125 331.0546875 7.8125 299.8046875 -3.41796875 c 0,43,44
 268.5546875 -14.6484375 268.5546875 -14.6484375 233.88671875 -14.6484375 c 0,45,46
 223.14453125 -14.6484375 223.14453125 -14.6484375 205.56640625 -10.25390625 c 0,47,48
 187.98828125 -5.859375 187.98828125 -5.859375 165.771484375 2.197265625 c 0,49,50
 143.5546875 10.25390625 143.5546875 10.25390625 117.919921875 21.484375 c 0,51,52
 92.28515625 32.71484375 92.28515625 32.71484375 65.91796875 46.875 c 0,53,-1
 65.91796875 627.9296875 l 0,54,55
 65.91796875 650.390625 65.91796875 650.390625 63.720703125 662.59765625 c 0,56,57
 61.5234375 674.8046875 61.5234375 674.8046875 54.931640625 680.908203125 c 0,58,59
 48.33984375 687.01171875 48.33984375 687.01171875 36.1328125 688.96484375 c 0,60,61
 23.92578125 690.91796875 23.92578125 690.91796875 3.90625 693.359375 c 0,62,-1
 3.90625 717.7734375 l 0,63,64
 40.52734375 725.5859375 40.52734375 725.5859375 72.265625 733.642578125 c 0,65,66
 104.00390625 741.69921875 104.00390625 741.69921875 134.765625 756.8359375 c 0,67,-1
 139.6484375 751.953125 l 0,68,69
 142.578125 749.0234375 142.578125 749.0234375 145.99609375 746.09375 c 0,70,71
 149.4140625 742.67578125 149.4140625 742.67578125 153.80859375 739.2578125 c 0,72,-1
 153.80859375 367.1875 l 0,73,74
 178.22265625 393.5546875 178.22265625 393.5546875 202.392578125 412.841796875 c 0,75,76
 226.5625 432.12890625 226.5625 432.12890625 248.53515625 444.580078125 c 0,77,78
 270.5078125 457.03125 270.5078125 457.03125 289.306640625 462.890625 c 0,79,80
 308.10546875 468.75 308.10546875 468.75 322.265625 468.75 c 0,81,82
 356.4453125 468.75 356.4453125 468.75 384.765625 453.125 c 0,83,84
 413.0859375 437.5 413.0859375 437.5 433.349609375 408.203125 c 0,85,86
 453.61328125 378.90625 453.61328125 378.90625 464.84375 337.158203125 c 0,87,88
 476.07421875 295.41015625 476.07421875 295.41015625 476.07421875 242.67578125 c 0,33,34
EndSplineSet
EndChar

StartChar: c
Encoding: 70 99 70
Width: 443
VWidth: 488
Flags: W
LayerCount: 2
Fore
SplineSet
418.9453125 92.7734375 m 0,0,1
 387.20703125 55.6640625 387.20703125 55.6640625 362.060546875 34.423828125 c 0,2,3
 336.9140625 13.18359375 336.9140625 13.18359375 315.185546875 2.197265625 c 0,4,5
 293.45703125 -8.7890625 293.45703125 -8.7890625 272.94921875 -11.71875 c 0,6,7
 252.44140625 -14.6484375 252.44140625 -14.6484375 229.4921875 -14.6484375 c 0,8,9
 192.3828125 -14.6484375 192.3828125 -14.6484375 157.71484375 1.220703125 c 0,10,11
 123.046875 17.08984375 123.046875 17.08984375 96.19140625 46.875 c 0,12,13
 69.3359375 76.66015625 69.3359375 76.66015625 52.978515625 119.62890625 c 0,14,15
 36.62109375 162.59765625 36.62109375 162.59765625 36.62109375 216.796875 c 0,16,17
 36.62109375 269.53125 36.62109375 269.53125 55.908203125 315.4296875 c 0,18,19
 75.1953125 361.328125 75.1953125 361.328125 109.130859375 395.263671875 c 0,20,21
 143.06640625 429.19921875 143.06640625 429.19921875 189.697265625 448.974609375 c 0,22,23
 236.328125 468.75 236.328125 468.75 290.52734375 468.75 c 0,24,25
 306.640625 468.75 306.640625 468.75 324.70703125 466.064453125 c 0,26,27
 342.7734375 463.37890625 342.7734375 463.37890625 359.619140625 458.251953125 c 0,28,29
 376.46484375 453.125 376.46484375 453.125 390.380859375 446.044921875 c 0,30,31
 404.296875 438.96484375 404.296875 438.96484375 412.59765625 430.17578125 c 0,32,33
 413.57421875 424.31640625 413.57421875 424.31640625 410.64453125 411.1328125 c 0,34,35
 407.71484375 397.94921875 407.71484375 397.94921875 402.587890625 383.056640625 c 0,36,37
 397.4609375 368.1640625 397.4609375 368.1640625 391.6015625 354.736328125 c 0,38,39
 385.7421875 341.30859375 385.7421875 341.30859375 381.34765625 334.47265625 c 0,40,-1
 358.3984375 339.35546875 l 0,41,42
 353.02734375 353.02734375 353.02734375 353.02734375 343.994140625 366.2109375 c 0,43,44
 334.9609375 379.39453125 334.9609375 379.39453125 321.533203125 389.6484375 c 0,45,46
 308.10546875 399.90234375 308.10546875 399.90234375 290.283203125 406.25 c 0,47,48
 272.4609375 412.59765625 272.4609375 412.59765625 249.0234375 412.59765625 c 0,49,50
 224.609375 412.59765625 224.609375 412.59765625 202.1484375 401.85546875 c 0,51,52
 179.6875 391.11328125 179.6875 391.11328125 162.59765625 368.65234375 c 0,53,54
 145.5078125 346.19140625 145.5078125 346.19140625 135.009765625 312.255859375 c 0,55,56
 124.51171875 278.3203125 124.51171875 278.3203125 124.51171875 231.93359375 c 0,57,58
 124.51171875 191.40625 124.51171875 191.40625 136.23046875 158.69140625 c 0,59,60
 147.94921875 125.9765625 147.94921875 125.9765625 167.48046875 103.02734375 c 0,61,62
 187.01171875 80.078125 187.01171875 80.078125 212.890625 67.626953125 c 0,63,64
 238.76953125 55.17578125 238.76953125 55.17578125 267.08984375 55.17578125 c 0,65,66
 280.76171875 55.17578125 280.76171875 55.17578125 292.96875 56.640625 c 0,67,68
 305.17578125 58.10546875 305.17578125 58.10546875 319.3359375 63.96484375 c 0,69,70
 333.49609375 69.82421875 333.49609375 69.82421875 352.05078125 82.275390625 c 0,71,72
 370.60546875 94.7265625 370.60546875 94.7265625 397.4609375 116.69921875 c 0,73,-1
 418.9453125 92.7734375 l 0,0,1
EndSplineSet
EndChar

StartChar: d
Encoding: 71 100 71
Width: 533
VWidth: 488
Flags: W
LayerCount: 2
Fore
SplineSet
363.76953125 128.41796875 m 0,0,-1
 363.76953125 352.5390625 l 0,1,2
 347.16796875 380.859375 347.16796875 380.859375 319.091796875 396.240234375 c 0,3,4
 291.015625 411.62109375 291.015625 411.62109375 256.34765625 411.62109375 c 0,5,6
 227.5390625 411.62109375 227.5390625 411.62109375 203.369140625 400.87890625 c 0,7,8
 179.19921875 390.13671875 179.19921875 390.13671875 161.62109375 368.1640625 c 0,9,10
 144.04296875 346.19140625 144.04296875 346.19140625 134.27734375 313.232421875 c 0,11,12
 124.51171875 280.2734375 124.51171875 280.2734375 124.51171875 235.83984375 c 0,13,14
 124.51171875 195.3125 124.51171875 195.3125 135.7421875 162.353515625 c 0,15,16
 146.97265625 129.39453125 146.97265625 129.39453125 164.55078125 106.4453125 c 0,17,18
 182.12890625 83.49609375 182.12890625 83.49609375 203.61328125 71.044921875 c 0,19,20
 225.09765625 58.59375 225.09765625 58.59375 245.1171875 58.59375 c 0,21,22
 260.7421875 58.59375 260.7421875 58.59375 275.634765625 64.208984375 c 0,23,24
 290.52734375 69.82421875 290.52734375 69.82421875 305.17578125 79.345703125 c 0,25,26
 319.82421875 88.8671875 319.82421875 88.8671875 334.47265625 101.5625 c 0,27,28
 349.12109375 114.2578125 349.12109375 114.2578125 363.76953125 128.41796875 c 0,0,-1
527.83203125 45.8984375 m 0,29,30
 482.421875 15.625 482.421875 15.625 451.66015625 0.48828125 c 0,31,32
 420.8984375 -14.6484375 420.8984375 -14.6484375 407.2265625 -14.6484375 c 0,33,34
 390.13671875 -14.6484375 390.13671875 -14.6484375 379.638671875 7.32421875 c 0,35,36
 369.140625 29.296875 369.140625 29.296875 365.234375 78.61328125 c 0,37,38
 345.21484375 56.15234375 345.21484375 56.15234375 327.1484375 38.818359375 c 0,39,40
 309.08203125 21.484375 309.08203125 21.484375 290.0390625 9.521484375 c 0,41,42
 270.99609375 -2.44140625 270.99609375 -2.44140625 250.48828125 -8.544921875 c 0,43,44
 229.98046875 -14.6484375 229.98046875 -14.6484375 205.56640625 -14.6484375 c 0,45,46
 176.7578125 -14.6484375 176.7578125 -14.6484375 146.728515625 1.220703125 c 0,47,48
 116.69921875 17.08984375 116.69921875 17.08984375 92.28515625 46.875 c 0,49,50
 67.87109375 76.66015625 67.87109375 76.66015625 52.24609375 119.62890625 c 0,51,52
 36.62109375 162.59765625 36.62109375 162.59765625 36.62109375 216.796875 c 0,53,54
 36.62109375 246.58203125 36.62109375 246.58203125 44.189453125 276.611328125 c 0,55,56
 51.7578125 306.640625 51.7578125 306.640625 66.162109375 334.716796875 c 0,57,58
 80.56640625 362.79296875 80.56640625 362.79296875 101.318359375 387.20703125 c 0,59,60
 122.0703125 411.62109375 122.0703125 411.62109375 147.94921875 429.6875 c 0,61,62
 173.828125 447.75390625 173.828125 447.75390625 204.345703125 458.251953125 c 0,63,64
 234.86328125 468.75 234.86328125 468.75 269.04296875 468.75 c 0,65,66
 291.9921875 468.75 291.9921875 468.75 314.697265625 463.134765625 c 0,67,68
 337.40234375 457.51953125 337.40234375 457.51953125 363.76953125 438.96484375 c 0,69,-1
 363.76953125 617.1875 l 0,70,71
 363.76953125 644.04296875 363.76953125 644.04296875 362.548828125 659.912109375 c 0,72,73
 361.328125 675.78125 361.328125 675.78125 354.736328125 684.326171875 c 0,74,75
 348.14453125 692.87109375 348.14453125 692.87109375 334.228515625 696.044921875 c 0,76,77
 320.3125 699.21875 320.3125 699.21875 294.43359375 701.171875 c 0,78,-1
 294.43359375 725.09765625 l 0,79,80
 338.8671875 730.46875 338.8671875 730.46875 374.51171875 739.501953125 c 0,81,82
 410.15625 748.53515625 410.15625 748.53515625 435.546875 756.8359375 c 0,83,-1
 451.66015625 741.2109375 l 0,84,-1
 451.66015625 131.34765625 l 0,85,86
 451.66015625 114.2578125 451.66015625 114.2578125 452.392578125 102.294921875 c 0,87,88
 453.125 90.33203125 453.125 90.33203125 454.58984375 82.275390625 c 0,89,90
 456.0546875 74.21875 456.0546875 74.21875 458.0078125 69.3359375 c 0,91,92
 459.9609375 64.453125 459.9609375 64.453125 462.890625 61.5234375 c 0,93,94
 465.33203125 59.08203125 465.33203125 59.08203125 468.994140625 58.349609375 c 0,95,96
 472.65625 57.6171875 472.65625 57.6171875 479.248046875 58.837890625 c 0,97,98
 485.83984375 60.05859375 485.83984375 60.05859375 495.361328125 62.98828125 c 0,99,100
 504.8828125 65.91796875 504.8828125 65.91796875 519.04296875 71.77734375 c 0,101,-1
 527.83203125 45.8984375 l 0,29,30
EndSplineSet
EndChar

StartChar: e
Encoding: 72 101 72
Width: 469
VWidth: 488
Flags: W
LayerCount: 2
Fore
SplineSet
432.6171875 270.99609375 m 0,0,1
 423.828125 261.23046875 423.828125 261.23046875 406.73828125 251.708984375 c 0,2,3
 389.6484375 242.1875 389.6484375 242.1875 374.0234375 235.83984375 c 0,4,-1
 125.9765625 235.83984375 l 0,5,6
 126.46484375 198.73046875 126.46484375 198.73046875 136.23046875 165.771484375 c 0,7,8
 145.99609375 132.8125 145.99609375 132.8125 163.57421875 108.3984375 c 0,9,10
 181.15234375 83.984375 181.15234375 83.984375 206.298828125 69.580078125 c 0,11,12
 231.4453125 55.17578125 231.4453125 55.17578125 263.18359375 55.17578125 c 0,13,14
 278.3203125 55.17578125 278.3203125 55.17578125 292.724609375 57.12890625 c 0,15,16
 307.12890625 59.08203125 307.12890625 59.08203125 323.73046875 65.673828125 c 0,17,18
 340.33203125 72.265625 340.33203125 72.265625 360.83984375 84.9609375 c 0,19,20
 381.34765625 97.65625 381.34765625 97.65625 409.1796875 119.140625 c 0,21,22
 415.52734375 115.72265625 415.52734375 115.72265625 421.38671875 107.421875 c 0,23,24
 427.24609375 99.12109375 427.24609375 99.12109375 429.6875 95.21484375 c 0,25,26
 396.484375 60.05859375 396.484375 60.05859375 371.09375 38.57421875 c 0,27,28
 345.703125 17.08984375 345.703125 17.08984375 322.998046875 5.126953125 c 0,29,30
 300.29296875 -6.8359375 300.29296875 -6.8359375 278.076171875 -10.7421875 c 0,31,32
 255.859375 -14.6484375 255.859375 -14.6484375 229.4921875 -14.6484375 c 0,33,34
 190.4296875 -14.6484375 190.4296875 -14.6484375 155.517578125 1.708984375 c 0,35,36
 120.60546875 18.06640625 120.60546875 18.06640625 94.23828125 47.8515625 c 0,37,38
 67.87109375 77.63671875 67.87109375 77.63671875 52.24609375 119.62890625 c 0,39,40
 36.62109375 161.62109375 36.62109375 161.62109375 36.62109375 213.37890625 c 0,41,42
 36.62109375 246.09375 36.62109375 246.09375 43.701171875 277.34375 c 0,43,44
 50.78125 308.59375 50.78125 308.59375 64.208984375 335.9375 c 0,45,46
 77.63671875 363.28125 77.63671875 363.28125 97.16796875 386.71875 c 0,47,48
 116.69921875 410.15625 116.69921875 410.15625 142.08984375 427.734375 c 0,49,50
 153.80859375 436.03515625 153.80859375 436.03515625 167.96875 443.359375 c 0,51,52
 182.12890625 450.68359375 182.12890625 450.68359375 197.509765625 456.298828125 c 0,53,54
 212.890625 461.9140625 212.890625 461.9140625 229.00390625 465.33203125 c 0,55,56
 245.1171875 468.75 245.1171875 468.75 259.765625 468.75 c 0,57,58
 291.50390625 468.75 291.50390625 468.75 316.89453125 460.44921875 c 0,59,60
 342.28515625 452.1484375 342.28515625 452.1484375 361.572265625 437.744140625 c 0,61,62
 380.859375 423.33984375 380.859375 423.33984375 394.287109375 403.80859375 c 0,63,64
 407.71484375 384.27734375 407.71484375 384.27734375 416.259765625 362.3046875 c 0,65,66
 424.8046875 340.33203125 424.8046875 340.33203125 428.7109375 316.89453125 c 0,67,68
 432.6171875 293.45703125 432.6171875 293.45703125 432.6171875 270.99609375 c 0,0,1
244.62890625 415.0390625 m 0,69,70
 220.21484375 415.0390625 220.21484375 415.0390625 200.439453125 405.517578125 c 0,71,72
 180.6640625 395.99609375 180.6640625 395.99609375 166.015625 378.662109375 c 0,73,74
 151.3671875 361.328125 151.3671875 361.328125 141.845703125 336.9140625 c 0,75,76
 132.32421875 312.5 132.32421875 312.5 128.41796875 283.203125 c 0,77,-1
 321.77734375 283.203125 l 0,78,79
 333.0078125 283.203125 333.0078125 283.203125 336.669921875 286.865234375 c 0,80,81
 340.33203125 290.52734375 340.33203125 290.52734375 340.33203125 300.78125 c 0,82,83
 340.33203125 314.453125 340.33203125 314.453125 336.42578125 333.984375 c 0,84,85
 332.51953125 353.515625 332.51953125 353.515625 322.021484375 371.58203125 c 0,86,87
 311.5234375 389.6484375 311.5234375 389.6484375 292.96875 402.34375 c 0,88,89
 274.4140625 415.0390625 274.4140625 415.0390625 244.62890625 415.0390625 c 0,69,70
EndSplineSet
EndChar

StartChar: f
Encoding: 73 102 73
Width: 320
VWidth: 488
Flags: W
LayerCount: 2
Fore
SplineSet
411.1328125 709.9609375 m 0,0,1
 411.1328125 704.58984375 411.1328125 704.58984375 403.076171875 695.3125 c 0,2,3
 395.01953125 686.03515625 395.01953125 686.03515625 384.033203125 676.26953125 c 0,4,5
 373.046875 666.50390625 373.046875 666.50390625 361.572265625 657.958984375 c 0,6,7
 350.09765625 649.4140625 350.09765625 649.4140625 342.7734375 645.99609375 c 0,8,9
 319.3359375 669.43359375 319.3359375 669.43359375 296.630859375 680.17578125 c 0,10,11
 273.92578125 690.91796875 273.92578125 690.91796875 259.765625 690.91796875 c 0,12,13
 247.0703125 690.91796875 247.0703125 690.91796875 233.642578125 682.6171875 c 0,14,15
 220.21484375 674.31640625 220.21484375 674.31640625 208.984375 652.587890625 c 0,16,17
 197.75390625 630.859375 197.75390625 630.859375 190.4296875 593.017578125 c 0,18,19
 183.10546875 555.17578125 183.10546875 555.17578125 183.10546875 496.09375 c 0,20,-1
 183.10546875 454.1015625 l 0,21,-1
 307.6171875 454.1015625 l 0,22,-1
 323.2421875 438.96484375 l 0,23,24
 318.84765625 431.640625 318.84765625 431.640625 312.255859375 423.33984375 c 0,25,26
 305.6640625 415.0390625 305.6640625 415.0390625 299.072265625 407.71484375 c 0,27,28
 292.48046875 400.390625 292.48046875 400.390625 286.1328125 394.53125 c 0,29,30
 279.78515625 388.671875 279.78515625 388.671875 275.390625 385.7421875 c 0,31,32
 264.16015625 391.6015625 264.16015625 391.6015625 243.1640625 397.216796875 c 0,33,34
 222.16796875 402.83203125 222.16796875 402.83203125 183.10546875 402.83203125 c 0,35,-1
 183.10546875 54.6875 l 0,36,37
 183.10546875 51.7578125 183.10546875 51.7578125 188.232421875 48.828125 c 0,38,39
 193.359375 45.8984375 193.359375 45.8984375 205.078125 42.724609375 c 0,40,41
 216.796875 39.55078125 216.796875 39.55078125 236.083984375 35.400390625 c 0,42,43
 255.37109375 31.25 255.37109375 31.25 284.1796875 25.87890625 c 0,44,-1
 284.1796875 0 l 0,45,-1
 28.3203125 0 l 0,46,-1
 28.3203125 25.87890625 l 0,47,48
 62.01171875 31.73828125 62.01171875 31.73828125 78.61328125 40.283203125 c 0,49,50
 95.21484375 48.828125 95.21484375 48.828125 95.21484375 54.6875 c 0,51,-1
 95.21484375 402.83203125 l 0,52,-1
 32.2265625 402.83203125 l 0,53,-1
 20.99609375 417.96875 l 0,54,-1
 59.08203125 454.1015625 l 0,55,-1
 95.21484375 454.1015625 l 0,56,-1
 95.21484375 469.23828125 l 0,57,58
 95.21484375 520.99609375 95.21484375 520.99609375 102.294921875 558.10546875 c 0,59,60
 109.375 595.21484375 109.375 595.21484375 121.826171875 622.0703125 c 0,61,62
 134.27734375 648.92578125 134.27734375 648.92578125 151.123046875 668.45703125 c 0,63,64
 167.96875 687.98828125 167.96875 687.98828125 187.5 704.58984375 c 0,65,66
 202.1484375 717.28515625 202.1484375 717.28515625 219.23828125 727.05078125 c 0,67,68
 236.328125 736.81640625 236.328125 736.81640625 252.685546875 743.408203125 c 0,69,70
 269.04296875 750 269.04296875 750 284.1796875 753.41796875 c 0,71,72
 299.31640625 756.8359375 299.31640625 756.8359375 310.546875 756.8359375 c 0,73,74
 328.125 756.8359375 328.125 756.8359375 345.947265625 750.9765625 c 0,75,76
 363.76953125 745.1171875 363.76953125 745.1171875 378.173828125 737.548828125 c 0,77,78
 392.578125 729.98046875 392.578125 729.98046875 401.85546875 722.16796875 c 0,79,80
 411.1328125 714.35546875 411.1328125 714.35546875 411.1328125 709.9609375 c 0,0,1
EndSplineSet
EndChar

